<svg id="gender_gap_Image" data-name="gender_gap Image" xmlns="http://www.w3.org/2000/svg" xmlns:xlink="http://www.w3.org/1999/xlink" width="496.31" height="788.2" viewBox="0 0 496.31 788.2">
  <defs>
    <style>
      .cls-1, .cls-2 {
        stroke-miterlimit: 10;
      }

      .cls-1 {
        fill: url(#linear-gradient);
        stroke: url(#linear-gradient-2);
      }

      .cls-2 {
        fill: url(#linear-gradient-3);
        stroke: url(#linear-gradient-4);
      }

      .cls-3 {
        font-size: 121px;
      }

      .cls-3, .cls-4 {
        fill: #fffff8;
        font-family: HelveticaNeue-Bold, Helvetica Neue;
        font-weight: 700;
      }

      .cls-4 {
        font-size: 21px;
      }
    </style>
    <linearGradient id="linear-gradient" x1="51.87" y1="719.68" x2="474.74" y2="-12.75" gradientUnits="userSpaceOnUse">
      <stop offset="0" stop-color="#c9b782"/>
      <stop offset="1" stop-color="#659ac6"/>
    </linearGradient>
    <linearGradient id="linear-gradient-2" x1="323.53" y1="787.6" x2="323.53" y2="-0.6" gradientUnits="userSpaceOnUse">
      <stop offset="0" stop-color="#c9b782"/>
      <stop offset="0.16" stop-color="#b5b190"/>
      <stop offset="0.53" stop-color="#8aa5ad"/>
      <stop offset="0.83" stop-color="#6f9dbf"/>
      <stop offset="1" stop-color="#659ac6"/>
    </linearGradient>
    <linearGradient id="linear-gradient-3" x1="-4.15" y1="476.9" x2="122.19" y2="258.07" xlink:href="#linear-gradient"/>
    <linearGradient id="linear-gradient-4" x1="31.95" y1="516.43" x2="31.95" y2="222.68" xlink:href="#linear-gradient-2"/>
  </defs>
  <g>
    <path class="cls-1" d="M496.65-.1c-.12,5.67-.25,11.34-.35,17q-.1,6.24-.16,12.48c-.05,5.84,0,11.68-.14,17.51-.12,4.86-.53,9.71-.7,14.57-.14,4.08-.13,8.16-.16,12.24-.05,5.35,0,10.71-.14,16.07s-.5,10.84-.69,16.26c-.13,3.92-.15,7.84-.2,11.75-.06,5-.05,10.08-.17,15.12-.22,9.5-.54,19-.76,28.5-.13,5.68-.1,11.36-.2,17-.06,3.12-.23,6.23-.4,9.34-.07,1.44-.47,1.95-1.88,1.92-3.33-.1-6.7.56-10-.46a4.84,4.84,0,0,0-1.43-.07c-9.35-.08-18.7-.07-28-.25-5.66-.1-11.31-.51-17-.75-1.09,0-1.62-.51-1.62-1.59,0-.8,0-1.6,0-2.4.18-4.79.45-9.57.55-14.36.12-5.92.08-11.84.15-17.76.05-4.15.13-8.31.27-12.46.07-1.89.32-3.77.51-5.83a2.3,2.3,0,0,0-2,1c-3.55,4.73-7.14,9.43-10.72,14.13q-6.82,8.94-13.66,17.86l-12.81,16.76c-3.35,4.39-6.67,8.8-10,13.18-3.75,4.87-7.56,9.69-11.29,14.57q-8.28,10.81-16.5,21.68c-.86,1.13-1.7,2.28-2.66,3.58,1.08,1.39,2.15,2.82,3.28,4.21a196.8,196.8,0,0,1,19.44,28.55,168.91,168.91,0,0,1,10.23,21.05c1.84,4.76,3.95,9.44,5.54,14.29,1.93,5.89,3.56,11.88,5.08,17.89,1,3.91,1.65,7.91,2.27,11.9,1,6.29,1.9,12.59,2.68,18.91a61.25,61.25,0,0,1,.24,7.67c0,8.47.06,17-.23,25.42-.14,4-1,8-1.59,12.05-.4,2.92-.71,5.85-1.2,8.76-.43,2.49-1,4.94-1.6,7.41-.36,1.63-.72,3.26-1.17,4.87-1.36,4.82-2.64,9.66-4.17,14.42s-3.16,9.77-5.14,14.49c-2.26,5.38-4.89,10.62-7.48,15.86A174.17,174.17,0,0,1,363.42,492c-3.57,4.71-7.25,9.36-11.15,13.79s-8.2,9-12.57,13.18c-4.05,3.88-8.4,7.43-12.69,11a178.45,178.45,0,0,1-18.44,13.29,155.51,155.51,0,0,1-17.86,10.12c-6.12,2.89-12.23,5.86-18.53,8.35-5.45,2.16-11.12,3.79-16.74,5.47-3.86,1.16-7.79,2.07-11.72,3-3.16.73-6.36,1.28-9.53,1.93-1.85.38-3.7.81-5.7,1.25v62.79h55.27c.58,2,.73,56.7.21,60H228.55c-.08,1.4-.2,2.49-.2,3.58q0,42,0,84c0,1.11-.14,2.22-.22,3.33H168.64c-.07-1.11-.22-2.22-.22-3.33q0-42,0-84c0-1.1-.12-2.19-.2-3.6H150.57V636.39a80.34,80.34,0,0,1,8.88-.18c2.87,0,5.73,0,8.52,0,.52-2,.66-59.78.19-62.86L150.85,570c-.62-2.31-.58-60.48.06-62.46,3.67,1.13,7.33,2.33,11,3.37,1.9.54,3.88.82,5.83,1.18,2.1.4,4.22.7,6.3,1.15a89.44,89.44,0,0,0,18.53,1.89c6.15,0,12.31,0,18.45-.26a112,112,0,0,0,11.32-1.59c2.43-.37,4.86-.75,7.26-1.25,2.08-.44,4.13-1,6.19-1.59,2.43-.68,4.88-1.33,7.26-2.15,4.13-1.42,8.27-2.8,12.28-4.5a128.34,128.34,0,0,0,17-8.67,161.51,161.51,0,0,0,21.08-15.27,146.76,146.76,0,0,0,21.4-23A140.94,140.94,0,0,0,326.21,439a135.53,135.53,0,0,0,10.24-24.13q1.62-5.24,2.92-10.55c1-4.08,1.79-8.21,2.68-12.31a3.81,3.81,0,0,0,.07-.47c.26-5.18,1.39-10.28,1.24-15.5-.16-6.08,0-12.17-.28-18.23-.2-3.8-1-7.56-1.59-11.33-.34-2.2-.69-4.4-1.17-6.57a103,103,0,0,0-2.46-10.16c-2.09-6.32-4.21-12.65-6.81-18.77a131.15,131.15,0,0,0-10.21-18.91,149.08,149.08,0,0,0-13.94-18.53A138,138,0,0,0,292,259.08a139.3,139.3,0,0,0-19-13.63c-5.36-3.16-11.07-5.71-16.66-8.48s-11.86-4.67-17.92-6.6c-3.33-1.06-6.82-1.6-10.23-2.43-4.49-1.09-9.09-1.44-13.64-2.14-7.41-1.15-14.81-.85-22.22-.74a126.26,126.26,0,0,0-14.52,1.16c-4.24.57-8.42,1.58-12.61,2.52-3.17.71-6.32,1.59-9.46,2.45-1.6.44-3.15,1-5.08,1.64-.09-1.06-.22-2-.22-2.85q0-22.92,0-45.84,0-5.52,0-11c0-.87.07-1.73.12-2.87C207,158,259.72,166.46,309,197q37.2-48.62,74.41-97.27l-.29-.48a8.1,8.1,0,0,0-1.72.16c-5.13,1.56-10.26,3.13-15.36,4.77-6.86,2.2-13.68,4.49-20.54,6.68-3.76,1.19-7.56,2.24-11.34,3.38-1.18.35-2.34.77-3.85,1.27-6-19.16-12-38-18-57.1,2.26-.8,4.38-1.58,6.52-2.29,2.84-.93,5.7-1.82,8.55-2.71,2.43-.75,4.87-1.44,7.28-2.21,4-1.28,8-2.63,12-3.91,2.41-.76,4.85-1.43,7.26-2.2,3.82-1.21,7.62-2.49,11.45-3.69,3.62-1.14,7.28-2.19,10.9-3.33,3.79-1.19,7.55-2.45,11.33-3.64,2.71-.85,5.45-1.6,8.16-2.44,3.32-1,6.63-2.06,9.93-3.11q5.55-1.77,11.08-3.57c4.14-1.35,8.26-2.76,12.41-4.06,3.62-1.13,7.28-2.08,10.9-3.21s7.48-2.53,11.24-3.72,7.46-2.21,11.17-3.38c2.56-.8,5.06-1.74,7.61-2.56,2.4-.78,4.83-1.47,7.24-2.22,3.92-1.23,7.83-2.49,11.75-3.72,1.59-.5,3.2-1,4.81-1.41.61-.18,1.32-.23,1.3-1.12Z" transform="translate(-0.85 0.6)"/>
    <path class="cls-2" d="M62.41,223.55c0,.78.1,1.56.11,2.34q0,61.67,0,123.33c0,1.82-.49,3.63-.55,5.46-.2,6.71-.74,13.44-.39,20.12.63,11.65,1,23.29,1,35-.09,34,0,68,0,102,0,1-.09,2-.17,3.56A204.12,204.12,0,0,1,1.65,380.43c-1.55-30.38,3-59.79,14.42-88.06a206.77,206.77,0,0,1,45.82-69.08Z" transform="translate(-0.85 0.6)"/>
  </g>
  <text class="cls-3" transform="translate(76.13 384.92)">20%</text>
  <text class="cls-4" transform="translate(76.13 427.49)">Gender pay gap in tech</text>
</svg>
