<?xml version="1.0" encoding="utf-8"?>
<!-- Generator: Adobe Illustrator 24.2.1, SVG Export Plug-In . SVG Version: 6.00 Build 0)  -->
<svg version="1.1" id="Layer_1" xmlns="http://www.w3.org/2000/svg" xmlns:xlink="http://www.w3.org/1999/xlink" x="0px" y="0px"
	 viewBox="0 0 500 800" style="enable-background:new 0 0 500 800;" xml:space="preserve">
<style type="text/css">
	.st0{fill:url(#SVGID_1_);}
	.st1{fill:url(#SVGID_2_);}
	.st2{fill:none;}
	.st3{fill:#FFFFF8;}
	.st4{font-family:'HelveticaNeue-Bold';}
	.st5{font-size:140px;}
	.st6{font-size:21px;}
</style>
<linearGradient id="SVGID_1_" gradientUnits="userSpaceOnUse" x1="-17.9808" y1="450.7845" x2="81.0236" y2="279.3038">
	<stop  offset="0" style="stop-color:#C5B687"/>
	<stop  offset="1" style="stop-color:#7098C1"/>
</linearGradient>
<path class="st0" d="M0.04,355.75c0.5-0.18,0.3-0.65,0.31-1c0.78-17.21,3.46-34.07,8.08-50.56c5.2-18.61,12.68-36.07,22.39-52.4
	c0.22-0.37,0.25-1.12,0.97-0.92c0,76.12,0,152.24,0,228.36c-0.71,0.29-0.7-0.49-0.88-0.8c-13.01-21.88-21.95-45.57-26.82-71.09
	c-2.01-10.56-3.22-21.22-3.73-31.99c-0.02-0.35,0.19-0.82-0.31-1c0-1.69,0-3.38,0-5.07c0.57-2.01,0.09-4.06,0.19-6.08
	c0.05-1,0.42-2.08-0.19-3.05C0.04,358.68,0.04,357.22,0.04,355.75z"/>
<linearGradient id="SVGID_2_" gradientUnits="userSpaceOnUse" x1="43.8779" y1="684.7302" x2="449.3687" y2="-17.6005">
	<stop  offset="0" style="stop-color:#C5B687"/>
	<stop  offset="1" style="stop-color:#7098C1"/>
</linearGradient>
<path class="st1" d="M499.97,70.87c-0.62,0.1-0.64,0.53-0.65,1.02c-0.32,14.54-0.65,29.08-0.99,43.62
	c-0.38,16.44-0.77,32.88-1.15,49.32c-0.19,8.41-0.4,16.81-0.53,25.22c-0.02,1.2-0.35,1.49-1.57,1.46
	c-18.8-0.46-37.61-0.88-56.41-1.26c-1.14-0.02-1.3-0.37-1.27-1.34c0.39-16.44,0.75-32.88,1.11-49.33c0.01-0.63,0-1.26,0-1.93
	c-0.67,0.08-0.84,0.65-1.14,1.03c-22.24,28.16-44.47,56.32-66.7,84.49c-3.11,3.94-6.2,7.89-9.36,11.79c-0.75,0.92-0.85,1.5,0,2.49
	c19.57,22.58,33.26,48.14,40.98,76.68c5.46,20.21,7.48,40.76,6.11,61.6c-2.78,42.11-17.86,79.64-45.45,112.21
	c-28.66,33.83-65.14,55.88-109.01,66.37c-5.24,1.25-10.52,2.31-15.86,3.02c-1.64,0.22-1.82,0.83-1.82,2.2
	c0.04,16.93,0.03,33.85,0.03,50.78c0,1.9,0.09,3.81-0.03,5.71c-0.09,1.34,0.38,1.65,1.72,1.64c17.01-0.04,34.03-0.03,51.04-0.03
	c2.29,0,2.29,0,2.29,2.29c0,17.77-0.02,35.55,0.03,53.32c0,1.4-0.29,1.84-1.84,1.84c-17.12-0.06-34.25-0.02-51.37-0.07
	c-1.49,0-1.88,0.36-1.88,1.82c0.05,27.61,0.04,55.22,0.03,82.83c0,0.64-0.06,1.27-0.09,1.91c-19.74,0-39.49,0-59.23,0
	c0.04-0.85,0.12-1.71,0.12-2.56c0.01-27.35-0.01-54.7,0.05-82.05c0-1.67-0.49-1.96-2.08-1.95c-17.07,0.06-34.14,0.02-51.21,0.07
	c-1.44,0-1.81-0.34-1.81-1.75c0.05-17.99,0.05-35.97,0-53.96c0-1.39,0.34-1.77,1.8-1.77c17.18,0.05,34.36,0.02,51.54,0.06
	c1.31,0,1.75-0.25,1.75-1.62c-0.05-18.94-0.04-37.88,0-56.82c0-1.23-0.28-1.65-1.63-1.86c-28.97-4.43-55.72-14.44-80.2-30.12
	c-7.87-5.04-15.34-10.59-22.41-16.66c-0.66-0.57-0.98-1.1-0.98-1.99c0.03-32.32,0.02-64.65,0.02-96.97c0-0.35,0-0.7,0-1.48
	c13.04,33.41,35.1,58.84,67.2,75.6c32.14,16.78,66.27,20.88,101.64,12.52c64.34-15.22,109.31-71.49,108.88-135.23
	c-0.45-65.71-47.56-120.27-110.3-134.29c-35.24-7.88-69.13-3.62-100.94,13.24c-31.71,16.8-53.57,42.07-66.47,75.25
	c0-0.96,0-1.46,0-1.97c0-32.06,0-64.12-0.02-96.17c0-1.02,0.24-1.72,1.08-2.43c27.93-23.72,60.11-38.99,96.56-45.7
	c17.44-3.21,35.05-4.05,52.76-2.71c33.2,2.5,63.89,12.38,92.08,29.55c0.9,0.55,1.35,0.56,2.04-0.32
	c19.32-24.55,38.66-49.07,58.01-73.59c4.76-6.04,9.54-12.06,14.31-18.09c0.22-0.28,0.57-0.49,0.52-1.09
	c-3.86,1.18-7.68,2.34-11.49,3.51c-13.19,4.03-26.38,8.05-39.55,12.12c-1.13,0.35-1.56,0.29-1.97-0.96
	c-5.59-17.37-11.25-34.73-16.94-52.07c-0.39-1.18-0.02-1.47,1.05-1.8c18.12-5.5,36.22-11.02,54.32-16.56
	c30.98-9.48,61.95-18.98,92.93-28.46c9.83-3.01,19.67-5.99,29.5-8.98c0.2-0.06,0.38-0.19,0.56-0.28c2.29,0,2.29,0,2.29,2.22
	C499.97,32.56,499.97,51.72,499.97,70.87z"/>
<rect x="101.8" y="269.49" class="st2" width="237.97" height="143.04"/>
<text transform="matrix(1 0 0 1 101.7999 369.4502)" class="st3 st4 st5">6%</text>
<rect x="89.33" y="412.53" class="st2" width="238.97" height="85.72"/>
<text transform="matrix(1 0 0 1 127.3349 427.5261)"><tspan x="0" y="0" class="st3 st4 st6">Gender Pay Gap </tspan><tspan x="46.09" y="25.2" class="st3 st4 st6">in Data </tspan><tspan x="17.9" y="50.4" class="st3 st4 st6">Occupations</tspan></text>
</svg>
