<?xml version="1.0" encoding="utf-8"?>
<!-- Generator: Adobe Illustrator 24.2.1, SVG Export Plug-In . SVG Version: 6.00 Build 0)  -->
<svg version="1.1" id="Layer_1" xmlns="http://www.w3.org/2000/svg" xmlns:xlink="http://www.w3.org/1999/xlink" x="0px" y="0px"
	 viewBox="0 0 814 408" style="enable-background:new 0 0 814 408;" xml:space="preserve">
<style type="text/css">
	.st0{fill:#D7817C;}
	.st1{fill:#94B9D4;}
	.st2{fill:#C6E3EA;}
	.st3{fill:#4C6E8C;}
	.st4{fill:#E2DBD7;}
	.st5{fill:#3B546C;}
	.st6{fill:#EAB0A9;}
	.st7{fill:#7D8687;}
	.st8{fill:#D4CDCB;}
	.st9{fill:#EEE7E5;}
	.st10{fill:#8A4A47;}
	.st11{fill:#915355;}
	.st12{fill:#7C6068;}
	.st13{fill:#A55F60;}
	.st14{fill:#7A5757;}
	.st15{fill:#FEFEFE;}
	.st16{fill:none;}
	.st17{stroke:#FFFFFF;stroke-miterlimit:10;}
	.st18{font-family:'AvenirNext-Regular';}
	.st19{font-size:85px;}
</style>
<path class="st0" d="M614.9,29.8c0.4,0.1,0.8,0.1,1.2,0.2c0.2,0.8-0.6,2.1,0.6,2.4c1,0.2,1.4-0.9,1.9-1.7c0.3-0.1,0.5-0.2,0.8-0.3
	c0.5,0,1.1,0,1.6,0.1c0,0,0.1,0.1,0.1,0.1c0.1,1,0.8,2.2,1.5,1.5c1.4-1.5,1,0.1,1.1,0.5c0.7,2-0.9,4,0.1,6.1
	c0.2,0.5-0.4,1.6,0.5,1.5c0.9,0,0.5-1,0.5-1.6c0.1-0.9,0-1.8,0.1-2.7c0.1-1.7,0.5-3.3,1.7-5c1.2,2.6-0.2,4.7-0.3,6.8
	c0,0.3-0.1,0.7-0.1,1c-0.9,0.8-0.5,1.4,0.4,1.9c0.5,0.6,1,1.5,1.9,0.4c0.3-0.3,0.8-0.6,1.3-0.7c2.5-0.6,3.4-1.8,1.7-4.1
	c0.8-0.4,1.4,1.3,2,0.2c0.4-0.8-0.5-1-1-1.3c-1.5-1.1-0.7-2.8-0.6-4.1c0.1-2,1.8-3.7,0.9-5.9c-0.1-0.4,0.2-1.3,1-1.2
	c1.9,0.2,3.8,0.5,5.5,1.5c0.5,0.3,0.2,1.2-0.1,1.3c-2.2,0.9-1.3,2.7-0.9,4c0.4,1.3-0.5,2.4-0.1,3.6c-0.1,0.1-0.2,0.1-0.2,0.2
	c0,0,0.1,0,0.2,0c0,0,0-0.1,0.1-0.2c3,1.7,4.4,1,5.6-2.3c0.5-1.4,1.8-2.5,1.6-4.3c0-0.2,0.4-0.5,0.6-0.7c1,1.6,3.9-0.3,4.4,2.2
	c0.1,0.3,0.4,0.6,0.7,0.4c3.1-1.6,5.4,1.2,8.1,1.6c-1.6,2.7-1.2,6.1-2.8,8.9c-0.3,0.5-0.5,1.5,0.1,1.8c0.8,0.3,1.8,0.1,2.6-0.1
	c0.6-0.2,0.6-1,0.4-1.5c-0.6-1.7,0.6-3.4,0.1-5.1c3,0.8,2.2-1.4,2.5-2.7c20.4,8,38.7,19.3,55.1,33.7c18.4,16.2,33,35.4,44,57.3
	c1.1,2.2,2.4,4.4,3,6.8c-2.4-1.1-4.6-2.6-6.2-4.8c-2.2-3.2-4.7-5.5-8.8-6.6c-6.9-1.8-12.8-1.4-17.6,4.3c-1.6,1.9-3.6,2.1-5.8,1.5
	c-2.9-0.7-5.8-1.3-8.8-1.6c-9.2-1-16.8,1.9-23,8.7c-2.7,2.9-3,6-0.8,9.3c1.5,2.3,1.2,4.4-0.5,6.4c-1.2,1.5-2.6,2.8-4.6,3.2
	c-1.7,0.4-3.4,0.7-5,1.5c-4.5,2.1-7.7,5.8-10.6,9.8c-2.5,3.4-2.2,6.8-0.9,10.4c0.4,1.1,2,1.9,1.3,3c-0.6,1-2.3,0.8-3.4,1.2
	c-0.2,0.1-0.5,0.1-0.7,0.1c-2.2-0.2-3.2,0.7-2.6,3c-1,1.1-1.9,2.2-3,3.3c-2.1,2.1-2.7,4.5-2.2,7.3c1,5.1-0.1,9.2-4.8,12.2
	c-4.2,2.7-4.6,4.7-2.7,9.2c1.3,3.1,1.1,5.9-1,8.6c-2.3,3-3.9,6.3-4.5,10.1c-1,5.6,2.3,10.2,7.8,10.8c0.3,0.6,1.1,1.1,1,1.9
	c-3,5.7-5.1,11.7-6.4,18c-0.9,4.5-0.7,9,1.5,13.3c2,3.8,2,7.7-1.6,10.8c-0.4,0.4-0.9,0.8-1.3,1.1c-3,2.9-6.7,5.3-9,8.9
	c-2.3,3.6-2.1,4.6,1.4,7.1c0.5,0.4,1,0.8,1.6,1.2c1.8,1.3,1.6,2.8,0.3,4.3c-0.7,0.8-1.3,1.5-2.2,2.1c-3.2,2.3-3.3,6-0.2,8.4
	c0.6,0.5,1.4,0.6,1.7,1.5c-1,0.8-2.2,1.2-3,2.2c-1.4,1.8-1.1,6.2,0.8,6.4c4.4,0.5,4.2,3.3,4.6,6.6c1.1,10,6.1,13.9,16.8,12.6
	c4.4-0.5,8.7-2.1,13-3.2c2.3-0.6,3.7,0.2,4.7,2.4c3.1,7.1,5,14.6,7.8,21.8c-6.4,4.3-13.4,7.4-20.4,10.4c-8.9,3.8-18,6.9-27.4,9.3
	c-0.6,0.2-1.2,0.5-2.2,0c2.9-4.8,3.2-9.9,1.6-15.2c-1.3-4.1-3.2-8-5.2-11.9c-3.3-6.4-7.3-12.3-10.8-18.6c-1.6-2.9-2.5-6-2.5-9.3
	c0-1.8-0.4-3.5-1.1-5.1c-1-2.4-2.9-3.6-5.5-3.6c-1.7,0-3.3,0-5,0.5c-8.5,2.2-17.3,3.2-25.7,6c-0.3,0-0.6,0-0.9,0
	c-1.9-3.2-4.6-5.9-6.7-8.9c-4.9-7-9.9-13.9-15.7-20.2c-7-7.7-11.2-16.6-11.1-27.3c0.1-7.1,1.1-14.1,3.4-20.8c1.1-3.4,1.5-7.1,4-9.9
	c4.5-5.1,10.2-6,16.6-4.7c5.1,1,10.1,2.6,15.5,2.4c6.3-0.3,11.3-4.5,12-10.7c0.5-4.4,2.6-7.5,6.4-9.8c3.1-1.9,3.4-4.4,1.2-7.4
	c-0.5-0.7-1.2-1.3-1.8-2c2.1-0.5,4.1-0.9,5.3-2.7c0.9-1.3,1.4-2.7,0-4c-3-3-3.1-6.4,0-9.4c2.1-2,4.4-3.9,6.4-5.9
	c2.5-2.6,2.6-5.7,0.3-8.5c-0.6-0.7-1.2-1.3-1.9-2c-4.2-4-8-8.2-10.8-13.3c-4-7.4-5.5-15.4-5.2-23.8c0.3-9.5-1-18.7-5.1-27.4
	c-0.4-0.8-0.6-1.6,0.1-2.3c2.3-2.3,1.5-4.6,0.1-7c-3.7-6.6-9.7-10.9-15.4-15.4c-7.4-5.9-15.5-10.8-23.8-15.5
	c0.5-0.8,0.1-2.4,1.8-2.4c1.5,0,2.8,0.2,3.4,1.8c0.4,0.9,0.8,0.9,1.4,0.1c0.5,0,1,0,1.6,0.1c1,0.8,2.4,0.5,3.5,1
	c0.2,0.1,0.5,0.2,0.7,0.2c0.8,1.5,2.8,1.9,3.4,1.2c0.8-0.8,2.7-2.9-0.4-4c-0.5-0.2-0.5-0.8-0.2-1.3c0.9-1.9-0.5-2.7-1.8-3.4
	c-1.5-0.8-3-1.5-4.3,0.4c-0.7,0-1.4,0-2,0c-1.3-1.5-3.5-1.4-5-2.6c0-0.5,0-1,0-1.5c1.6-0.9,3.3-1.8,4.9-2.7c0.2,0,0.5,0.1,0.7,0.1
	c1.3,1.4,4.7,1,5-0.7c0.1-0.6,0.4-2.1-1.3-1.9c-0.9,0.1-2-0.3-2.2-1.2c-0.2-1.3-1.3-2.1-1.8-3.2c-0.8-1.7-2.2-3.5,0.6-5
	c0.8-0.4,0.6-1.3-0.5-1.5l0,0c-0.5-2.6,2-3.5,3.3-4.7c1.2-1.1,0.4,1.6,1.2,2.1c0.1,0.1,0.3,0.2,0.4,0.2c2,0.1,1.2,1.3,0.8,2.2
	c-0.7,1.6,0.3,4.6,1.8,5.2c0.4,0.2,1,0.6,1.1-0.3c0.1-1.5,3.2-2.4,0.8-4.5c-0.4-0.3,0.3-0.4,0.6-0.5c0.4-0.1,1-0.4,0.6-0.8
	c-1.3-1.1-1-3.2-2.7-4.2c-0.5-0.3-3.5-1.7-1.2-3.2c1.5-0.9,0.8-1.8,1-2.7c0.4,0,0.8,0,1.1,0.1c0.4,0.7,1,1,1.8,0.6
	c0.2,0.1,0.3,0.2,0.5,0.2c-0.2,1.8,0.7,2.8,2.5,2.9c0,0,0.1,0,0.1,0c-0.1,0.6,0.1,1.1,0.8,1.2c0.2,0.1,0.3,0.2,0.5,0.4
	c0.5,1.6-2,3.9,1.1,5c0.4,0.2,0.6,0.9,1.2,0.6c0.4-0.2,0.6-0.8,0.5-1.3c-0.2-1.7,0.2-3.2,1.5-4.4c1.2-1.1,0.4-2-0.4-2.9
	c0.2-0.1,0.5-0.1,0.7-0.2c1.3-1.1,3.6,1.7,4.4-1.2c0.4,0.1,0.8,0.3,1.1,0.4c0.6,0.2,0.7,1.2,1.5,1l0.1,0c0.1,0.1,0.3,0.2,0.4,0.3
	c0.2,0.2,0.3,0.5,0.5,0.7c0.2,1-1.6,2.3,0.5,3h0c0.5,1.8,1,3.5,1.6,5.5c1.6-2,1.5-4.3,2.4-6.2c0.9-1.9,2.3-4.2,0.7-6.8
	c-0.2-0.2-2-2.7,0.2-3.4c1.5-0.5,3.4-1.6,5,0c0,0.1,0.1,0.3,0.2,0.4c0,1.1-1.2,2.3,0.4,3.3c1-2.2,4.1-3.2,3.5-6.2l0,0
	c2.6-0.9,1.7,1.6,2.2,2.5c1.1,0.3,0.7-1.9,2-1C611.7,33.1,613.8,32.4,614.9,29.8z M612.7,48.8c0.2-1.6-1.2-1.1-2-1.5
	c-0.6-0.2-1.7,0-1.5,0.7c0.8,2.9,0.5,6.1,2.6,8.5c0.4,0.5,0.6,1.6,1.3,1c0.8-0.6,1.4-1.9,0.8-2.8C612.8,52.9,612.6,50.9,612.7,48.8z
	"/>
<path class="st1" d="M53.2,174.4c0-0.5-0.1-1-0.2-1.4c0-2.1-0.5-4.2-1.5-6.1c-0.8-1.6-2-2.7-4-1.9c-0.1-2.5-1.9-4.5-2-7
	c1.1,0,2.4-0.4,1.7-1.6c-1-1.8-1.2-4.1-3.1-5.5c0-0.3-0.1-0.6-0.1-0.9c0.8-1.1,0.9-2.2,1-3.5c0.1-2.6-2-4.5-2-7
	c3-8.3,6.8-16.2,11.1-23.9c9-16.3,20.3-31,33.7-44c12.7-12.2,26.9-22.5,42.5-30.8c14.4-7.6,29.5-13.3,45.4-16.9
	c2.7-0.6,5.4-1.5,8.3-1.4c0,0.1,0.1,0.1,0.1,0.2S184,23,184,23c-2.1-0.3-1.4,1.8-1.9,2.6c-1.2,1.8,0.5,4.2,2.7,4.5
	c0.4,0,0.8,0,1.1,0.4c0.3,0.4-0.8,1.5,0.6,1.3c0.9-0.1,1.1-0.8,1.1-1.7l0.1-0.1c2-0.3,2.4,1.3,3,2.6c0.7,1.7,1.7,2,2.9,0.7
	c0.9-1.1,1.6-0.8,2,0.2c0.5,1.2,0.9,0.8,1.6,0.3c0.6-0.3,1.1-1,2.1-0.8c-1,1.9,0.8,3.1,0.9,4.8c0.1,1,1.2,1,2,0.2
	c0.6,0.1,1.2-0.1,1.6,0.5c-0.6,1.1-2.2,0-3.2,1.5c1.8-0.4,3,0.8,4.3-0.4c0.3,1.1,0,2.8,0.3,2.7c2-1.1,2.6,2,4.5,0.8
	c-0.4,1.3-1.7,0.9-2.1,1.7c0.6,0.7,1.1,1.3,1.7,2c-0.7,0.6-1.8,0.4-2.4,1.2c1.9,0.6,1.9,0.6,4,3.1c0.2,0.2,0.7,0.3,1.1,0.3
	c1,0.1,2,0.1,3,0.1c0.2,0.2,0.4,0.3,0.6,0.5c0,0.2,0,0.3,0.1,0.5c-0.3,0-0.6,0-1,0c-1.1,0-1.5,1.5-1.3,1.5c2,0.5,1.1,2.4,1.7,3.5
	c0.2,0.3,1.4,0.2,0.8,0.9c-1.1,1.2-1.3,2.7,0.1,4.3c-2.3,0-2.9,1.6-3.3,3.4c-0.2,0.1-0.3,0.3-0.5,0.4c-0.3,0-0.7-0.1-1,0
	c-12.3,2.4-23.1,7.9-32.6,16c-7.8,6.6-12.2,15.6-16.2,24.9c-5,11.6-4.6,23.1,0.5,34.6c2.6,5.9,5.2,11.7,7.4,17.8
	c3.4,9.4,4.9,19.1,2.6,29.1c-2.4,10.3-5.4,20.4-8.4,30.5c-1.9,6.4-4.9,12.1-8.7,17.6c-1.1,1.6-2.4,3-3.3,4.7
	c-3.2,5.9-6.3,11.9-9.5,17.9c-5.1,9.3-10.1,18.5-13.4,28.6c-6.7,20.1-7,40.7-5.5,61.5c0.4,6.5,0.8,12.9,1.2,19.4
	c-4.4-2-8.3-4.8-12.3-7.4c-7.6-5.1-14.7-10.7-21.4-17c-0.7-0.6-1.2-1.3-1.8-2c1.9-2.3,3.2-4.9,2.9-8c-0.2-2.7,0.9-4.4,3.3-5.5
	c2.4-1.2,2.5-4.1,0.3-5.6c-1.1-0.8-3.2-1-2.8-2.6c0.5-1.6,2.5-0.8,3.8-0.8c3.4-0.2,4.6-2.2,2.8-5.2c-0.7-1.2-1.2-2.4-1.7-3.6
	c-0.4-1-0.2-1.8,1.1-2c0.7-0.1,1.3-0.4,1.9-0.6c2.9-1.1,3.9-3.4,2.2-6.1c-1.1-1.7-2.3-3.2-3.7-4.7c-3.8-4.1-5.7-8.7-4.2-14.3
	c0.8-3,1.3-6.1,2-9.2c0.1,0,0.1,0,0.2-0.1c-0.1-0.1-0.1-0.2-0.2-0.3c0.6-2.5,0.6-5,0.6-7.5c1.4-0.1,1.1,1.9,2.4,1.9
	c0.1,0,0.1,0.1,0.1,0.1c-0.1,0-0.1-0.1-0.2-0.1c-1.6-3.5-1.3-7,0.2-10.6c0.8-2,1.4-4.1,1.3-6.3c0-0.6-0.2-1.5,0.7-1.6
	c1.7-0.2,0.9-1.3,0.7-2c-1-2.8-2.1-5.6-4.3-7.7c-0.4-0.4-0.7-0.8-0.4-1.3c0.4-0.6,0.8,0,1.2,0c1.1,0.2,0.5-0.6,0.5-1.1
	c-0.9-2.6-1.1-5.2-0.8-7.9c0.3,0,0.6,0,0.8,0c2.2,3.7,1.8,7.9,2.7,11.9c0.2,1.3,0.1,2.6,0.9,4.3c0.6-1.7,0.4-3,0.3-4.2
	c0-1-0.1-1.9-0.1-2.9c0.1-1,0.6-2.1-0.4-3c-0.1-0.7-0.2-1.4-0.3-2c0.4-1.1,0-2.1-0.7-3c-0.1-2.3-2.1-4.1-2-6.5
	c0.1-0.6,0.1-1.1,0.2-2c2.7,3.6,3,7.8,4.2,11.9c0.9-1,0.7-1.9,0.5-2.6c-1.1-4.1-2-8.4-4.7-11.9c-1.2-1.5-1.4-2.5,0.6-3.7
	c1.8-1,2.9-2.7,2.9-5.8c-2.2,3.1-4.2,5.5-7.7,5.1l0,0c0.1-0.5,0.2-0.9,0.8-1.1c2.2-0.9,3.8-2.6,5.2-4.4c0-0.1,0.1-0.1,0.1-0.2
	c0,0.1-0.1,0.1-0.1,0.2c-1.1,0.2-2.2,0.4-3.4,0.6c-2.3,0.2-2.7-0.2-2.1-2.6c0.1,0,0.1,0,0.2-0.1c0,0,0-0.1,0-0.1
	c-0.1,0.1-0.1,0.1-0.2,0.2c-1.6-0.5-4.3-4.8-4-6.4c0.1-0.4,0.1-0.9,0.6-0.9c0.5,0,0.8,0.4,0.8,0.8c0.2,1.3,0.4,2.5,1.4,3.6
	c-0.8-6.5-3.1-12.3-14.5-12.8c-0.1-1,1.3-1.5,0.7-2.7c-1.1,0.2-1.6,1.2-2.3,1.9c-1.5,1.4-2.7,1.8-4.6,0.1c-2.9-2.7-6.5-4.5-10.7-4.7
	c-3.4,0.3-6-2.2-9.2-2.4c-0.5-2.9-0.6-5.9-2.1-8.5C53.6,175.5,53.4,175,53.2,174.4z M213,58.6c-0.2-1.1-1.3-1-2.1-1.3
	c-0.5-0.2-0.9,0.2-0.8,0.6c0.3,1,1.4,1.1,2.1,1.5C212.8,59.5,213,59.1,213,58.6z"/>
<path class="st2" d="M582,330.9c0.3,0,0.6,0,0.9,0c1.3,3,3.8,5.2,5.9,7.6c6.6,7.3,13.2,14.4,19.3,22.1c5,6.3,8.8,13.3,8.3,21.8
	c-0.1,2.6-0.2,5.2,0,7.7c0.1,1.9-0.7,2.5-2.3,2.7c-1.8,0.2-3.6,0.5-5.4,0.6c-3.9,0.2-7.8,0.5-11.7,0.5c-40.1,0-80.3,0-120.4,0
	c-0.4,0-0.8,0-1.2-0.1c1.8-5.9,3.6-11.8,5.4-17.6c2.7-8.8,5.7-17.5,7.7-26.6c2.6-12,4.5-24.1,5.2-36.4c0.7-11.9,0.1-23.6-1.5-35.3
	c-1.7-12.5-5.2-24.7-5.9-37.4c-0.6-11.2-0.7-22.5,0.4-33.6c1.5-14.9,4.5-29.7,5.9-44.6c1.1-11.1,0.1-21.8-4-32
	c-6.2-15.6-14.7-30-25.1-43.2c-4-5.1-8.9-9.4-15.1-11.9c-8.3-3.3-17-5.2-25.9-5.7c-0.1-5,2.4-8.9,5.7-12.3c1.5-1.6,2.3-3.3,3.1-5.3
	c3.7-9.7,10.5-16.5,19.5-21.3c6.2-3.3,12.7-6.2,19.7-7.4c9.4-1.5,18.6-2.5,27.9,0.7c10.3,3.5,15.5,10.7,16.6,21.3
	c0.7,6.1-0.6,12-1.2,18c-0.2,1.6,0.2,2,1.6,1.8c5.7-1,11.4-0.3,17.1,0.1c3.7,0.2,7,1.8,10.4,3.2c3.2,1.3,6.3,2.8,9.5,4.3
	c0,0.3,0,0.6,0,0.9c-1.7,1.5-2.4,3.8-4.5,5c-0.9,0.5-1.1,4.2-0.6,4c1.9-0.6,2,1.6,3.3,1.7c-0.7,0.7-2.1,0.3-2.2,1.6
	c-0.1,1.3,1.1,1.4,1.9,1.7c1.1,0.4,0.5,1.2,0.7,1.8c0.2,0.6-0.2,0.7-0.6,0.8c-2.8,0.8-3.9,2.7-3.8,5.7c1.4-0.7,1.4-0.7,1.8,0.6
	c0.4,1.2,1.6,1.2,1.8,0.5c0.8-1.9,2.7-1.2,3.9-2.2c0.9-0.8,1.9,0.1,2.5,0.8c0.7,0.7,0.3,1.3-0.7,1.8c-0.9,0.5-1.6,1.6-2.4,2.6
	c1.8,0,3.5,0.6,2.8,2.5c-0.7,1.9-2.9,3-4.7,2.8c-1.3-0.1-2.5-2.3-3.9,0.1c-4.4-0.9-2.4,1-1.1,2.6c0.4,0.4,0.3,0.9,0.4,1.3
	c0.2,1.2,1.6,1.9,2.2,1.6c1.9-1.2,3.5,0.3,5.1,0c-0.7,4.2-3.4,6.5-8.3,7.6c2,0.7,3.2,1.2,1.2,2.1c-1.2,0.5-1.2,1.3-0.1,2
	c1.4,0.8,1.1,1.7,0.3,2.9c-3.5,5.4-6.5,11.1-8.7,17.1c-5.1,13.6-8,27.2-1.4,41.2c1.8,3.8,0.9,7.3-1.8,10.4
	c-5.6,6.6-11.2,13.2-16.7,19.9c-3.9,4.6-7.9,9-10,14.8c-2,5.6-0.8,10.6,3.9,14.3c1.4,1.2,2.9,2.2,4.4,3.3c1.3,1,2.6,2.1,3.3,3.7
	c1.3,2.8,0.6,4.6-2.2,5.7c-1.4,0.6-2.4,1.7-3.2,3.1c-3.1,5.5-1.2,12.1,4.4,15.3c1.5,0.9,1.8,1.4,0.5,2.7c-1.5,1.5-2.7,3.2-3.4,5.2
	c-2,5.1,1.3,11.6,6.2,12.5c6,1.1,9.9,5.1,10.8,11.3c0.5,3.1,0.5,6.3,1.2,9.4c1.9,9.1,8.4,13.9,16.5,16.8
	C561.6,335.4,571.8,333.8,582,330.9z"/>
<path class="st3" d="M212,66.5c0.2-0.1,0.3-0.3,0.5-0.4c11.3-1.5,22.4,0.5,33.4,2.8c11.9,2.5,20.1,9.7,26.8,19.3
	c8.8,12.4,12.3,26.6,13.9,41.4c0.2,1.5-0.2,3-0.9,4.4c-2.4,4.4-1.4,8.2,1.2,12.1c3.2,4.9,6.3,9.8,8.5,15.2c0.4,1,0.7,2.1,0.9,3.1
	c0.5,3-0.5,4.6-3.3,5.6c-0.5,0.2-0.9,0.3-1.4,0.5c-1.2,0.3-2.6,0.4-3.4,1.4c-0.9,1.2,0.8,1.9,1,3.1c0.4,2.1,0.9,4-1,5.9
	c-1.1,1.1-1.3,3.2-3,4c-0.5,0.2-0.2,0.7,0.1,1c0.8,0.9,0.8,1.9,0.1,2.8c-0.7,0.9-0.4,1.5,0.3,2.1c0.2,0.2,0.6,0.7,0.6,0.7
	c-2.8,3.2,1.7,2.5,2.1,4c0,0.1,0.1,0.1,0.2,0.2c0,0.4,0.2,0.6,0.6,0.7c0.5,0.1,1,0.1,0.9,0.9c0,0.2,0,0.5-0.1,0.8
	c-3.9-0.6-7.8-0.6-11.7-0.5c-3.1,0-6.1,0.6-8.4,2.9c-0.5,0.5-1.2,0.5-1.8,0.6c-4.3,0.8-8.9,1.4-12.6,3.7c-5.2,3.2-10.6,5.1-16.8,5.4
	c-5.3,0.3-7.5,4.4-5.3,9.2c0.7,1.6,0.8,3.1-0.1,4.5c-2.6,4.4-4.6,8.9-5.6,13.9c-0.8,3.8-1.4,7.4-0.8,11.2c0.4,2.7,1.5,5.6-0.3,8.2
	c-1.5,2.2-2.9,4.4-4.3,6.6c-1.5,2.5-4.1,4.1-5,7.1c-1,3-0.1,5.2,2.9,6.1c3.1,1,3.4,1.7,1.6,4.6c-1.6,2.6-1.1,4.3,1.6,5.6
	c2.5,1.2,2.6,1.6,0.9,3.9c-1.2,1.5-1.5,2.9-0.2,4.4c1.3,1.5,1.2,3.1,0.4,5.1c-0.8,2-1,4.1,0.9,6c2.5,2.5,5.7,3.2,9,3.4
	c4.6,0.4,9.3,0.5,13.9,1.1c2.8,0.4,5.1,1.8,6.8,4.5c1.5,2.4,2.2,5,3.3,7.5c2.2,4.9,4.5,9.7,5.6,15c1.2,5.8,1.3,11.5-0.1,17.2
	c-1.6,6.6-4.6,12.6-7.2,18.8c-2.9,6.6-5.7,13.2-8.5,19.8c-22.1,0-44.3,1.2-66.1-3.4c-1-0.2-1.9-0.5-2.9-0.7
	c-1.3-7.2-4.4-13.9-6.9-20.7c-3.3-9-6.5-18.1-10.2-27c-3.2-7.9-6.9-15.3-13.2-21.4c-3.5-3.3-5.1-7.6-3.8-12.7c0.8-3.1,1.6-6.1,3-9.1
	c2.4-5.2,5-10.3,8.1-15c3.3-5.1,5.6-10.2,5.6-16.5c0-5.8,3.6-11.4,9.7-12.4c2.6-0.4,5.2-0.8,7.9-1c5.5-0.6,11.1-0.5,16.5-1.7
	c6-1.3,12.2-2,18-4.3c6.4-2.5,9.6-7.1,9.2-12.8c-0.2-3.5-2-6.4-3.8-9.3c-1-1.6-1.2-3.4,0-4.8c1.2-1.4,2.4-2.9,3.5-4.5
	c3.5-4.8,3-9.1-1.6-12.8c-1-0.8-2.9-1.2-2.7-2.2c0.2-1.3,2.2-0.9,3.4-1.3c6.9-2.1,8.6-7.1,4.2-12.7c-3.2-4-2-7.4,2.9-8.7
	c4.2-1.1,8.2-2.9,11.8-5.2c4.4-2.9,6.2-6.6,3.3-11.9c-1.2-2.2-2.6-4.4-4-6.6c-4.9-7.5-9.8-14.9-14.6-22.4c-1.5-2.3-2.2-5-1.7-7.6
	c0.5-2.7,0.2-5.4,0.8-8.2c0.5-2.3,0.8-4.8,0.5-7.2c-1.3-9.1-4.1-17.7-8.6-25.7c-2.5-4.4-4.2-9.1-5.6-13.9c-0.2-0.5-0.2-1,0.4-1.2
	C212.5,68.6,211.9,67.4,212,66.5z"/>
<path class="st4" d="M456.5,393.9c-13.7,0-27.3,0-41,0c-3.7-5-3.8-10.7-1.7-16.1c2-5.2,4.6-10.4,7.8-15c3.1-4.3,4.5-9.1,5.1-13.9
	c0.6-4.6,1.4-9.2,1.4-14c0-7.2-2.6-13.1-6.7-18.8c-1.2-1.6-3.1-2.5-3.9-4.3c-1.4-3.2-4.6-4.7-7.1-6.6c-4.5-3.6-9.8-6-14.5-9.2
	c-4.7-3.2-9.2-6.6-13.8-10c-3.1-3.5-6.2-6.9-9.2-10.4c-3.5-4-6.6-8.2-8.7-13.2c-1.8-4-2.8-8.3-5-12.2c-2.5-4.5-4.5-9.2-5.6-14.2
	c0.5-0.4,0.5-0.7,0-1c0-0.5,0-1,0-1.5c0.8-0.7,0.4-1.7,0.5-2.6c0.2-2.1,3.3-6,5.3-6.4c4.7-0.9,8.7-2.9,11.8-6.7
	c2.3-2.8,3.8-5.7,4.5-9.2c0.6-3.3,1-6.8,1.9-9.9c1.7-5.9,1.1-11.9,0.9-17.8c-0.1-2.7-0.6-5.7-1.8-8.1c-1.6-3.3-3.4-6.6-5.8-9.4
	c-1-1.2-2.5-2-3.3-3.3c-2.4-3.7-5.3-7-7.9-10.5c-5.9-8-11.3-16.3-15.8-25.1c-1.2-2.3-2.4-4.6-3.7-6.8c-1.3-2.2-2.6-4.3-4-6.5
	c0-0.2,0-0.3,0-0.5c-0.1-0.2-0.3-0.3-0.5-0.5c-0.2-0.8-0.5-1.6-0.8-2.4c-2-5-0.9-8.6,3.9-10.8c5.2-2.4,10-5.5,15.1-8.2
	c6.8-3.5,13.8-6.3,20.9-9.2c8.6-3.5,17.5-6.1,26.6-7.9c6.9-1.4,13.9-2.4,20.9-1.9c-0.3,2.4-0.1,4.8,0,7.2c0.2,8.5,4.5,14.9,12.4,18
	c4.9,1.9,10,3.4,15.4,3.2c-0.5,1.8-0.9,3.7-1.5,5.5c-1.3,3.8-2.5,7.7-4.3,11.3c-3.8,7.8-7.2,15.8-11.3,23.4
	c-2.6,4.7-4.6,9.8-7.4,14.4c-3.8,6.2-7.8,12.4-12.4,18.1c-5,6.1-10.1,12.2-15.5,18c-3.4,3.7-6.9,7.2-10.3,10.8
	c-0.3,0.3-0.9,0.6-0.3,1.4c2.7-1.9,5.1-4.1,7.4-6.5c4.5-4.8,8.9-9.9,13.6-14.5c4.8-4.7,8.3-10.3,12.6-15.3c4.2-5,7.3-10.9,10.1-16.8
	c2.3-4.9,5.5-9.4,7.3-14.6c1.6-4.8,4.8-8.9,6.2-13.8c0.2-0.8,0.7-1.5,1.7-1.5c-0.4,3.2-0.9,6.4-1.3,9.6c-0.8,7.1-0.4,14.3,0,21.4
	c0.2,4.4,1.4,8.7,1.3,13.1c-1.3,0.2-2.4,1-3,2c-3.7,5.7-8.9,10.2-13.2,15.4c-6.2,7.4-13.3,14.1-19.9,21.2c-3.5,3.7-8,6.3-11.6,9.8
	c-1.1,1.1-2.2,2.2-3.7,2.9c-3.5,1.7-6.5,4.2-10,5.9c-3.1,1.6-5.9,3.3-9.3,4.4c-2.1,0.7-4.2,1.5-6.5,2.2c0.8,0.9,1.6,0.7,2.3,0.5
	c4.6-1.5,9.4-2.6,13.8-4.9c3.8-2.1,7.6-4.2,11.3-6.5c5.9-3.7,11.5-7.7,16.5-12.6c2.4-2.4,4.5-4.9,7-7.1c8.4-7.7,15.6-16.5,23.3-24.9
	c1.3-1.4,1.8-3.9,4.2-4.3c1.4,5.3,2.9,10.6,5,15.8c0.7,1.6,1.9,2.9,1.9,4.8c-0.9,0.4-1.7,1-2.3,1.8c-4.7,5.9-9.5,11.8-14.8,17.1
	c-8.5,8.3-18.5,14.4-29.3,19.4c-9.7,4.5-19.6,7.5-30.4,6.7c-5.5-0.4-10.9-1.6-16.1-3.5c-0.7-0.3-1.4-0.9-2-0.3
	c-0.6,0.6-0.3,1.4-0.2,2.1c1.4,7.5,6.3,12.8,11.3,18c4.6,4.8,10.5,7.9,16.8,10.3c7.2,2.8,14.6,4.6,22,6.2c4.9,1,9.6,2.2,14.3,3.8
	c5.8,1.9,10.9,4.9,15.8,8.6c7.2,5.5,13.1,11.8,16.7,20.2c3.4,8,5.1,16.2,5.3,24.8c0.2,9,1.8,17.9,1,26.9c-0.2,3.2,0,6.6-0.7,9.6
	c-0.9,3.6-0.7,7.3-1.8,10.8c-0.7,2.4-0.6,5-1.2,7.3C456.9,382.2,456.8,388.1,456.5,393.9z M414.1,80.3c0.2,1.8,0.5,3.5,0.6,5.3
	c0.3,4.6,0.6,9.3-0.2,13.9c-0.9,5.2-2.9,10.1-5.1,14.9c-3.5,7.6-6.8,15.3-10.6,22.7c-4.2,8.1-7.6,16.5-10.7,25
	c-2.3,6.5-4.7,13.1-5.5,20.1c-0.2,2.1-1.3,4.3-0.1,6.5c0.5-6,2.3-11.7,4.1-17.3c3.4-10.2,7.5-20.1,12.5-29.6
	c4-7.6,7.5-15.4,10.6-23.4c1.6-4,3.5-7.9,4.8-12c2.1-6.7,2.1-13.4,1.1-20.1C415.6,84.3,416.1,82.1,414.1,80.3z M381.3,85.8
	c-0.5,1.8-1.1,3.5-1.7,5.3c-1.2,3.7-2.7,7.4-2.7,11.4c0,1.7-0.1,3.4-0.3,5.2c-0.5,2.8-0.8,5.8-0.5,8.7c0.8,7.5,0.9,15,1.8,22.5
	c0.7,5.6,0.8,11.2,1.1,16.8c0,0.4,0.2,0.6,0.7,0.5c0.5-0.8,0.2-1.8,0.3-2.7c0-8.2-0.3-16.4-0.9-24.6c-0.6-8.7-0.3-17.5,0-26.2
	c0.1-3.6,0.3-7.2,1.6-10.8C381.4,90,382.1,88,381.3,85.8z M382,193.2c0.6-1.3,0.7-2.1,0-3.2C381.3,191.1,381.4,191.9,382,193.2z"/>
<path class="st5" d="M212,66.5c-0.1,0.9,0.5,2.1-0.9,2.6c-0.6,0.2-0.6,0.7-0.4,1.2c1.4,4.8,3.1,9.5,5.6,13.9
	c4.5,8,7.3,16.7,8.6,25.7c0.3,2.3,0,4.8-0.5,7.2c-0.6,2.7-0.3,5.4-0.8,8.2c-0.5,2.6,0.2,5.3,1.7,7.6c4.9,7.5,9.8,14.9,14.6,22.4
	c1.4,2.1,2.8,4.3,4,6.6c2.9,5.3,1.1,9-3.3,11.9c-3.6,2.4-7.6,4.1-11.8,5.2c-4.9,1.3-6.1,4.6-2.9,8.7c4.4,5.6,2.7,10.6-4.2,12.7
	c-1.2,0.4-3.2,0-3.4,1.3c-0.2,1,1.8,1.5,2.7,2.2c4.6,3.7,5.1,8,1.6,12.8c-1.1,1.5-2.3,3-3.5,4.5c-1.2,1.5-1.1,3.2,0,4.8
	c1.8,2.9,3.6,5.8,3.8,9.3c0.4,5.7-2.8,10.3-9.2,12.8c-5.9,2.3-12,3-18,4.3c-5.4,1.1-11,1.1-16.5,1.7c-2.6,0.3-5.3,0.6-7.9,1
	c-6.1,1-9.7,6.6-9.7,12.4c0,6.3-2.3,11.4-5.6,16.5c-3.1,4.8-5.7,9.9-8.1,15c-1.4,3-2.2,6-3,9.1c-1.3,5.1,0.3,9.4,3.8,12.7
	c6.3,6,10,13.5,13.2,21.4c3.6,8.9,6.9,18,10.2,27c2.5,6.8,5.6,13.4,6.9,20.7c-18.7-3.8-36.2-10.6-52.8-19.9
	c-0.4-0.2-0.8-0.6-1.2-0.9c-0.4-6.5-0.7-12.9-1.2-19.4c-1.4-20.8-1.1-41.4,5.5-61.5c3.4-10.1,8.4-19.4,13.4-28.6
	c3.2-5.9,6.3-11.9,9.5-17.9c0.9-1.7,2.2-3.1,3.3-4.7c3.8-5.4,6.8-11.1,8.7-17.6c3-10.1,6-20.2,8.4-30.5c2.4-10.1,0.9-19.7-2.6-29.1
	c-2.2-6-4.8-11.9-7.4-17.8c-5-11.5-5.4-23-0.5-34.6c4-9.2,8.4-18.3,16.2-24.9c9.4-8,20.3-13.6,32.6-16
	C211.4,66.5,211.7,66.5,212,66.5z"/>
<path class="st6" d="M293.4,199.1c4.9,0.3,9.5,1.9,14.1,3.3c5.2,1.5,10.1,3.5,13.9,7.6c0.2,0.3,0.7,0.4,1.1,0.5
	c1.9,2.7,3.9,5.4,5.2,8.4c0.5,1,0.4,2.2,1.3,2.9c1.9,1.7,2.6,3.9,3.5,6.2c0.6,1.7,0.9,3.6,2.4,4.9c0.3,0.9,0.5,1.8,0.9,2.5
	c1.8,3.5,4,6.8,5.4,10.4c-1.5,0-0.8,1-0.6,1.6c0.9,2.3,2,4.5,2.7,6.9c1.7,5.6,2.4,11.4,4.1,17c0.9,3,1.2,6.3,3,9
	c0,0.6-0.1,1.2,0.6,1.5c0.1,1,0.2,2,0.4,3c-0.7,2-0.7,4,0,6c0,0.6,0,1.3-0.1,1.9c-0.2,0.2-0.7,0.4-0.7,0.6c-0.7,3.1-2.3,5.9-3,9
	c-0.9,3.9-4.4,6-6.6,9c-1,1.4-1.5,4-4.2,2.8c-0.2-0.1-0.8,0.1-0.9,0.3c-0.8,1.7-2.8,1.7-3.9,2.9c-1.7-0.4-3,0.7-4.5,1.1
	c-2.6,0.7-5.4,0.6-8,1.4c-1.4,0-1.5,1-1.5,2c0,2.1,0.1,4.2,0.5,6.4c1.4,7.3,3.4,14.3,7.5,20.5c0.3,0.5,0.6,1,0.9,1.6
	c-0.8,0-1.2,0.5-1.7,1c-5.1,5.4-10.3,10.8-15.2,16.4c-2.1,2.4-4.5,4.6-6.1,7.5c-3.1,5.8-4.3,12-4,18.6c-12.6,0-25.1,0-37.7,0
	c-0.4-2.1-0.8-4.2-1.2-6.4c-0.9-4.9-1.6-9.7,0.4-14.5c1.8-4.4,3-9,4.3-13.5c2.4-8.5,2.5-16.9-1.3-25.1c-1.7-3.7-3.1-7.5-4.6-11.3
	c-6.5-15.6-12.1-31.5-18.2-47.3c-2.9-7.3-5.5-14.6-11.6-20.1c-2-1.8-2.4-4.6-1.8-7.4c0.9-4.1,2.9-7.6,4.8-11.2
	c2.5-4.5,5.3-8.8,6.4-14c1.1-5.3,2.3-5.6,7-3c0.2,0.9,0.8,1,1.6,0.8c0.3,0,0.7,0.1,1,0.1c0.4,0.5,0.9,0.6,1.5,0.4c0.3,0,0.7,0,1,0
	c0.3,0.5,0.6,0.5,1,0.1c0.8,0,1.6,0.1,2.4,0.1c-0.8,1.8,0.6,2.1,1.5,2.4c1.1,0.9-2.1-0.2-0.2,1.2c1,0.8,1.8,1.2,3,1.2
	c3-0.1,5.9,0.1,8.8,1c0.2,1.3,1.3,1.4,2.3,1.5c2.3,0.1,4.5-0.2,6.1-1.9c0.2,0,0.4-0.1,0.6-0.1c1,1.1,2.3,0.6,3.5,0.4
	c1.3-0.2,2.6-1.2,3.9-1.3c3.1-0.2,5.1-1.6,6-4.6c0.1-0.1,0.1-0.3,0.1-0.5c0.5-1.2,2-0.7,2.8-1.6c1.5-1.8,1.9-3.8,1.5-6
	c0-0.5,0-1,0-1.5c1-0.8,0.9-1.4-0.3-2c0-0.9,0.1-1.9,0.1-2.9c0.8-0.2,1.1-0.5,0.9-1.5C295.3,203.3,293.8,201.4,293.4,199.1z"/>
<path class="st7" d="M445.9,162c0-4.4-1.1-8.7-1.3-13.1c-0.4-7.1-0.8-14.2,0-21.4c0.4-3.2,0.9-6.4,1.3-9.6c0.2-0.4,0.6-0.8,0.7-1.2
	c1.3-5,3.2-9.7,5.5-14.3c1.4-2.7,0.9-3.5-2.1-4.3c-5.4,0.2-10.5-1.3-15.4-3.2c-7.9-3.1-12.2-9.5-12.4-18c0-2.4-0.3-4.8,0-7.2
	c0.1,0,0.2-0.1,0.3-0.2c8.9,0.6,17.6,2.4,25.9,5.7c6.2,2.5,11.1,6.8,15.1,11.9c10.4,13.2,18.8,27.6,25.1,43.2c4.1,10.3,5.1,21,4,32
	c-1.5,15-4.4,29.7-5.9,44.7c-1.1,11.2-1,22.4-0.4,33.6c0.7,12.7,4.2,24.9,5.9,37.4c1.6,11.7,2.2,23.5,1.5,35.3
	c-0.7,12.3-2.6,24.4-5.2,36.4c-2,9-5,17.8-7.7,26.6c-1.8,5.9-3.6,11.8-5.4,17.6c-1.4,0-2.9,0-4.3-0.1c-0.7-4.7-1.5-9.3-2.1-14
	c-1.6-12.3-3.2-24.7-3.7-37.1c-0.4-10.1,0-20.1,2-30c2.6-12.4,6.3-24.4,9.7-36.6c4.3-15.4,8.8-30.7,7-47c-0.7-6.8-1.6-13.5-4.4-19.9
	c-0.8-1.7-1.9-2.7-3.7-3.3c-6.5-2.2-11.9-6-16.3-11.4c-2.1-2.6-3.5-5.6-5.8-8.1c0-1.8-1.2-3.2-1.9-4.8c-2.1-5.1-3.6-10.4-5-15.8
	C446.6,164.7,446.7,163.2,445.9,162z"/>
<path class="st8" d="M453.9,186.5c2.3,2.4,3.7,5.5,5.8,8.1c4.4,5.4,9.8,9.2,16.3,11.4c1.8,0.6,2.9,1.6,3.7,3.3
	c2.8,6.3,3.6,13.1,4.4,19.9c1.8,16.3-2.7,31.6-7,47c-3.4,12.1-7.2,24.2-9.7,36.6c-2,9.9-2.5,19.9-2,30c0.5,12.5,2.1,24.8,3.7,37.1
	c0.6,4.7,1.4,9.4,2.1,14c-4.9,0-9.7,0.1-14.6,0.1c0.3-5.9,0.4-11.7,1.8-17.5c0.6-2.4,0.5-4.9,1.2-7.3c1.1-3.5,0.9-7.2,1.8-10.8
	c0.7-3.1,0.4-6.4,0.7-9.6c0.7-9-0.9-17.9-1-26.9c-0.2-8.6-1.9-16.8-5.3-24.8c-3.6-8.5-9.4-14.7-16.7-20.2
	c-4.9-3.7-10.1-6.7-15.8-8.6c-4.7-1.5-9.5-2.7-14.3-3.8c-7.5-1.6-14.9-3.5-22-6.2c-6.3-2.4-12.1-5.4-16.8-10.3
	c-5-5.2-9.9-10.5-11.3-18c-0.1-0.7-0.5-1.6,0.2-2.1c0.7-0.6,1.3,0,2,0.3c5.2,1.9,10.5,3,16.1,3.5c10.8,0.8,20.8-2.2,30.4-6.7
	c10.8-5,20.8-11.1,29.3-19.4c5.4-5.3,10.1-11.2,14.8-17.1C452.2,187.5,453,187,453.9,186.5z"/>
<path class="st9" d="M327,350.5c-0.3-0.5-0.6-1-0.9-1.6c1.5,0.3,2.6-0.5,3.3-1.7c1.7-2.8,3.9-5.2,6.1-7.4c4.1-4.2,7.8-8.8,11.4-13.3
	c2.7-3.4,5.2-6.9,8.1-10c6.3-7,13.8-12.9,20-20.1c2.7-3.2,5.5-6.4,7.1-10.4c4.6,3.3,9.1,6.8,13.8,10c4.8,3.2,10.1,5.7,14.5,9.2
	c2.5,2,5.7,3.4,7.1,6.6c0.8,1.8,2.7,2.7,3.9,4.3c4.1,5.7,6.7,11.6,6.7,18.8c0,4.7-0.7,9.4-1.4,14c-0.7,4.8-2,9.6-5.1,13.9
	c-3.3,4.5-5.8,9.7-7.8,15c-2.1,5.4-2,11.1,1.7,16.1c-22.2,0-44.4,0-66.6-0.1c0-0.3,0-0.7-0.1-1C344,377.5,337.8,362.8,327,350.5z"/>
<path class="st10" d="M687,368.5c-2.8-7.2-4.7-14.7-7.8-21.8c-1-2.3-2.5-3-4.7-2.4c-4.3,1.1-8.6,2.7-13,3.2
	c-10.7,1.3-15.7-2.6-16.8-12.6c-0.4-3.3-0.2-6.1-4.6-6.6c-1.8-0.2-2.2-4.5-0.8-6.4c0.8-1,2-1.4,3-2.2c-0.3-0.9-1.1-1.1-1.7-1.5
	c-3.1-2.4-3-6.1,0.2-8.4c0.8-0.6,1.5-1.3,2.2-2.1c1.3-1.5,1.5-3-0.3-4.3c-0.5-0.4-1-0.8-1.6-1.2c-3.6-2.5-3.7-3.5-1.4-7.1
	c2.3-3.7,6-6,9-8.9c0.4-0.4,0.9-0.8,1.3-1.1c3.6-3.1,3.6-7,1.6-10.8c-2.2-4.3-2.4-8.8-1.5-13.3c1.3-6.3,3.4-12.3,6.4-18
	c1.8,0.5,3.2,2.1,4.8,2.4c4.5,1,7.9,4.1,12,5.7c4.8,1.9,8.2,5.7,12.1,9c5.2,4.4,8.2,10.5,12.2,16c3.5,4.9,7.3,9.6,12.1,13.5
	c4,3.3,8,6.8,11.5,10.6c2.6,2.8,5.2,5.4,8.6,7c6.4,3.2,10.8,7.7,10.3,15.5c-7,9.3-15.1,17.5-23.8,25.2c-8.4,7.4-17.4,13.9-27,19.6
	C688.5,367.8,687.7,368.1,687,368.5z"/>
<path class="st11" d="M665.9,179.5c-0.7-2.3,0.3-3.2,2.6-3c0.2,0,0.5-0.1,0.7-0.1c1.2-0.4,2.8-0.1,3.4-1.2c0.6-1.1-1-1.9-1.3-3
	c-1.2-3.6-1.5-7,0.9-10.4c2.9-4,6.1-7.7,10.6-9.8c1.5-0.7,3.3-1.1,5-1.5c2-0.4,3.4-1.8,4.6-3.2c1.6-2,2-4.1,0.5-6.4
	c-2.1-3.3-1.8-6.4,0.8-9.3c6.2-6.8,13.8-9.7,23-8.7c3,0.3,5.9,0.9,8.8,1.6c2.2,0.5,4.2,0.4,5.8-1.5c4.8-5.7,10.7-6.2,17.6-4.3
	c4.1,1.1,6.6,3.5,8.8,6.6c1.6,2.3,3.7,3.7,6.2,4.9c3.5,6.7,5.9,13.9,8.2,21.1c4.9,15.6,7.5,31.5,8.2,47.8c0.1,1.3,0,2.7,0,4
	c-1,0.1-1.6-0.6-2.3-1.2c-0.9-0.8-1.2-2.1-2.1-2.7c-3.6-2.6-7.3-5-11-7.5c-0.3-0.2-0.7-0.6-1.1-0.6c-3.6-0.1-6.8-1.7-10.3-2.4
	c-7.8-1.6-15.2,0-22.7,1c-4.8,0.6-9.5,2.1-14.3,3.1c-4.6,1.1-8.9,2.8-13.1,4.6c-1.6,0.7-3.2,0.1-4.6,0.7c-3.5,1.6-7.4,1.2-11,1.1
	c-5.5,0-11.8-6-12.8-11.6C674,181.9,671.3,180.1,665.9,179.5z"/>
<path class="st12" d="M55.8,184.6c3.2,0.2,5.8,2.7,9.2,2.4c0,0.4,0,0.7,0,1.1c-1.2-0.1-2.5-0.4-3.7-0.4c-1.2,0-2.5-0.6-3.3,0.8
	c0.2,0.2,0.3,0.3,0.5,0.5c2.6,0.9,5.5,0.3,8,1.5c0,0.4,0,0.8,0,1.2c-1.6-0.1-3.1-1.1-5.1-0.5c0.7,1,0.8,2.4,2.4,1.9
	c1.6-0.5,3.1-0.2,4.6-0.2c1.3,1.3,2.7,2.2,4.6,1.4c0.4,0.1,0.9,0.2,1.4,0.3c0.1,0.5,0.1,0.9,0.2,1.4c1,0.4,2,0.8,2.9,1.3
	c0,0.4,0.1,0.5,0.4,0.1c2.2,0.1,4.4,0.3,6.5,0.4c-0.1,0.5-0.3,1.2-0.8,0.9c-1.6-0.8-2.6,0.3-3.8,0.8c-0.8-0.4-1.8-1.2-2.6-0.4
	c-0.7,0.8,0,1.6,0.7,2.2c0,0.6-0.1,1.3,0.8,1.5c0.8,0.1,1.1-0.4,1.2-1.1c0.7,0,1.4,0.2,1.4-0.9c0.9-0.1,1.6,0.3,2.4,0.6
	c0.2,0.6,0.3,1.2,0.5,1.8c-0.1,0.3-0.2,0.6-0.3,1c-0.5-0.2-1.1-0.4-1.6-0.6c-0.8-0.3-1.9-0.5-2.1,0.4c-0.3,1.3,1.1,0.8,1.7,1.1
	c0.2,2,1.8,1.8,3.2,1.8c1.7,0.1,1.3-1.3,1.4-2.3c1,0.2,1.6,1.6,2.9,0.9c0.4,1.6-2.1,2.1-1.4,3.8c-0.9,0.2-1.2,0.6-0.7,1.5
	c-0.5,0.4-1.5,0.3-1.5,1.4c1.1,0.3,2.1,0.4,3.1-0.4c0.5-0.4,1-0.1,1.3,0.3c0.4,0.6-0.2,0.6-0.6,0.8c-0.8,0.5-0.2,0.6,0.2,1
	c2,2.5,4.6,2,7.2,1.5l0,0c-0.1,1.2,2.9,0.6,1.5,2.6c-1.2,0-2.3,0-3.8,0c2.2,1.5,3.4,3.5,4.8,5.3c0.2,0.7,0.7,1,1.4,1.1
	c-0.1,2.4,1.8,4.2,2,6.5c-0.7,1.2,0,2.1,0.7,3c0.1,0.7,0.2,1.4,0.3,2c-0.5,1.1-0.8,2.2,0.4,3c0,1,0.1,1.9,0.1,2.9
	c-0.4,0-0.8,0-1.2,0c-0.9-3.9-0.6-8.2-2.7-11.9c0-3.1-2.7-4.6-4.2-7.4c-0.2,3.6,2.5,5,3.4,7.4c-0.3,2.7-0.1,5.3,0.8,7.9
	c-1.7-0.4-2-1.8-2.6-3.1c0.2-2.2-1.5-1.7-2.7-1.8c-0.4,0-1.3-0.2-1.2,0.4c0.1,1.2,1.4,1.2,2.2,1.7c0.4,0.2,0.9,0.1,1.4,0.2
	c-0.4,2.5-0.6,2.9-1.8,2.5c-0.6-0.2-1.1-0.6-1.5,0c-0.4,0.7,0.2,1.2,0.7,1.6c0.8,0.7,2.3,1.3,2.3,2c0.1,2.5,2.3,4.4,1.8,7
	c0,0.7,0.1,1.6-0.5,2.1c-3.6,2.8-2.9,5.9-1.1,9.3c0.3,0.6,0.4,1.4,0.6,2.2c0,1.5,0.1,3,0.1,4.5c0,2.5,0,5-0.6,7.5c0,0.1,0,0.2,0,0.4
	c-0.7,3.1-1.2,6.2-2,9.2c-1.4,5.6,0.5,10.2,4.2,14.3c1.3,1.5,2.6,3,3.7,4.7c1.7,2.6,0.8,5-2.2,6.1c-0.6,0.2-1.2,0.5-1.9,0.6
	c-1.2,0.2-1.5,1-1.1,2c0.5,1.2,1,2.4,1.7,3.6c1.8,3,0.6,5-2.8,5.2c-1.3,0.1-3.3-0.8-3.8,0.8c-0.5,1.6,1.7,1.9,2.8,2.6
	c2.2,1.5,2.1,4.4-0.3,5.6c-2.4,1.2-3.5,2.9-3.3,5.5c0.2,3.1-1,5.6-2.9,8c-1.2-0.1-1.7-1.3-2.4-2C66.9,321,52,297.9,42.2,271.6
	c-0.5-1.3-1.4-2.5-1.2-4c0.3-0.4,0.8-0.6,1-1c3.5-5.6,6.3-11.5,8.7-17.6c5-13.3,5.8-27.2,6.2-41.1c0.2-5.7-0.3-11.5-0.5-17.2
	c0.6-0.2,0.7-0.6,0.6-1.2c-1.8-1.4-1.3-2.4,0.5-3.1C57.2,185.3,55.4,186.2,55.8,184.6z M81.2,209.4c0,0.3,0.1,0.5,0.4,0.6
	c0.6,0.4,1.3,0.5,2,0.5c0.1,0.3,0.2,0.5,0.3,0.8c0,0,0.3,0,0.4-0.1c0.2-0.4-0.1-0.5-0.4-0.7c0.2-1.8-1.2-2.2-2.4-2.3
	C80.2,208,80.9,208.8,81.2,209.4z M96,245c-0.1-0.2-0.1-0.3-0.2-0.5c0,0.1-0.1,0.1-0.1,0.2C95.8,244.8,95.9,244.9,96,245
	c-0.1,0.9,0.3,1.9-0.2,2.8c-1.3-0.7-1.1-2.6-2.7-2.9c-0.1,1.7,0.2,3.2-0.3,4.8c-0.3,1.1,0.8,1.9,1.4,2.8c0.4,0.6,0.9,0,1.2-0.3
	C97.7,250.4,97.9,247.4,96,245z M92,248.7c0-2.6-1.2-4.2-3.6-5.3C88.9,245.5,89.9,247.1,92,248.7z M93.8,228.5
	c-0.5,3.3-0.2,3.7,2.6,3.9c0.3,0,0.6-0.1,0.9-0.2c-0.1-0.3-0.1-0.8-0.3-0.8C95.5,231,95.1,229.4,93.8,228.5z M95,227.7
	c0.4-2.2-0.9-3.8-1.7-5.5c-0.2-0.4-0.6-0.7-1-0.3c-0.2,0.2-0.2,0.7-0.1,0.9C93.1,224.4,94.1,226,95,227.7z M88.2,230.6
	c-0.6-0.1-1.1,0.1-0.9,0.5c0.4,1.1,1.4,1.8,2.5,2.1c0.5,0.2,0.8-0.2,0.8-0.7C90.4,231.1,88.9,231.2,88.2,230.6z M74.7,201.9
	c0.6,0,0.9-0.3,0.8-0.8c-0.2-0.8-0.7-1.4-1.5-1.4c-0.2,0-0.6,0.5-0.6,0.6C73.5,201.1,73.8,201.8,74.7,201.9z"/>
<path class="st13" d="M740,322.6c0.5-7.8-3.9-12.3-10.3-15.5c-3.4-1.7-6-4.2-8.6-7c-3.5-3.9-7.5-7.3-11.5-10.6
	c-4.8-3.9-8.5-8.5-12.1-13.5c-3.9-5.4-6.9-11.5-12.2-16c-3.8-3.2-7.3-7.1-12.1-9c-4.1-1.6-7.6-4.7-12-5.7c-1.7-0.4-3-1.9-4.8-2.4
	c0.1-0.8-0.7-1.2-1-1.9c-0.1-1.7,1-2.8,2.3-3.1c3-0.8,5.3-2.8,7.6-4.5c4.2-3,9.1-3.8,13.6-4.6c6-1.1,12.3-1.7,18.5-1.9
	c5.3-0.1,10.5,0.5,15.8,1.5c3.2,0.6,6.3,1.2,9.3,2.4c4.7,1.9,9.8,3,14.5,5c3,1.2,6.2,1.9,9.3,3c5.8,2,11.5,4.5,17.5,6.2
	c3.8,1.1,7.4,2.2,9.5,6c0.3,0.6,1,0.5,1.6,0.5c-5.5,22.8-15.2,43.8-28.7,63C744.3,317.3,742.4,320.1,740,322.6z"/>
<path class="st14" d="M774.9,251.5c-0.6,0-1.3,0.1-1.6-0.5c-2.1-3.7-5.7-4.9-9.5-6c-5.9-1.7-11.6-4.2-17.5-6.2
	c-3.1-1.1-6.4-1.8-9.3-3c-4.8-2-9.8-3.1-14.5-5c-3-1.2-6.1-1.8-9.3-2.4c-5.2-0.9-10.4-1.6-15.8-1.5c-6.2,0.1-12.5,0.7-18.5,1.9
	c-4.5,0.9-9.4,1.6-13.6,4.6c-2.3,1.6-4.6,3.7-7.6,4.5c-1.4,0.3-2.4,1.4-2.3,3.1c-5.5-0.6-8.9-5.2-7.8-10.8c0.7-3.8,2.2-7.1,4.5-10.1
	c2.2-2.8,2.3-5.6,1-8.6c-1.9-4.6-1.5-6.6,2.7-9.2c4.7-3,5.8-7.1,4.8-12.2c-0.6-2.8,0.1-5.2,2.2-7.3c1.1-1,2-2.2,3-3.3
	c5.4,0.6,8.1,2.4,9.2,8.2c1,5.6,7.3,11.5,12.8,11.6c3.6,0,7.4,0.4,11-1.1c1.4-0.6,3-0.1,4.6-0.7c4.3-1.8,8.5-3.6,13.1-4.6
	c4.8-1.1,9.5-2.5,14.3-3.1c7.5-1,14.9-2.6,22.7-1c3.5,0.7,6.7,2.3,10.3,2.4c0.4,0,0.7,0.4,1.1,0.6c3.7,2.5,7.4,4.9,11,7.5
	c0.9,0.6,1.2,1.9,2.1,2.7c0.7,0.6,1.3,1.3,2.3,1.2C780.8,219.4,779,235.6,774.9,251.5z"/>
<path class="st9" d="M334.9,233c-1.4-1.3-1.7-3.2-2.4-4.9c-0.9-2.3-1.6-4.5-3.5-6.2c-0.9-0.8-0.9-1.9-1.3-2.9
	c-1.4-3-3.3-5.7-5.2-8.4c0.2-1.5-0.4-3.1,0.6-4.6c0.6-0.9-0.4-1.1-0.9-1.5c-2.8-2.7-2.6-3.4-1.4-7.1c1.4-4.2,2-7-3.1-9.5
	c-3-1.5-3.6-2.8-2.5-6.1c0.7-2.2,1.8-4.2,3.1-6.1c3.2-4.4,6-9.1,7.5-14.5c1-3.8,0.5-7.5-0.3-11.1c-1.8-7.3-1.1-14.4,1-21.5
	c1.8-5.8,4.6-11.1,7.9-16.2c0.3-0.5,0.9-0.9,1.4-1.4c1.3,2.2,2.7,4.3,4,6.5c1.3,2.2,2.5,4.5,3.7,6.8c4.5,8.8,9.9,17.1,15.8,25.1
	c2.6,3.5,5.5,6.8,7.9,10.5c0.8,1.3,2.3,2.1,3.3,3.3c2.5,2.8,4.2,6.1,5.8,9.4c1.2,2.4,1.7,5.4,1.8,8.1c0.2,5.9,0.8,11.9-0.9,17.8
	c-0.9,3.2-1.2,6.6-1.9,9.9c-0.7,3.5-2.2,6.5-4.5,9.2c-3.1,3.8-7,5.9-11.8,6.7c-1.9,0.4-5.1,4.3-5.3,6.4c-0.1,0.9,0.3,1.9-0.5,2.6
	c-0.7-0.8-1.5-1-2.6-0.8c-2.6,0.4-5.2,1.2-7.9,0.7C340.3,232.9,337.6,233.1,334.9,233z"/>
<path class="st5" d="M251.5,221.4c-0.3,0-0.7,0-1,0c-0.4-0.5-0.9-0.5-1.5-0.4c-0.3,0-0.7-0.1-1-0.1c-0.2-0.9-0.9-0.9-1.6-0.8
	c-4.6-2.7-5.8-2.3-7,3c-1.1,5.2-4,9.5-6.4,14c-1.9,3.6-3.9,7.1-4.8,11.2c-0.6,2.8-0.2,5.6,1.8,7.4c6.1,5.5,8.8,12.8,11.6,20.1
	c6.1,15.7,11.7,31.7,18.2,47.3c1.6,3.8,2.9,7.6,4.6,11.3c3.8,8.2,3.7,16.6,1.3,25.1c-1.3,4.6-2.5,9.1-4.3,13.5
	c-2,4.8-1.2,9.6-0.4,14.5c0.4,2.1,0.8,4.2,1.2,6.4c-4.8,0-9.6,0-14.3,0c2.8-6.6,5.6-13.2,8.5-19.8c2.7-6.1,5.6-12.2,7.2-18.8
	c1.4-5.7,1.3-11.4,0.1-17.2c-1.1-5.3-3.4-10.2-5.6-15c-1.1-2.5-1.8-5.1-3.3-7.5c-1.7-2.7-4.1-4.1-6.8-4.5c-4.6-0.7-9.2-0.8-13.9-1.1
	c-3.3-0.3-6.5-0.9-9-3.4c-1.9-1.9-1.7-4-0.9-6c0.8-1.9,0.9-3.5-0.4-5.1c-1.4-1.6-1-2.9,0.2-4.4c1.8-2.3,1.6-2.8-0.9-3.9
	c-2.7-1.3-3.1-2.9-1.6-5.6c1.7-2.9,1.5-3.6-1.6-4.6c-3-0.9-3.9-3.1-2.9-6.1c0.9-2.9,3.5-4.6,5-7.1c1.4-2.2,2.8-4.5,4.3-6.6
	c1.8-2.6,0.8-5.5,0.3-8.2c-0.6-3.8,0-7.4,0.8-11.2c1-5.1,3.1-9.6,5.6-13.9c0.8-1.4,0.8-3,0.1-4.5c-2.2-4.8,0-8.9,5.3-9.2
	c6.1-0.3,11.5-2.2,16.8-5.4c3.7-2.2,8.3-2.8,12.6-3.7c0.7-0.1,1.3-0.1,1.8-0.6c2.4-2.3,5.3-2.8,8.4-2.9c3.9-0.1,7.8-0.1,11.7,0.5
	c0.3,0.4,0.6,0.5,1.1,0.4h0c-0.1,0.8-0.1,1.5,0.9,1.6l0,0c0.3,2.2-0.5,4.3,0,6.5l0,0c-1.5,0.3-1.1,1.6-1,2.4c0.3,2.1,1,4.1,1.5,6.1
	c-0.2,0.8-0.4,1.6-0.5,2.4c-0.7,0-1.3,0.9-2,0.4c-0.4-1,0.9-1.6,0.8-3c-2.2,1-2.2,3.2-3.4,4.6c-2.9,3.6-6.3,4.8-10.7,4.7
	c-1,0-2.6-0.9-3.2,0.9c0,0.2,0,0.4,0,0.6l0,0c-0.8-0.1-1.8,0.5-2.5-0.5c-0.7-0.9-1.3-0.2-2,0.1c-2.1-1.8-4.6-1.3-7-1
	c-0.5,0.1-1.2,0.3-1-0.5c0.1-0.6,0.8-1-0.2-1.4c-0.9-0.3-1.2,0.1-1.4,0.8c-0.1,0.4-0.7,0.4-0.7,0.1c-0.4-2.9-2.5-1.1-3.8-1.4
	c-0.8,0-1.6-0.1-2.4-0.1C252.2,221.1,251.9,221,251.5,221.4z"/>
<path class="st0" d="M56.4,190.5c0.2,5.7,0.7,11.5,0.5,17.2c-0.5,13.9-1.3,27.9-6.2,41.1c-2.3,6.2-5.2,12-8.6,17.6
	c-0.2,0.4-0.7,0.7-1,1c-2.3-5-3.5-10.4-4.9-15.6c-4.5-17.5-6.1-35.4-5.5-53.4c0-1.5,0.3-3,0.4-4.5c0.2-0.2,0.3-0.3,0.5-0.5l0,0
	c1.6-0.7,0.6-1.3-0.1-1.9l0,0c-0.1-0.2-0.2-0.4-0.3-0.6c0-0.3,0.1-0.6,0.1-0.9c0.6-0.1,1.3,0.1,1.8-0.5c1.3-0.5,1.4-2.4,2.9-2.6
	c1-0.2,2-0.4,3.1-0.5s2.2,0.2,2.5-1.3c0.5,0.2,1,0.3,1.5,0.5c0.4,1.1,1.4,0.7,2.2,0.8c0.4,2.9,2.4,3.6,5.6,2
	c0.7-0.3,2.2-0.3,1.8-1.4c-0.4-1.1-1.7-0.7-2.7-0.3c-0.3,0.1-0.6,0.2-0.9,0.3c-0.2-0.2-0.5-0.4-0.7-0.6c0.1-0.1,0.1-0.3,0.1-0.5
	c0-0.5,0.1-0.9,0.1-1.4c0.5,0,0.9,0,1.4,0c0.8,1.2,1.7,1.1,2.7,0.1c1.3-0.1,1.4-1,1.5-2.1c0.1-3.3-1.6-5.9-3-8.7l0,0
	c1,0,1.3,0.9,1.9,1.4c0.1,0.4,0.3,0.7,0.8,0.6c1.5,2.6,1.6,5.6,2.1,8.5c-0.5,1.6,1.3,0.8,1.6,1.6c-1.8,0.7-2.3,1.7-0.5,3.1
	C56.4,189.6,55.8,189.7,56.4,190.5z M40.5,190.4c1.1,0.1,2.2,0,3.1-0.6c0.4-0.2,1.4-0.2,0.8-1.1c-0.3-0.5-0.7-1.2-1.5-0.8
	c-0.4,0.2-0.8,0.6-1.2,0.9c0.1-0.6,0.7-1.2-0.2-1.7c-1.1-0.6-4.7,0.7-5.1,1.8c-0.1,0.2,0,0.6,0,0.6
	C37.8,189.9,38.8,191.9,40.5,190.4z M50.8,191.8c0.1-0.8-0.5-0.8-0.9-0.7c-0.6,0.1-1.5-0.5-1.6,0.6c0,0.5,0.5,1.1,1,1.2
	C50.1,193,50.5,192.3,50.8,191.8z M56,192.9c-1.3-1-2.2-0.9-3.1-0.1c-0.3,0.3-0.5,0.9,0,1C53.9,194.2,54.7,193.3,56,192.9z"/>
<path class="st0" d="M327,350.5c10.8,12.3,17.1,27,21.9,42.4c0.1,0.3,0,0.7,0.1,1c-16.3,0-32.5,0-48.8,0c-0.3-6.5,0.9-12.8,4-18.6
	c1.5-2.9,4-5.1,6.1-7.5c4.9-5.6,10.1-10.9,15.2-16.4C325.7,351,326.2,350.5,327,350.5z"/>
<path class="st2" d="M187.5,30.1c0.1,0.8-0.2,1.6-1.1,1.7c-1.4,0.2-0.3-0.9-0.6-1.3c-0.3-0.4-0.7-0.4-1.1-0.4
	c-2.2-0.2-3.9-2.7-2.7-4.5c0.6-0.8-0.1-2.9,1.9-2.6c0,0,0.1-0.1,0.1-0.2s-0.1-0.1-0.1-0.2c2.4-1.5,3.8-1,4.5,1.6
	c0.3,1.1,0.6,2.2,0.9,3.3c0.2,0.6-0.3,1.5,0.5,1.8c0.8,0.3,1.2-0.7,1.7-1.2c0.8-0.7,0.4-2.5,2.4-2.2c0.4,0.1,0.5-1.4,0.2-2.3
	c1.7,0.8,1.1,2,1.2,3c-1.2,0.4-1.8,1.2-1.9,2.5c0,0.3,0.5,0.5,0.8,0.2c0.9-0.7,2.1-1.3,1.1-2.7c3-0.7,3-0.7,2.9,3.5
	c2.7-1.7,1-4.8,2.6-6.8c1.7,2.1,1.8,4.7,2.1,7.2c0.3,1.3-1.8,2.9,0.5,4c0,0.3,0,0.7-0.1,1c-1.1,0.5-0.9,1.7-1.5,2.5
	c-0.8,0.7-1.9,0.7-2-0.2c-0.2-1.7-1.9-2.9-0.9-4.8c-1-0.2-1.5,0.5-2.1,0.8c-0.7,0.4-1.2,0.9-1.6-0.3c-0.4-1-1-1.3-2-0.2
	c-1.2,1.4-2.2,1-2.9-0.7c-0.6-1.3-1-2.9-3-2.6c-0.2-0.6,0.3-1.3-0.5-1.7c-0.1,0-0.4,0.2-0.5,0.4C186.4,29.5,186.7,30,187.5,30.1z"/>
<path class="st2" d="M214.9,51.6c-1,0-2,0-3-0.1c-0.4,0-0.9-0.1-1.1-0.3c-2.1-2.5-2.1-2.5-4-3.1c0.6-0.8,1.6-0.7,2.4-1.2
	c-0.6-0.7-1.2-1.4-1.7-2c0.4-0.8,1.6-0.4,2.1-1.7c-1.9,1.2-2.5-1.9-4.5-0.8c-0.3,0.2,0.1-1.6-0.3-2.7c-1.3,1.1-2.6-0.1-4.3,0.4
	c1-1.5,2.6-0.4,3.2-1.5c0.8-0.1,1.7,0.3,2.4-0.4c2.3-0.4,4.7-0.8,7.2-1.3c-0.4,0.9-0.4,1.8,0.9,2.3c-1.1,0.4-2.4-0.4-2.7,1.2
	c1.5,0.6,3.3-0.3,4.7,1c-1.4,1.6-3.6,0-5.2,1.5c1.9,0.2,2.7,1.9,4.1,2.8l0,0c-1.5,0-2.9,0.2-4.2,0.8c0.1,0.7,0.7,0.5,0.9,0.7
	c0.5,0.4,2.6-0.6,1.2,1.5c-0.2,0.3,0.9,1.3,1.8,1.5C216.9,50.3,215.2,51,214.9,51.6z"/>
<path class="st9" d="M571.1,37.1c-0.2,0.9,0.5,1.8-1,2.7c-2.3,1.4,0.7,2.9,1.2,3.2c1.7,1,1.5,3.1,2.7,4.2c0.4,0.3-0.2,0.7-0.6,0.8
	c-0.3,0.1-0.9,0.2-0.6,0.5c2.4,2-0.8,3-0.8,4.5c0,0.9-0.7,0.4-1.1,0.3c-1.5-0.6-2.5-3.6-1.8-5.2c0.4-0.9,1.2-2.1-0.8-2.2
	c-0.1,0-0.3-0.2-0.4-0.2c-0.9-0.5-0.1-3.2-1.2-2.1c-1.2,1.1-3.8,2-3.3,4.7c-1-1.1-0.4-4.6,1.3-5.2c1.2-0.5,1.6-1.4,2.4-2.2
	C568.4,39.4,569.8,38.3,571.1,37.1z"/>
<path class="st9" d="M601.4,32.6c-1.7-1.6-3.5-0.5-5,0c-2.2,0.7-0.4,3.1-0.2,3.4c1.7,2.5,0.2,4.9-0.7,6.8c-0.9,2-0.8,4.3-2.4,6.2
	c-0.6-2-1.1-3.7-1.6-5.5c2,0.8,2.8-0.5,2.9-2c0.1-2.3,1.5-4.5,0.2-6.9c-0.6-1.2,1.5-4.5,2.7-4.5C599,30.1,600.9,30.3,601.4,32.6z"/>
<path class="st6" d="M33,189.6c-0.5,0.6-1.2,0.4-1.8,0.5c-0.5-2.6,0.9-4.3,2.8-5.6c1.3-0.9,2.6-1.7,4-2.5l0,0c3.2-0.6,6.3-1.3,9.6-1
	c1.4,0.1,2.9,0.2,4.1,1.5c-2.5,0-5-0.2-7.5,0c-4.2,0.3-7.9,1.8-10.9,4.8C32.9,187.7,30.9,188.6,33,189.6z"/>
<path class="st4" d="M661.9,32.2c-0.2,1.4,0.5,3.5-2.5,2.7c0.5,1.8-0.7,3.4-0.1,5.1c0.2,0.6,0.2,1.3-0.4,1.5
	c-0.8,0.2-1.8,0.4-2.6,0.1c-0.7-0.2-0.4-1.3-0.1-1.8c1.6-2.8,1.2-6.2,2.8-8.9C660.1,31,661,31.4,661.9,32.2z"/>
<path class="st9" d="M565,68.1c1.2-1.9,2.8-1.3,4.3-0.4c1.3,0.7,2.7,1.5,1.8,3.4c-0.2,0.5-0.3,1.1,0.2,1.3c3.1,1,1.2,3.2,0.4,4
	c-0.7,0.7-2.6,0.4-3.4-1.2c1.9-0.6,2.3-1.6,1.2-3.1c-0.2-0.3-0.7-0.5-0.7-0.7C568.9,68.6,566.7,68.7,565,68.1z"/>
<path class="st9" d="M626.2,37.6c0.1-2.1,1.5-4.2,0.3-6.8c-1.1,1.7-1.5,3.3-1.7,5c-0.1,0.9,0,1.8-0.1,2.7c0,0.6,0.4,1.6-0.5,1.6
	c-0.9,0-0.3-1.1-0.5-1.5c-1-2.1,0.5-4.1-0.1-6.1c-0.1-0.4,0.3-2-1.1-0.5c-0.6,0.7-1.4-0.5-1.5-1.5c1.8-1.4,2.8-0.4,3.6,1.4
	c0.4-1,0.2-2.2,1.5-2.2c1.2,0,1.4,1.1,1.5,2C628,33.8,628.8,36.1,626.2,37.6z"/>
<path class="st9" d="M563.5,48.1c1.1,0.2,1.3,1.1,0.5,1.5c-2.9,1.4-1.4,3.3-0.6,5c0.5,1.1,1.5,1.8,1.8,3.2c0.2,0.9,1.3,1.3,2.2,1.2
	c1.8-0.2,1.5,1.3,1.3,1.9c-0.3,1.7-3.7,2.1-5,0.7c0.9,0.3,2,0.5,2.5-0.3c0.6-0.9-0.5-1.5-1.1-2.2c-1.2-1.6-2.7-3.2-3.4-5.1
	C560.9,51.8,561.4,49.6,563.5,48.1z"/>
<path class="st9" d="M614.9,29.8c-1.1,2.6-3.2,3.3-5.2,1.8c-1.3-0.9-0.9,1.2-2,1c-0.5-0.9,0.5-3.4-2.2-2.5c0-0.7,0.4-1.1,1.1-1
	C609.4,29.3,612.1,29.6,614.9,29.8z M609.7,30.4l0.1-0.2l-0.2,0L609.7,30.4z"/>
<path class="st9" d="M582.2,39.5c0.8,0.9,1.6,1.8,0.4,2.9c-1.3,1.2-1.7,2.7-1.5,4.4c0.1,0.5-0.1,1.1-0.5,1.3
	c-0.6,0.3-0.8-0.4-1.2-0.6c-3.1-1.1-0.6-3.3-1.1-5c1.9,0,0.5,1.5,1.1,2.6C581,43.4,581.1,41.2,582.2,39.5z"/>
<path class="st2" d="M43,139.5c0,2.5,2.1,4.4,2,7c0,1.3-0.2,2.4-1,3.5C42.5,146.6,40.8,143.3,43,139.5z"/>
<path class="st2" d="M47.5,165c2-0.8,3.2,0.3,4,1.9c1,1.9,1.5,3.9,1.5,6.1C50.9,170.6,48.8,168.1,47.5,165z"/>
<path class="st9" d="M552.5,73.5c0-0.3,0-0.6,0-0.9c2.3,0.7,3.9-1.5,6-1.7c1.9-0.2,3.2-0.5,3.2,2c0,0.3,0.5,0.7,0.7,1
	c-0.5,0.8-1,0.8-1.4-0.1c-0.6-1.6-1.9-1.8-3.4-1.8c-1.7,0-1.3,1.5-1.8,2.4C554.8,74,553.7,73.5,552.5,73.5z"/>
<path class="st9" d="M206,38c-0.7,0.8-1.6,0.4-2.4,0.4c-0.4-0.5-1.1-0.4-1.6-0.5c0.6-0.8,0.4-2,1.5-2.5c0.2,0.6,0.4,1.3,0.9,0.3
	c0.6-1.1,0.9-2.4,1.5-4C207.2,34.2,205.5,36.1,206,38z"/>
<path class="st2" d="M44.2,150.9c1.9,1.3,2.1,3.6,3.1,5.5c0.7,1.2-0.7,1.6-1.7,1.6C44.7,155.7,44.1,153.4,44.2,150.9z"/>
<path class="st9" d="M605.5,30.1c0.6,3-2.5,4-3.5,6.2c-1.5-1-0.4-2.2-0.4-3.3c0.9,0.2,1.2-0.4,1.5-1.1
	C603.6,31,604.3,30.1,605.5,30.1z"/>
<path class="st9" d="M590,39.5c-0.9,0.2-1-0.8-1.5-1c-0.4-0.1-0.8-0.2-1.1-0.4c-0.8,2.9-3.1,0.1-4.4,1.2c3-2.7,4-2.9,6.2-1.5
	C589.8,38.3,590,38.8,590,39.5z"/>
<path class="st2" d="M214.9,57.6c-0.6-1.1,0.3-3-1.7-3.5c-0.2,0,0.2-1.5,1.3-1.5c0.1,1.4,1.2,0.8,2,1l0,0c0.1,1.5,1.6,0.6,2.4,1.6
	C217.3,55.5,215.7,56,214.9,57.6z"/>
<path class="st7" d="M293.4,199.1c0.4,2.3,1.9,4.1,2.2,6.5c0.1,1-0.1,1.3-0.9,1.5c-0.6-2.5-0.5-5.2-2.6-7.1l0,0c0-0.4,0-0.7,0-1.1
	C292.5,199,292.9,199.1,293.4,199.1z"/>
<path class="st9" d="M558,65.6c1.5,1.1,3.7,1,5,2.6C559.8,69.1,558.6,68.4,558,65.6z"/>
<path class="st6" d="M45.2,186.5c-0.8-0.1-1.8,0.3-2.2-0.8c1.9-0.1,3.6-1.6,5.6-1.1c0,0.5-0.1,0.9-0.1,1.4
	C47.3,185.9,46.3,186.2,45.2,186.5z"/>
<path class="st9" d="M562.9,61.4c-1.6,0.9-3.3,1.8-4.9,2.7C558.2,61.7,559.3,61.1,562.9,61.4z"/>
<path class="st9" d="M203.6,34.5c-2.3-1.1-0.1-2.7-0.5-4C205.1,31.6,204.9,33,203.6,34.5z"/>
<path class="st8" d="M38.1,182c-2-0.1-3.9,0-5.8,1C33.4,180.6,35.9,180.3,38.1,182C38,182,38.1,182,38.1,182z"/>
<path class="st2" d="M215.5,52.5c0-0.2,0-0.3-0.1-0.5c2,0,3.8,0.5,5.5,2.2c-1.8,0.2-2.9-1.2-4.4-0.8l0,0
	C216.2,53.2,215.9,52.9,215.5,52.5z"/>
<path class="st6" d="M41.5,185.2c-0.3,1.5-1.4,1.2-2.5,1.3c-1,0.1-2,0.3-3.1,0.5C37.6,185.5,39.5,185.4,41.5,185.2z"/>
<path class="st9" d="M618.6,30.6c-0.5,0.8-1,1.9-1.9,1.7c-1.2-0.3-0.5-1.5-0.6-2.4C617,30.2,617.8,30.4,618.6,30.6z"/>
<path class="st9" d="M577,40.9c-1.8-0.1-2.7-1.1-2.5-2.9C575.6,38.8,576.5,39.7,577,40.9z"/>
<path class="st9" d="M567.5,74.9c-1.1-0.5-2.5-0.3-3.5-1C565.4,73.4,566.8,72.9,567.5,74.9z"/>
<path class="st9" d="M591.5,43.5c-2-0.7-0.3-2-0.5-3C592.8,41.3,590.8,42.6,591.5,43.5z"/>
<path class="st6" d="M52.6,184.8c-0.9,1.1-1.8,1.1-2.7-0.1C50.9,184.7,51.7,184.7,52.6,184.8z"/>
<path class="st9" d="M626.5,40.5c-0.9-0.5-1.3-1.1-0.4-1.9C626.7,39.1,626.4,39.8,626.5,40.5z"/>
<path class="st9" d="M621,30.4c-0.5,0-1.1,0-1.6-0.1C620,29.1,620.5,29.3,621,30.4z"/>
<path class="st12" d="M292,199c0,0.4,0,0.7,0,1.1c-1.1-0.1-1-0.8-0.9-1.6C291.5,198.3,291.8,198.7,292,199z"/>
<path class="st9" d="M574,37.8c-0.8,0.3-1.3,0.1-1.8-0.6C573,37,573.7,36.8,574,37.8z"/>
<path class="st6" d="M31.5,191.6c0.6,0.6,1.7,1.2,0.1,1.9C31.5,192.9,31.5,192.2,31.5,191.6z"/>
<path class="st12" d="M291.1,198.4c-0.5,0.1-0.8,0-1.1-0.4c0-0.2,0-0.5,0.1-0.8C290.8,197.3,291,197.9,291.1,198.4z"/>
<path class="st9" d="M577.9,42.2c-0.7-0.2-0.8-0.6-0.8-1.2C577.8,41.1,578,41.6,577.9,42.2z"/>
<path class="st2" d="M53.8,176c-0.5,0.1-0.7-0.1-0.8-0.6c0.1-0.3,0.2-0.7,0.3-1C53.4,175,53.6,175.5,53.8,176z"/>
<path class="st12" d="M289.1,196.4c-0.4,0-0.6-0.3-0.6-0.7C289,195.7,289.1,196,289.1,196.4z"/>
<path class="st2" d="M215,45.5c0.2,0.1,0.4,0.1,0.6,0.2c0,0.1-0.1,0.2-0.1,0.2C215.4,45.8,215.2,45.7,215,45.5
	C215,45.5,215,45.5,215,45.5z"/>
<path class="st0" d="M50.5,173.5c0.2,0.2,0.3,0.3,0.5,0.5l0,0C50.9,173.8,50.7,173.7,50.5,173.5L50.5,173.5z"/>
<polygon class="st0" points="50.5,173.5 50.5,173.4 50.5,173.5 "/>
<path class="st9" d="M335.6,110c0.1,0.2,0.3,0.3,0.5,0.5C335.9,110.3,335.7,110.2,335.6,110z"/>
<path class="st6" d="M31.5,193.5c-0.2,0.2-0.3,0.3-0.5,0.5C31.2,193.8,31.4,193.7,31.5,193.5z"/>
<path class="st6" d="M31.2,191c0.1,0.2,0.2,0.4,0.3,0.6C31.4,191.4,31.3,191.2,31.2,191z"/>
<path class="st9" d="M590.5,39.8c-0.1-0.1-0.3-0.2-0.4-0.3C590.2,39.6,590.4,39.7,590.5,39.8z"/>
<path class="st10" d="M552.5,73.5c1.2,0,2.3,0.5,3.4,0.9c8.2,4.7,16.3,9.6,23.8,15.5c5.7,4.5,11.7,8.8,15.4,15.4
	c1.3,2.4,2.1,4.7-0.1,7c-0.7,0.7-0.5,1.5-0.1,2.3c4.2,8.7,5.5,17.9,5.1,27.4c-0.3,8.4,1.2,16.4,5.2,23.8c2.8,5.1,6.6,9.3,10.8,13.3
	c0.7,0.6,1.3,1.3,1.9,2c2.3,2.8,2.3,5.9-0.3,8.5c-2,2.1-4.3,3.9-6.4,5.9c-3.1,3-3,6.5,0,9.4c1.4,1.4,0.9,2.7,0,4
	c-1.3,1.8-3.3,2.1-5.3,2.7c0.7,0.7,1.3,1.3,1.8,2c2.2,3,1.9,5.4-1.2,7.4c-3.7,2.3-5.8,5.4-6.4,9.8c-0.7,6.2-5.8,10.4-12,10.7
	c-5.3,0.2-10.4-1.3-15.5-2.4c-6.4-1.3-12.1-0.4-16.6,4.7c-2.5,2.8-2.9,6.5-4,9.9c-2.3,6.7-3.3,13.7-3.4,20.8
	c-0.1,10.6,4.1,19.6,11.1,27.3c5.8,6.4,10.8,13.2,15.7,20.2c2.1,3,4.8,5.7,6.7,8.9c-10.2,2.9-20.4,4.5-30.7,0.9
	c-8.2-2.9-14.6-7.7-16.5-16.8c-0.7-3.1-0.7-6.3-1.2-9.4c-0.9-6.2-4.8-10.2-10.8-11.3c-4.9-0.9-8.1-7.4-6.2-12.5
	c0.8-2,1.9-3.7,3.4-5.2c1.3-1.3,1-1.8-0.5-2.7c-5.6-3.1-7.5-9.7-4.4-15.3c0.7-1.4,1.8-2.5,3.2-3.1c2.8-1.2,3.5-2.9,2.2-5.7
	c-0.7-1.6-2-2.7-3.3-3.7c-1.5-1.1-3-2.1-4.4-3.3c-4.6-3.8-5.9-8.7-3.9-14.3c2.1-5.8,6.2-10.2,10-14.8c5.6-6.6,11.1-13.2,16.7-19.9
	c2.7-3.1,3.6-6.6,1.8-10.4c-6.7-14-3.7-27.6,1.4-41.2c2.2-6,5.2-11.7,8.7-17.1c0.8-1.1,1.1-2-0.3-2.9c-1.1-0.7-1.1-1.5,0.1-2
	c2-0.8,0.8-1.3-1.2-2.1c4.9-1.1,7.6-3.4,8.3-7.6c-1.6,0.4-3.2-1.2-5.1,0c-0.6,0.4-2-0.4-2.2-1.6c-0.1-0.5,0-0.9-0.4-1.3
	c-1.3-1.5-3.3-3.4,1.1-2.6c1.3-2.3,2.5-0.2,3.9-0.1c1.8,0.2,4-0.9,4.7-2.8c0.7-1.9-1-2.5-2.8-2.5c0.9-1,1.5-2.1,2.4-2.6
	c1-0.5,1.3-1.1,0.7-1.8c-0.6-0.7-1.7-1.5-2.5-0.8c-1.2,1-3.1,0.3-3.9,2.2c-0.3,0.7-1.4,0.7-1.8-0.5c-0.4-1.3-0.5-1.3-1.8-0.6
	c-0.2-3.1,1-4.9,3.8-5.7c0.5-0.1,0.8-0.2,0.6-0.8c-0.2-0.6,0.3-1.5-0.7-1.8c-0.8-0.3-2-0.4-1.9-1.7c0.1-1.2,1.4-0.9,2.2-1.6
	c-1.4-0.1-1.5-2.3-3.3-1.7c-0.4,0.1-0.3-3.5,0.6-4C550.1,77.4,550.8,75,552.5,73.5z"/>
<path class="st4" d="M612.7,48.8c-0.1,2.1,0.1,4.1,1.3,6c0.6,1,0,2.2-0.8,2.8c-0.7,0.6-0.9-0.6-1.3-1c-2.1-2.5-1.8-5.7-2.6-8.5
	c-0.2-0.8,0.8-1,1.5-0.7C611.5,47.6,612.9,47.2,612.7,48.8z"/>
<path class="st15" d="M638,34c0,0.1,0,0.2-0.1,0.2c0,0-0.1,0-0.2,0C637.8,34.2,637.9,34.1,638,34C638,34,638,34,638,34z"/>
<path class="st7" d="M97,215.5c-2.6,0.5-5.2,1-7.2-1.5c-0.3-0.4-0.9-0.5-0.2-1c0.3-0.2,0.9-0.2,0.6-0.8c-0.3-0.4-0.8-0.7-1.3-0.3
	c-1,0.7-2,0.7-3.1,0.4c0-1.1,0.9-1,1.5-1.4c0.5,0,1,0,1.5,0c0.4,0,1.1,0.3,1.3-0.3c0.2-0.7-0.4-1-1.1-1c-0.3,0-0.7-0.1-1-0.1
	c-0.6-1.7,1.9-2.2,1.4-3.8c1.9-2.6,1.8-3-1.3-4.6c-1.5-0.7-3.1-2.2-4.3,0.5c-0.8-0.2-1.5-0.7-2.4-0.6c-0.5-0.4-1-0.9-1.5-1.3
	c1.2-0.5,2.2-1.6,3.8-0.8c0.6,0.3,0.8-0.4,0.8-0.9c0.4-0.2,0.9-0.4,1.3-0.6c0.8,2,3.1,2,4.6,3.2c1.6,1.2,2.4,0.8,2.6-1.3
	c0.1-1.4-0.7-2.4-1.8-3.1c-4-2.8-8.2-3.6-12.8-1.3c-1.2,0.6-2.5,0.9-3.7,1.3c-0.1-0.5-0.1-0.9-0.2-1.4c0.6-0.3,1.6-0.1,1.7-0.8
	c0.2-0.9-0.8-1.2-1.3-1.6c-3-1.9-6.4-3.1-9.8-4.2c0-0.4,0-0.7,0-1.1c4.2,0.1,7.8,1.9,10.7,4.7c1.9,1.7,3.1,1.3,4.6-0.1
	c0.7-0.7,1.2-1.6,2.3-1.9c0.6,1.1-0.8,1.7-0.7,2.7c11.3,0.5,13.7,6.3,14.5,12.8c-1-1.1-1.3-2.3-1.4-3.6c-0.1-0.4-0.3-0.8-0.8-0.8
	c-0.6,0-0.5,0.5-0.6,0.9c-0.3,1.6,2.4,5.9,4,6.4l0,0c-0.5,2.3-0.2,2.8,2.1,2.6c1.1-0.1,2.2-0.4,3.4-0.6l0,0c-1.5,1.8-3,3.5-5.2,4.4
	C97.2,214.6,97,215,97,215.5z M95,208.6c0.1-0.9-2.1-4.1-2.8-3.9c-0.9,0.3-1.6,1.2-1.9,2.1c-0.2,0.8,2.3,3.2,3.2,3.1
	C94.4,209.9,94.9,209.5,95,208.6z M92.2,211.8c0-0.1,0-0.1,0-0.2c-0.1,0-0.1,0-0.2,0c0,0.1,0,0.2,0.1,0.3
	C92.1,211.9,92.1,211.8,92.2,211.8z"/>
<path class="st7" d="M98.1,266.6c0-1.5-0.1-3-0.1-4.5c1.6-3.5,2.9-7,2.9-10.8c0-1.2-0.3-2.5-1.9-2.7c0.5-2.6-1.7-4.5-1.8-7
	c0-0.7-1.5-1.4-2.3-2c-0.5-0.4-1.2-0.9-0.7-1.6c0.4-0.6,0.9-0.2,1.5,0c1.2,0.4,1.4,0,1.8-2.5c0.1-0.2,0.2-0.3,0.3-0.5
	c0.5,1.3,0.9,2.7,2.6,3.1c0,0.5,0.6,1.2-0.5,1.1c-0.4-0.1-0.9-0.7-1.2,0c-0.3,0.5,0.1,1,0.4,1.3c2.2,2.1,3.3,4.9,4.3,7.7
	c0.2,0.7,1,1.8-0.7,2c-0.9,0.1-0.7,1-0.7,1.6c0.1,2.2-0.5,4.3-1.3,6.3c-1.5,3.5-1.8,7-0.2,10.6l0,0
	C99.2,268.5,99.5,266.4,98.1,266.6z"/>
<path class="st7" d="M101,224.5c-0.7-0.1-1.2-0.4-1.4-1.1c1.2-2.1-0.4-3.6-1-5.3c1.4-2-1.6-1.4-1.5-2.6c3.5,0.3,5.5-2,7.7-5.1
	c0,3.1-1.1,4.8-2.9,5.8c-2,1.1-1.8,2.2-0.6,3.7c2.7,3.5,3.6,7.8,4.7,11.9c0.2,0.7,0.4,1.6-0.5,2.6c-1.2-4.1-1.5-8.3-4.2-11.9
	C101.1,223.4,101,224,101,224.5z"/>
<path class="st7" d="M99.6,230.1c-0.9-2.4-3.6-3.8-3.4-7.4c1.5,2.8,4.2,4.3,4.2,7.4C100.2,230.1,99.9,230.1,99.6,230.1z"/>
<path class="st2" d="M213,58.6c0,0.6-0.2,1-0.7,0.8c-0.8-0.3-1.8-0.5-2.1-1.5c-0.1-0.5,0.3-0.8,0.8-0.6
	C211.7,57.5,212.7,57.5,213,58.6z"/>
<path class="st7" d="M103.2,241.9c0.4,0,0.8,0,1.2,0c0.2,1.3,0.3,2.5-0.3,4.2C103.3,244.5,103.3,243.2,103.2,241.9z"/>
<path class="st7" d="M104.3,239.1c-1.2-0.9-0.9-1.9-0.4-3C104.9,236.9,104.4,238,104.3,239.1z"/>
<path class="st7" d="M103.6,234c-0.7-0.9-1.3-1.8-0.7-3C103.6,231.9,103.9,232.9,103.6,234z"/>
<path class="st15" d="M215.5,52.5c0.3,0.3,0.7,0.7,1,1c-0.8-0.1-1.8,0.4-2-1C214.9,52.6,215.2,52.5,215.5,52.5z"/>
<path class="st7" d="M103,210c0-0.1,0.1-0.1,0.1-0.2C103.1,209.9,103.1,209.9,103,210C103,210,103,210,103,210z"/>
<path class="st7" d="M97.5,208c0.1-0.1,0.1-0.1,0.2-0.2c0,0,0,0.1,0,0.1C97.7,208,97.6,208,97.5,208C97.5,208,97.5,208,97.5,208z"/>
<path class="st7" d="M100.5,268.5c0.1,0,0.1,0.1,0.2,0.1C100.6,268.5,100.6,268.5,100.5,268.5C100.5,268.5,100.5,268.5,100.5,268.5z
	"/>
<path class="st7" d="M97.5,274.4c0-0.1,0-0.2,0-0.4c0.1,0.1,0.1,0.2,0.2,0.3C97.6,274.3,97.5,274.4,97.5,274.4z"/>
<path class="st8" d="M445.9,162c0.8,1.2,0.7,2.7,1.1,4c-2.4,0.4-2.9,2.8-4.2,4.3c-7.7,8.4-14.9,17.1-23.3,24.9
	c-2.5,2.2-4.6,4.8-7,7.1c-4.9,4.9-10.6,8.9-16.5,12.6c-3.7,2.4-7.5,4.5-11.3,6.5c-4.4,2.4-9.1,3.4-13.8,4.9
	c-0.6,0.2-1.5,0.4-2.3-0.5c2.2-0.8,4.4-1.6,6.5-2.2c3.3-1.1,6.2-2.8,9.3-4.4c3.5-1.8,6.5-4.3,10-5.9c1.5-0.7,2.6-1.9,3.7-2.9
	c3.7-3.5,8.1-6.1,11.6-9.8c6.6-7.1,13.7-13.8,19.9-21.2c4.4-5.2,9.5-9.7,13.2-15.4C443.5,163,444.6,162.2,445.9,162z"/>
<path class="st8" d="M450,98.1c3,0.8,3.4,1.7,2.1,4.3c-2.3,4.6-4.2,9.3-5.5,14.3c-0.1,0.4-0.5,0.8-0.7,1.2c-1,0-1.5,0.7-1.7,1.5
	c-1.4,4.9-4.6,8.9-6.2,13.8c-1.7,5.2-5,9.7-7.3,14.6c-2.8,5.9-5.9,11.8-10.1,16.8c-4.3,5.1-7.8,10.7-12.6,15.3
	c-4.7,4.6-9.1,9.6-13.6,14.5c-2.2,2.4-4.7,4.6-7.4,6.5c-0.6-0.7,0-1.1,0.3-1.4c3.4-3.6,6.9-7.2,10.3-10.8c5.4-5.8,10.5-11.9,15.5-18
	c4.6-5.7,8.6-11.9,12.4-18.1c2.8-4.6,4.8-9.6,7.4-14.4c4.1-7.6,7.5-15.6,11.3-23.4c1.8-3.6,2.9-7.5,4.3-11.3
	C449.1,101.8,449.5,99.9,450,98.1z"/>
<path class="st8" d="M414.1,80.3c1.9,1.7,1.4,3.9,1.7,5.9c1,6.8,1,13.4-1.1,20.1c-1.3,4.2-3.2,8-4.8,12c-3.1,8-6.7,15.8-10.6,23.4
	c-5,9.6-9.1,19.4-12.5,29.6c-1.9,5.6-3.6,11.3-4.1,17.3c-1.2-2.2-0.1-4.4,0.1-6.5c0.8-6.9,3.1-13.6,5.5-20.1
	c3.1-8.5,6.5-16.9,10.7-25c3.8-7.4,7.1-15.1,10.6-22.7c2.2-4.8,4.2-9.7,5.1-14.9c0.8-4.6,0.5-9.3,0.2-13.9
	C414.7,83.9,414.4,82.1,414.1,80.3z"/>
<path class="st8" d="M381.3,85.8c0.8,2.2,0,4.3-0.6,6.1c-1.2,3.5-1.5,7.2-1.6,10.8c-0.3,8.7-0.5,17.5,0,26.2
	c0.5,8.2,0.9,16.4,0.9,24.6c0,0.9,0.2,1.8-0.3,2.7c-0.4,0.1-0.6-0.1-0.7-0.5c-0.4-5.6-0.4-11.3-1.1-16.8c-0.9-7.5-1-15-1.8-22.5
	c-0.3-2.8,0.1-5.8,0.5-8.7c0.3-1.8,0.4-3.5,0.3-5.2c0-4,1.5-7.7,2.7-11.4C380.2,89.3,380.8,87.5,381.3,85.8z"/>
<path class="st8" d="M382,193.2c-0.5-1.3-0.6-2.1,0-3.2C382.7,191.1,382.6,191.9,382,193.2z"/>
<path class="st9" d="M353.5,236c-0.5-0.3-0.5-0.6,0-1C354,235.3,354,235.6,353.5,236z"/>
<path class="st9" d="M341.2,246c2.6,2.7,3.7,6.2,4.9,9.6c2.4,6.9,4.1,13.9,4.5,21.2c0.1,1.2,0.6,2.4,0.5,3.7c-0.2,0-0.3,0-0.5,0
	c-1.8-2.8-2.1-6-3-9c-1.7-5.6-2.4-11.4-4.1-17c-0.7-2.4-1.9-4.6-2.7-6.9C340.5,247,339.7,246,341.2,246z"/>
<path class="st4" d="M351.4,292.9c-0.3,7.1-1,14.1-6.8,19.2c-3.5,3.1-7.1,6.2-12.1,6.9c0.5-0.7-0.1-1.1-0.5-1.5
	c1.1-1.2,3.1-1.2,3.9-2.9c0.1-0.2,0.7-0.4,0.9-0.3c2.8,1.2,3.2-1.4,4.2-2.8c2.2-3,5.7-5.2,6.6-9c0.7-3.1,2.3-5.9,3-9
	C350.7,293.3,351.1,293.1,351.4,292.9z"/>
<path class="st7" d="M254.9,221.6c1.3,0.4,3.4-1.4,3.8,1.4c0,0.4,0.6,0.3,0.7-0.1c0.2-0.8,0.6-1.1,1.4-0.8c1.1,0.4,0.4,0.8,0.2,1.4
	c-0.2,0.8,0.5,0.5,1,0.5c2.4-0.2,4.9-0.8,7,1c-0.1,0.9-1.4,1.3-1,2.4c-2.9-1-5.8-1.1-8.8-1c-1.2,0-2-0.5-3-1.2
	c-1.9-1.4,1.3-0.3,0.2-1.2C255.6,223.7,254.2,223.4,254.9,221.6z"/>
<path class="st12" d="M273.5,224.9c0.6-1.8,2.1-0.9,3.2-0.9c4.3,0.1,7.8-1.1,10.7-4.7c1.1-1.4,1.1-3.6,3.4-4.6
	c0.1,1.3-1.1,1.9-0.8,3c0.8,0.5,1.4-0.4,2-0.4c0.1,0.8-0.4,1.3-1.1,1.6c-1,0.5-0.7,1.2-0.3,2c0,0.2-0.1,0.3-0.1,0.5
	c-1.1-0.1-2.1,0.2-2.8,1.1c-1.5,1.8-4.2,1-5.7,2.8c0,0.1-0.3,0-0.5-0.1c-2.2-0.8-3.2-0.4-4.4,1.5c-0.2,0-0.4,0.1-0.6,0.1
	c-0.7,0.2-0.8-2.6-1.8-0.3c-0.2,0.4-0.8,0.9-1.2,0.6c-0.7-0.5,0.2-1.2,0.1-1.8l0,0c0.1-0.1,0.2-0.1,0.2-0.2
	C273.6,225.2,273.6,225.1,273.5,224.9z"/>
<path class="st12" d="M292,200c2.2,1.9,2,4.7,2.6,7.1c0,0.9-0.1,1.9-0.1,2.9c-1,0.8-0.4,1.4,0.3,2c0,0.5,0,1,0,1.5
	c-2.3-1.8-1.5,1.1-2.4,1.6c-0.5-2-1.1-4.1-1.5-6.1c-0.1-0.8-0.5-2.1,1-2.4c0.1,0,0.1,0.1,0.2,0.1c-0.1,0-0.1-0.1-0.2-0.1
	C291.5,204.3,292.3,202.2,292,200z"/>
<path class="st0" d="M277,226.9c1.3-2,2.2-2.3,4.4-1.5c0.1,0.1,0.4,0.1,0.5,0.1c1.5-1.8,4.2-1,5.7-2.8c0.8-0.9,1.7-1.3,2.8-1.1
	c-0.9,2.9-2.9,4.4-6,4.6c-1.3,0.1-2.6,1-3.9,1.3C279.4,227.6,278.1,228,277,226.9z M284.4,224.9c-0.1,0-0.3-0.1-0.4-0.1
	c-0.1,0.1-0.2,0.3-0.2,0.4c0.1,0,0.3,0.1,0.4,0.1C284.3,225.3,284.3,225.1,284.4,224.9z"/>
<path class="st9" d="M332,317.5c0.4,0.4,1,0.8,0.5,1.5c-1.4,1.7-3.3,1.7-5.3,1.8c-0.5,0-1.1-0.4-1.4-0.2c-2.4,1.9-4.4,0.9-6.3-0.7
	c2.6-0.8,5.3-0.7,8-1.4C329,318.2,330.4,317.1,332,317.5z"/>
<path class="st0" d="M273.5,225.5c0.1,0.6-0.8,1.2-0.1,1.8c0.4,0.3,1-0.1,1.2-0.6c1.1-2.3,1.2,0.5,1.8,0.3c-1.7,1.8-3.9,2-6.1,1.9
	c-1-0.1-2-0.2-2.3-1.5c-0.3-1.1,1-1.5,1-2.4c0.6-0.3,1.3-1,2-0.1C271.7,225.9,272.7,225.3,273.5,225.5z"/>
<path class="st7" d="M292.5,215c0.8-0.4,0-3.4,2.4-1.6c0.3,2.2,0,4.2-1.5,6c-0.8,0.9-2.2,0.4-2.8,1.6c-0.5-0.7-0.7-1.5,0.3-2
	c0.7-0.4,1.2-0.8,1.1-1.6C292.1,216.6,292.3,215.8,292.5,215z"/>
<path class="st4" d="M351.5,285c0.8,2,0.8,4,0,6C350.8,289,350.8,287,351.5,285z"/>
<path class="st7" d="M294.8,211.9c-0.7-0.6-1.2-1.2-0.3-2C295.7,210.5,295.8,211.1,294.8,211.9z"/>
<path class="st7" d="M246.5,220.1c0.7-0.1,1.4-0.1,1.6,0.8C247.3,221.1,246.7,220.9,246.5,220.1z"/>
<path class="st4" d="M350.5,280.5c0.2,0,0.3,0,0.5,0c0.1,0.5,0.8,1,0.1,1.5C350.4,281.6,350.5,281,350.5,280.5z"/>
<path class="st7" d="M251.5,221.4c0.4-0.5,0.7-0.4,1,0.1C252.1,221.9,251.8,221.9,251.5,221.4z"/>
<path class="st7" d="M249.1,221c0.6-0.1,1.1,0,1.5,0.4C249.9,221.6,249.4,221.5,249.1,221z"/>
<path class="st1" d="M74.7,196.1c1.2-0.4,2.6-0.7,3.7-1.3c4.6-2.3,8.8-1.5,12.8,1.3c1,0.7,1.9,1.7,1.8,3.1c-0.2,2.1-1,2.5-2.6,1.3
	c-1.5-1.1-3.7-1.1-4.6-3.2c-0.4,0.2-0.9,0.4-1.3,0.6c-2.2-0.1-4.4-0.3-6.5-0.4c-0.1-0.1-0.3-0.1-0.4-0.1
	C76.7,197,75.7,196.5,74.7,196.1z"/>
<path class="st1" d="M99,248.5c1.6,0.2,2,1.5,1.9,2.7c-0.1,3.8-1.4,7.4-2.9,10.8c-0.2-0.7-0.2-1.5-0.6-2.2c-1.8-3.4-2.5-6.5,1.1-9.3
	C99.2,250.1,99,249.2,99,248.5z"/>
<path class="st1" d="M65,188.1c3.4,1.1,6.8,2.2,9.8,4.2c0.6,0.4,1.5,0.8,1.3,1.6c-0.1,0.8-1.1,0.5-1.7,0.8c-0.4-0.1-0.9-0.2-1.4-0.3
	c-1.7-2.1-4.1-3.1-6.6-3.8c-2.5-1.2-5.4-0.6-8-1.5c-0.2-0.2-0.3-0.3-0.5-0.5c0.8-1.5,2.2-0.8,3.3-0.8
	C62.6,187.7,63.8,187.9,65,188.1z"/>
<path class="st1" d="M96,245c1.9,2.4,1.7,5.4-0.6,7.2c-0.4,0.3-0.8,0.8-1.2,0.3c-0.6-0.8-1.7-1.6-1.4-2.8c0.4-1.6,0.2-3.1,0.3-4.8
	c1.6,0.3,1.4,2.1,2.7,2.9C96.4,246.9,96,245.9,96,245L96,245z"/>
<path class="st1" d="M83.8,201.5c1.2-2.6,2.8-1.2,4.3-0.5c3.2,1.6,3.3,1.9,1.3,4.6c-1.3,0.7-1.9-0.7-2.9-0.9c-0.4-1-1.4-1.1-2.3-1.4
	C84.1,202.7,84,202.1,83.8,201.5z"/>
<path class="st1" d="M98.5,218.1c0.6,1.7,2.2,3.2,1,5.3c-1.4-1.8-2.6-3.8-4.8-5.3C96.2,218.1,97.4,218.1,98.5,218.1z"/>
<path class="st7" d="M66.5,190.5c2.5,0.7,4.9,1.7,6.6,3.8c-1.9,0.8-3.3-0.1-4.6-1.4c-0.7-0.4-1.3-0.8-2-1.2
	C66.6,191.4,66.5,191,66.5,190.5z"/>
<path class="st7" d="M84.3,203.3c0.9,0.3,1.9,0.4,2.3,1.4c-0.2,0.9,0.3,2.3-1.4,2.3c-1.4-0.1-2.9,0.2-3.2-1.8c2.1,0.1,2.1,0.1,2-0.9
	C84.1,203.9,84.2,203.6,84.3,203.3z"/>
<path class="st1" d="M66.6,191.8c0.7,0.4,1.3,0.8,2,1.2c-1.6,0-3.1-0.2-4.7,0.2c-1.6,0.5-1.7-0.9-2.4-1.9
	C63.5,190.7,65,191.6,66.6,191.8z"/>
<path class="st1" d="M92,248.7c-2.1-1.7-3.1-3.2-3.6-5.3C90.7,244.6,91.9,246.1,92,248.7z"/>
<path class="st1" d="M79.9,199.6c0.5,0.4,1,0.9,1.5,1.3c0.1,1.1-0.7,0.9-1.4,0.9c-0.6-0.6-1.3-0.4-2-0.4c-0.7-0.6-1.4-1.4-0.7-2.2
	C78.1,198.4,79.1,199.2,79.9,199.6z"/>
<path class="st1" d="M97.9,234.9c-0.1,0.2-0.2,0.3-0.3,0.5c-0.5-0.1-1,0-1.4-0.2c-0.8-0.4-2.1-0.5-2.2-1.7c0-0.6,0.8-0.4,1.2-0.4
	C96.4,233.1,98.1,232.6,97.9,234.9z"/>
<path class="st7" d="M93.8,228.5c1.3,0.9,1.7,2.5,3.2,2.8c0.2,0,0.2,0.5,0.3,0.8c-0.3,0.1-0.6,0.2-0.9,0.2
	C93.6,232.2,93.3,231.8,93.8,228.5z"/>
<path class="st7" d="M95,227.7c-0.9-1.6-1.9-3.3-2.8-4.9c-0.1-0.2-0.1-0.7,0.1-0.9c0.4-0.4,0.8,0,1,0.3
	C94.2,223.9,95.4,225.5,95,227.7z"/>
<path class="st7" d="M88.2,230.6c0.8,0.6,2.3,0.4,2.4,2c0,0.4-0.2,0.8-0.8,0.7c-1.2-0.3-2.1-1.1-2.5-2.1
	C87.1,230.7,87.6,230.5,88.2,230.6z"/>
<path class="st1" d="M84,204.3c0.1,1,0.1,1-2,0.9c-0.6-0.3-2,0.2-1.7-1.1c0.2-0.9,1.3-0.7,2.1-0.4C83,203.9,83.5,204.1,84,204.3z"/>
<path class="st1" d="M83.6,210.4c-0.7,0.1-1.4-0.1-2-0.5c-0.1-0.2-0.3-0.4-0.4-0.6c-0.3-0.5-1-1.3,0.3-1.2c1.2,0.1,2.6,0.5,2.4,2.3
	C83.8,210.4,83.7,210.4,83.6,210.4z"/>
<path class="st1" d="M88,209.4c0.3,0,0.7,0.1,1,0.1c0.7,0.1,1.2,0.4,1.1,1c-0.1,0.6-0.8,0.3-1.3,0.3c-0.5,0-1,0-1.5,0
	C86.8,210.1,87.1,209.6,88,209.4z"/>
<path class="st7" d="M74.7,201.9c-0.8-0.1-1.2-0.8-1.3-1.6c0-0.2,0.4-0.7,0.6-0.6c0.8,0,1.3,0.6,1.5,1.4
	C75.5,201.6,75.2,201.9,74.7,201.9z"/>
<path class="st7" d="M78.1,201.5c0.7,0,1.4-0.2,2,0.4c0,0.7-0.4,1.2-1.2,1.1C78,202.8,78.1,202.1,78.1,201.5z"/>
<path class="st7" d="M56.4,190.5c-0.6-0.8,0.1-0.9,0.6-1.2C57,189.9,56.9,190.3,56.4,190.5z"/>
<path class="st7" d="M83.6,210.4c0.1,0,0.2,0,0.3,0c0.3,0.1,0.6,0.3,0.4,0.7c0,0.1-0.4,0.1-0.4,0.1C83.8,211,83.7,210.7,83.6,210.4z
	"/>
<path class="st1" d="M96,245c-0.1-0.1-0.2-0.2-0.3-0.3c0,0,0-0.1,0.1-0.2C95.9,244.7,96,244.8,96,245C96,245,96,245,96,245z"/>
<path class="st7" d="M81.2,209.4c0.1,0.2,0.3,0.4,0.4,0.6C81.3,209.9,81.2,209.7,81.2,209.4z"/>
<path class="st7" d="M77.6,197.4c0.1,0,0.3,0.1,0.4,0.1C77.8,197.9,77.7,197.8,77.6,197.4z"/>
<path class="st7" d="M58,188.5c0.2,0.2,0.3,0.3,0.5,0.5C58.4,188.8,58.2,188.7,58,188.5z"/>
<path class="st0" d="M273.5,224.9c0,0.1,0.1,0.3,0.1,0.4c0,0-0.1,0.1-0.2,0.2C273.5,225.3,273.5,225.1,273.5,224.9z"/>
<path class="st4" d="M45.2,186.5c1.1-0.3,2.1-0.6,3.3-0.4c0,0.2,0,0.3-0.1,0.5c-0.3,0.2-0.8,0.5-0.4,0.9c0.3,0.3,0.8,0.1,1-0.3
	c0.3-0.1,0.6-0.2,0.9-0.3c1-0.4,2.3-0.8,2.7,0.3c0.4,1.2-1.1,1.1-1.8,1.4C47.6,190.1,45.6,189.4,45.2,186.5z"/>
<path class="st9" d="M40.5,190.4c-1.7,1.4-2.8-0.6-4.2-0.8c0,0-0.1-0.4,0-0.6c0.4-1.1,4-2.4,5.1-1.8c0.9,0.5,0.3,1.1,0.2,1.7
	C40.8,189,40.4,189.6,40.5,190.4z"/>
<path class="st4" d="M40.5,190.4c-0.1-0.9,0.3-1.4,1.2-1.6c0.4-0.3,0.8-0.6,1.2-0.9c0.8-0.5,1.2,0.3,1.5,0.8
	c0.6,0.9-0.4,0.9-0.8,1.1C42.7,190.4,41.6,190.5,40.5,190.4z"/>
<path class="st9" d="M50.8,191.8c-0.4,0.5-0.7,1.2-1.5,1.1c-0.6-0.1-1.1-0.7-1-1.2c0.1-1,1-0.5,1.6-0.6
	C50.3,191,51,190.9,50.8,191.8z"/>
<path class="st4" d="M56,192.9c-1.2,0.4-2,1.4-3.2,0.9c-0.5-0.2-0.3-0.7,0-1C53.7,192,54.7,191.9,56,192.9z"/>
<path class="st6" d="M49,187.1c-0.3,0.4-0.8,0.6-1,0.3c-0.5-0.4,0.1-0.7,0.4-0.9C48.6,186.7,48.8,186.9,49,187.1z"/>
<path class="st15" d="M195.5,26.5c1,1.5-0.2,2-1.1,2.7c-0.3,0.2-0.8,0.1-0.8-0.2C193.7,27.8,194.3,26.9,195.5,26.5
	C195.5,26.5,195.5,26.5,195.5,26.5z"/>
<path class="st1" d="M187.5,30.1c-0.8-0.1-1.1-0.6-0.9-1.4c0-0.2,0.4-0.4,0.5-0.4C187.9,28.7,187.4,29.4,187.5,30.1
	C187.6,30,187.5,30.1,187.5,30.1z"/>
<polygon class="st0" points="609.7,30.4 609.7,30.3 609.8,30.3 "/>
<path class="st1" d="M95,208.6c0,0.9-0.6,1.3-1.4,1.4c-0.9,0-3.4-2.4-3.2-3.1c0.3-0.9,0.9-1.8,1.9-2.1C92.9,204.5,95,207.7,95,208.6
	z"/>
<path class="st12" d="M92.2,211.8c-0.1,0-0.1,0.1-0.2,0.1c0-0.1,0-0.2-0.1-0.3c0.1,0,0.2,0,0.2,0C92.2,211.7,92.2,211.8,92.2,211.8z
	"/>
<path class="st5" d="M292,206.5c0.1,0,0.1,0.1,0.2,0.1C292.2,206.6,292.1,206.5,292,206.5C292,206.5,292,206.5,292,206.5z"/>
<path class="st12" d="M284.4,224.9c-0.1,0.1-0.1,0.3-0.2,0.4c-0.1,0.1-0.3-0.1-0.4-0.1c0.1-0.1,0.1-0.3,0.2-0.4
	C284.1,224.8,284.3,224.9,284.4,224.9z"/>
<rect x="135" y="171.6" class="st16" width="569.5" height="68.5"/>
<text transform="matrix(1 0 0 1 135.0245 235.872)" class="st17 st18 st19">Enter Gallery</text>
</svg>
