<?xml version="1.0" encoding="utf-8"?>
<!-- Generator: Adobe Illustrator 24.2.1, SVG Export Plug-In . SVG Version: 6.00 Build 0)  -->
<svg version="1.1" id="Layer_1" xmlns="http://www.w3.org/2000/svg" xmlns:xlink="http://www.w3.org/1999/xlink" x="0px" y="0px"
	 viewBox="0 0 814 408" style="enable-background:new 0 0 814 408;" xml:space="preserve">
<style type="text/css">
	.st0{fill:#D7817C;}
	.st1{fill:#94B9D4;}
	.st2{fill:#C6E3EA;}
	.st3{fill:#4C6E8C;}
	.st4{fill:#E2DBD7;}
	.st5{fill:#3B546C;}
	.st6{fill:#EAB0A9;}
	.st7{fill:#7D8687;}
	.st8{fill:#D4CDCB;}
	.st9{fill:#EEE7E5;}
	.st10{fill:#8A4A47;}
	.st11{fill:#915355;}
	.st12{fill:#7C6068;}
	.st13{fill:#A55F60;}
	.st14{fill:#7A5757;}
	.st15{fill:#FEFEFE;}
</style>
<path class="st0" d="M614.89,29.82c0.41,0.06,0.82,0.11,1.23,0.17c0.15,0.82-0.6,2.09,0.6,2.36c0.95,0.22,1.43-0.94,1.92-1.7
	c0.26-0.11,0.53-0.22,0.79-0.32c0.53,0.02,1.07,0.04,1.6,0.06c0,0,0.09,0.08,0.09,0.09c0.06,0.98,0.81,2.21,1.45,1.53
	c1.43-1.52,0.98,0.12,1.1,0.5c0.66,2-0.91,4.04,0.11,6.1c0.22,0.45-0.39,1.56,0.54,1.55c0.9-0.01,0.46-1.05,0.5-1.64
	c0.07-0.91,0-1.83,0.06-2.74c0.12-1.68,0.55-3.27,1.67-4.97c1.2,2.6-0.23,4.66-0.33,6.79c-0.03,0.33-0.06,0.67-0.1,1
	c-0.9,0.83-0.54,1.42,0.36,1.9c0.55,0.56,0.98,1.48,1.93,0.41c0.31-0.35,0.82-0.61,1.29-0.72c2.46-0.59,3.38-1.82,1.69-4.14
	c0.85-0.44,1.4,1.26,1.97,0.16c0.42-0.81-0.54-0.95-1.05-1.34c-1.49-1.13-0.68-2.75-0.59-4.12c0.13-1.97,1.79-3.71,0.91-5.91
	c-0.14-0.36,0.24-1.28,0.98-1.2c1.89,0.21,3.79,0.51,5.46,1.48c0.47,0.27,0.2,1.18-0.12,1.32c-2.18,0.93-1.28,2.71-0.9,3.99
	c0.39,1.32-0.5,2.44-0.07,3.64c-0.08,0.06-0.17,0.12-0.25,0.18c0.05,0,0.14,0.01,0.16-0.01c0.04-0.05,0.05-0.13,0.06-0.2
	c2.97,1.7,4.38,0.99,5.63-2.31c0.53-1.41,1.77-2.54,1.57-4.26c-0.02-0.2,0.4-0.45,0.61-0.68c1.04,1.56,3.86-0.34,4.39,2.25
	c0.07,0.34,0.37,0.62,0.74,0.43c3.12-1.63,5.36,1.23,8.08,1.59c-1.62,2.74-1.18,6.12-2.78,8.89c-0.28,0.48-0.54,1.53,0.13,1.77
	c0.76,0.26,1.75,0.11,2.57-0.13c0.59-0.18,0.64-0.95,0.43-1.52c-0.64-1.74,0.62-3.37,0.07-5.13c2.97,0.82,2.23-1.37,2.48-2.73
	c20.37,7.98,38.72,19.28,55.12,33.72c18.42,16.21,33,35.39,43.96,57.33c1.11,2.22,2.38,4.38,2.96,6.83
	c-2.42-1.15-4.58-2.59-6.16-4.85c-2.21-3.15-4.71-5.53-8.83-6.63c-6.9-1.85-12.78-1.36-17.56,4.33c-1.64,1.95-3.59,2.06-5.83,1.54
	c-2.9-0.68-5.8-1.26-8.79-1.58c-9.19-0.98-16.83,1.88-23.02,8.67c-2.67,2.93-2.96,6.01-0.82,9.31c1.52,2.34,1.17,4.4-0.46,6.4
	c-1.21,1.49-2.57,2.79-4.58,3.25c-1.69,0.38-3.44,0.74-4.99,1.47c-4.54,2.15-7.7,5.84-10.64,9.81c-2.49,3.36-2.17,6.78-0.94,10.38
	c0.37,1.08,1.98,1.95,1.35,3.01c-0.59,1-2.27,0.75-3.44,1.16c-0.23,0.08-0.49,0.15-0.73,0.14c-2.24-0.16-3.22,0.73-2.57,3.02
	c-0.99,1.1-1.94,2.25-2.99,3.28c-2.09,2.05-2.72,4.52-2.17,7.29c1.03,5.14-0.08,9.21-4.81,12.22c-4.24,2.7-4.61,4.68-2.74,9.24
	c1.26,3.08,1.13,5.89-1.03,8.65c-2.31,2.96-3.86,6.33-4.54,10.09c-1.02,5.61,2.28,10.24,7.84,10.8c0.3,0.64,1.06,1.05,0.97,1.89
	c-2.99,5.69-5.12,11.7-6.39,17.99c-0.91,4.55-0.73,8.97,1.51,13.31c1.96,3.79,2,7.69-1.64,10.83c-0.44,0.38-0.88,0.75-1.29,1.15
	c-3.05,2.93-6.66,5.27-8.99,8.93c-2.3,3.62-2.13,4.58,1.44,7.08c0.54,0.38,1.05,0.81,1.58,1.21c1.75,1.31,1.58,2.78,0.29,4.26
	c-0.65,0.75-1.35,1.5-2.15,2.07c-3.21,2.29-3.35,6.05-0.24,8.43c0.58,0.45,1.37,0.65,1.65,1.51c-0.96,0.75-2.16,1.19-2.96,2.19
	c-1.44,1.81-1.07,6.17,0.76,6.36c4.37,0.46,4.22,3.33,4.58,6.59c1.13,9.99,6.12,13.92,16.82,12.6c4.41-0.54,8.69-2.14,13.04-3.23
	c2.26-0.57,3.73,0.17,4.72,2.44c3.08,7.1,5.02,14.59,7.81,21.78c-6.4,4.26-13.38,7.39-20.39,10.43c-8.87,3.84-18.02,6.92-27.4,9.26
	c-0.63,0.16-1.25,0.5-2.21-0.01c2.87-4.81,3.24-9.93,1.57-15.25c-1.3-4.15-3.19-8.02-5.16-11.88c-3.26-6.39-7.3-12.31-10.76-18.56
	c-1.6-2.88-2.48-5.99-2.52-9.29c-0.02-1.79-0.37-3.47-1.08-5.08c-1.04-2.38-2.89-3.58-5.47-3.62c-1.67-0.03-3.32,0.05-4.95,0.48
	c-8.51,2.24-17.31,3.19-25.69,6c-0.31-0.01-0.63-0.01-0.94-0.01c-1.88-3.23-4.57-5.86-6.69-8.92c-4.88-7.01-9.92-13.9-15.69-20.25
	c-6.98-7.68-11.21-16.63-11.09-27.26c0.08-7.1,1.1-14.06,3.37-20.79c1.13-3.36,1.54-7.09,3.99-9.86c4.49-5.07,10.18-5.96,16.59-4.66
	c5.1,1.04,10.12,2.61,15.46,2.36c6.28-0.29,11.3-4.5,12.04-10.68c0.52-4.39,2.63-7.52,6.37-9.82c3.13-1.93,3.44-4.38,1.23-7.36
	c-0.51-0.69-1.16-1.27-1.81-1.97c2.07-0.54,4.09-0.9,5.35-2.68c0.93-1.31,1.43-2.68,0.05-4.04c-3.01-2.96-3.06-6.44,0.01-9.44
	c2.08-2.03,4.37-3.85,6.4-5.92c2.55-2.6,2.58-5.68,0.26-8.5c-0.58-0.71-1.25-1.34-1.91-1.97c-4.17-3.96-8.01-8.2-10.76-13.3
	c-4.01-7.44-5.53-15.41-5.21-23.81c0.35-9.5-0.98-18.72-5.14-27.39c-0.38-0.79-0.59-1.59,0.11-2.31c2.26-2.32,1.47-4.63,0.12-7.04
	c-3.69-6.58-9.7-10.89-15.4-15.41c-7.43-5.9-15.53-10.83-23.78-15.51c0.55-0.84,0.13-2.38,1.83-2.38c1.46,0,2.77,0.17,3.39,1.75
	c0.36,0.91,0.82,0.91,1.36,0.13c0.52,0.02,1.04,0.04,1.57,0.06c1.04,0.75,2.37,0.54,3.49,1.02c0.25,0.08,0.49,0.16,0.74,0.24
	c0.78,1.53,2.76,1.86,3.41,1.16c0.78-0.84,2.72-2.95-0.38-4c-0.5-0.17-0.45-0.79-0.2-1.3c0.93-1.91-0.45-2.68-1.77-3.41
	c-1.51-0.84-3.05-1.5-4.3,0.44c-0.68,0.01-1.36,0.03-2.04,0.04c-1.32-1.53-3.47-1.41-4.99-2.55c0.02-0.5,0.03-0.99,0.05-1.49
	c1.64-0.91,3.28-1.82,4.92-2.72c0.23,0.04,0.45,0.08,0.68,0.12c1.32,1.42,4.7,1.03,5-0.67c0.11-0.61,0.44-2.14-1.34-1.9
	c-0.93,0.13-2.02-0.27-2.2-1.21c-0.25-1.33-1.28-2.08-1.78-3.15c-0.77-1.65-2.25-3.55,0.62-4.95c0.82-0.4,0.64-1.28-0.46-1.51
	c0,0-0.03-0.02-0.03-0.02c-0.54-2.63,2.03-3.53,3.28-4.65c1.18-1.06,0.37,1.58,1.24,2.09c0.14,0.08,0.27,0.24,0.41,0.25
	c2.02,0.06,1.2,1.29,0.83,2.18c-0.66,1.6,0.3,4.6,1.8,5.22c0.38,0.16,1.01,0.63,1.06-0.28c0.09-1.52,3.2-2.43,0.85-4.46
	c-0.36-0.31,0.32-0.4,0.58-0.46c0.44-0.1,1-0.4,0.61-0.75c-1.27-1.14-1.03-3.17-2.72-4.21c-0.48-0.3-3.51-1.73-1.21-3.16
	c1.5-0.93,0.82-1.78,1-2.71c0.38,0.02,0.76,0.04,1.14,0.06c0.42,0.68,0.98,0.96,1.75,0.61c0.17,0.07,0.35,0.15,0.52,0.22
	c-0.2,1.84,0.65,2.8,2.48,2.93c0,0,0.07,0.04,0.06,0.04c-0.06,0.61,0.12,1.08,0.77,1.25c0.17,0.12,0.34,0.24,0.51,0.36
	c0.46,1.62-1.99,3.88,1.08,4.95c0.41,0.15,0.64,0.9,1.2,0.57c0.42-0.25,0.62-0.78,0.54-1.31c-0.25-1.73,0.15-3.19,1.47-4.43
	c1.16-1.09,0.39-2.03-0.42-2.91c0.23-0.06,0.46-0.12,0.69-0.18c1.28-1.09,3.61,1.73,4.4-1.18c0.38,0.13,0.75,0.26,1.13,0.38
	c0.6,0.19,0.69,1.2,1.55,0.96c0,0,0.06,0.03,0.06,0.03c0.14,0.1,0.29,0.2,0.43,0.3c0.17,0.24,0.34,0.48,0.52,0.71
	c0.16,1-1.58,2.3,0.47,3c0,0,0.01,0,0.01,0c0.5,1.75,1.01,3.5,1.58,5.49c1.6-1.98,1.51-4.29,2.44-6.24
	c0.89-1.86,2.33-4.23,0.67-6.75c-0.16-0.24-1.96-2.71,0.21-3.36c1.55-0.47,3.36-1.62,5.02-0.02c0.03,0.14,0.09,0.26,0.18,0.37
	c-0.05,1.09-1.17,2.32,0.38,3.29c1.03-2.24,4.12-3.17,3.55-6.2c0,0-0.01,0.01-0.01,0.01c2.63-0.87,1.65,1.61,2.16,2.48
	c1.12,0.3,0.69-1.88,1.99-0.96C611.72,33.08,613.75,32.38,614.89,29.82z M612.68,48.76c0.17-1.57-1.2-1.14-2-1.45
	c-0.64-0.25-1.68-0.03-1.46,0.74c0.81,2.87,0.46,6.1,2.61,8.55c0.39,0.45,0.58,1.59,1.33,1.03c0.81-0.61,1.36-1.86,0.78-2.83
	C612.8,52.88,612.59,50.88,612.68,48.76z"/>
<path class="st1" d="M53.21,174.45c-0.05-0.48-0.11-0.96-0.16-1.45c-0.02-2.15-0.51-4.19-1.51-6.1c-0.84-1.6-1.96-2.74-3.99-1.9
	c-0.11-2.49-1.91-4.5-2-7c1.1-0.01,2.41-0.38,1.74-1.61c-1-1.84-1.25-4.14-3.13-5.47c-0.04-0.31-0.08-0.61-0.12-0.92
	c0.75-1.05,0.92-2.23,0.96-3.49c0.09-2.57-2.03-4.48-2.03-7.01c3-8.31,6.83-16.24,11.09-23.95C63.1,99.23,74.36,84.55,87.81,71.6
	c12.71-12.23,26.86-22.52,42.49-30.75c14.42-7.59,29.53-13.32,45.43-16.92c2.72-0.62,5.44-1.49,8.3-1.37
	c0.04,0.07,0.11,0.15,0.1,0.22c-0.01,0.07-0.1,0.19-0.14,0.19c-2.06-0.3-1.39,1.76-1.95,2.59c-1.2,1.8,0.48,4.23,2.73,4.48
	c0.39,0.04,0.81-0.03,1.07,0.41c0.26,0.42-0.83,1.48,0.56,1.31c0.88-0.11,1.15-0.83,1.06-1.67l0.09-0.09c2-0.28,2.43,1.33,2.98,2.63
	c0.71,1.68,1.71,2.05,2.9,0.66c0.94-1.1,1.57-0.83,1.97,0.23c0.46,1.22,0.91,0.75,1.63,0.32c0.56-0.34,1.07-0.99,2.11-0.83
	c-0.99,1.91,0.75,3.14,0.92,4.79c0.1,0.99,1.18,0.95,1.96,0.24c0.57,0.07,1.19-0.07,1.63,0.45c-0.62,1.14-2.24,0.01-3.23,1.54
	c1.75-0.44,3.03,0.77,4.33-0.37c0.34,1.07-0.03,2.81,0.26,2.65c1.97-1.09,2.59,2.04,4.46,0.82c-0.43,1.32-1.68,0.87-2.05,1.7
	c0.57,0.67,1.15,1.35,1.73,2.02c-0.71,0.57-1.78,0.4-2.36,1.23c1.88,0.6,1.86,0.62,3.97,3.12c0.21,0.25,0.74,0.31,1.13,0.33
	c1,0.07,2,0.07,3,0.09c0.19,0.16,0.38,0.32,0.58,0.47c0.01,0.15,0.02,0.3,0.05,0.45c-0.32,0.01-0.65,0.02-0.97,0.03
	c-1.09,0-1.5,1.45-1.33,1.5c2,0.54,1.11,2.38,1.71,3.49c0.23,0.35,1.39,0.22,0.79,0.9c-1.11,1.25-1.27,2.71,0.05,4.31
	c-2.27,0.05-2.86,1.62-3.26,3.36c-0.16,0.14-0.33,0.27-0.49,0.41c-0.33-0.01-0.68-0.07-0.99-0.01c-12.29,2.4-23.12,7.94-32.57,15.97
	c-7.78,6.62-12.23,15.64-16.2,24.88c-4.99,11.63-4.55,23.11,0.46,34.6c2.56,5.87,5.16,11.74,7.36,17.75
	c3.45,9.43,4.95,19.05,2.57,29.11c-2.43,10.29-5.44,20.39-8.42,30.52c-1.89,6.41-4.9,12.15-8.68,17.57
	c-1.09,1.57-2.39,3.02-3.3,4.69c-3.23,5.92-6.29,11.93-9.51,17.85c-5.05,9.28-10.07,18.54-13.42,28.65
	c-6.66,20.1-6.97,40.68-5.52,61.47c0.45,6.46,0.79,12.94,1.18,19.4c-4.41-1.96-8.31-4.77-12.28-7.44
	c-7.57-5.09-14.74-10.69-21.38-16.96c-0.66-0.62-1.23-1.33-1.85-1.99c1.91-2.31,3.19-4.88,2.94-7.96c-0.21-2.67,0.89-4.36,3.28-5.53
	c2.41-1.18,2.49-4.07,0.34-5.61c-1.07-0.76-3.25-0.99-2.76-2.64c0.47-1.61,2.48-0.76,3.8-0.83c3.39-0.17,4.6-2.19,2.84-5.16
	c-0.68-1.16-1.19-2.37-1.68-3.59c-0.42-1.04-0.16-1.76,1.06-1.99c0.65-0.13,1.27-0.38,1.89-0.6c2.95-1.07,3.87-3.43,2.18-6.08
	c-1.06-1.67-2.33-3.23-3.67-4.69c-3.76-4.1-5.7-8.66-4.25-14.32c0.78-3.05,1.35-6.15,2.02-9.22c0.06-0.02,0.13-0.05,0.19-0.07
	c-0.05-0.1-0.11-0.19-0.16-0.29c0.61-2.45,0.59-4.95,0.59-7.45c1.43-0.15,1.11,1.94,2.44,1.91c0.05,0.04,0.1,0.07,0.14,0.11
	c-0.05-0.03-0.1-0.06-0.16-0.1c-1.6-3.55-1.27-7.05,0.19-10.57c0.83-1.99,1.41-4.07,1.3-6.27c-0.03-0.64-0.19-1.52,0.69-1.64
	c1.68-0.23,0.94-1.28,0.7-1.99c-0.97-2.82-2.1-5.58-4.3-7.73c-0.36-0.35-0.72-0.82-0.44-1.32c0.37-0.65,0.8-0.04,1.24,0.04
	c1.09,0.18,0.54-0.61,0.53-1.06c-0.88-2.56-1.12-5.18-0.79-7.86c0.28,0,0.55-0.01,0.83-0.01c2.17,3.66,1.81,7.91,2.73,11.86
	c0.15,1.28,0.11,2.6,0.92,4.26c0.56-1.74,0.44-2.99,0.29-4.25c-0.03-0.96-0.06-1.92-0.09-2.89c0.11-1.04,0.55-2.13-0.4-3.03
	c-0.11-0.68-0.23-1.35-0.34-2.03c0.37-1.12,0.01-2.08-0.65-2.98c-0.11-2.33-2.05-4.11-1.96-6.5c0.07-0.55,0.13-1.1,0.24-1.96
	c2.68,3.62,2.98,7.81,4.19,11.88c0.89-0.99,0.69-1.9,0.51-2.61c-1.11-4.15-1.96-8.43-4.7-11.93c-1.16-1.48-1.43-2.54,0.61-3.66
	c1.81-0.99,2.92-2.74,2.89-5.82c-2.17,3.15-4.18,5.46-7.71,5.14l-0.03-0.02c0.06-0.53,0.25-0.9,0.8-1.12
	c2.23-0.89,3.77-2.63,5.25-4.42c0.04-0.06,0.07-0.12,0.11-0.17c-0.03,0.06-0.06,0.13-0.09,0.19c-1.12,0.19-2.24,0.44-3.37,0.55
	c-2.32,0.22-2.68-0.23-2.14-2.56c0.06-0.02,0.12-0.04,0.17-0.08c0.03-0.02,0.02-0.08,0.04-0.12c-0.07,0.07-0.13,0.14-0.2,0.21
	c-1.63-0.51-4.32-4.8-4.02-6.41c0.07-0.4,0.06-0.9,0.61-0.9c0.46,0,0.77,0.39,0.82,0.8c0.16,1.29,0.4,2.53,1.43,3.63
	c-0.78-6.48-3.14-12.31-14.46-12.78c-0.14-0.97,1.3-1.54,0.7-2.68c-1.1,0.25-1.58,1.22-2.27,1.88c-1.54,1.45-2.72,1.84-4.59,0.12
	c-2.95-2.73-6.52-4.52-10.7-4.67c-3.37,0.33-5.98-2.19-9.2-2.41c-0.53-2.89-0.61-5.88-2.09-8.53
	C53.58,175.51,53.39,174.98,53.21,174.45z M212.98,58.57c-0.25-1.07-1.31-1.04-2.12-1.33c-0.49-0.18-0.89,0.16-0.75,0.62
	c0.31,1,1.35,1.12,2.14,1.47C212.75,59.54,212.98,59.14,212.98,58.57z"/>
<path class="st2" d="M581.99,330.91c0.31,0.01,0.63,0.01,0.94,0.02c1.33,3.02,3.81,5.2,5.94,7.56c6.56,7.26,13.24,14.41,19.34,22.06
	c5.04,6.32,8.78,13.27,8.3,21.79c-0.14,2.57-0.16,5.17,0.03,7.74c0.14,1.88-0.71,2.54-2.33,2.73c-1.81,0.21-3.61,0.51-5.43,0.62
	c-3.89,0.23-7.79,0.52-11.69,0.52c-40.14,0.05-80.27,0.04-120.41,0.05c-0.42,0-0.83-0.04-1.25-0.07c1.79-5.88,3.59-11.77,5.38-17.65
	c2.68-8.82,5.68-17.55,7.66-26.57c2.64-12,4.52-24.1,5.21-36.41c0.66-11.85,0.1-23.59-1.5-35.3c-1.71-12.49-5.21-24.69-5.89-37.37
	c-0.6-11.24-0.72-22.46,0.39-33.65c1.49-14.94,4.46-29.69,5.94-44.65c1.09-11.05,0.09-21.75-4.02-32.01
	c-6.25-15.59-14.71-29.98-25.06-43.18c-3.99-5.09-8.88-9.44-15.14-11.9c-8.34-3.28-16.98-5.18-25.92-5.73
	c-0.09-5.02,2.44-8.9,5.73-12.27c1.53-1.57,2.33-3.35,3.07-5.26c3.7-9.68,10.53-16.5,19.53-21.32c6.24-3.34,12.66-6.2,19.72-7.35
	c9.35-1.53,18.65-2.52,27.94,0.66c10.26,3.52,15.47,10.66,16.61,21.31c0.65,6.12-0.62,12.02-1.21,18c-0.16,1.59,0.16,2.02,1.56,1.76
	c5.71-1.05,11.42-0.31,17.12,0.06c3.69,0.24,7.04,1.81,10.4,3.22c3.2,1.35,6.34,2.85,9.5,4.29c0.02,0.31,0.04,0.62,0.05,0.93
	c-1.71,1.48-2.4,3.85-4.51,5.01c-0.91,0.49-1.07,4.17-0.64,4.03c1.87-0.61,1.95,1.63,3.33,1.7c-0.72,0.67-2.07,0.3-2.16,1.55
	c-0.1,1.28,1.06,1.36,1.86,1.65c1.07,0.37,0.54,1.22,0.72,1.85c0.16,0.56-0.16,0.67-0.61,0.8c-2.75,0.82-3.94,2.65-3.77,5.71
	c1.37-0.72,1.43-0.74,1.84,0.57c0.39,1.24,1.57,1.2,1.83,0.54c0.75-1.9,2.73-1.16,3.88-2.18c0.87-0.77,1.91,0.09,2.52,0.76
	c0.65,0.72,0.33,1.26-0.66,1.78c-0.94,0.5-1.56,1.61-2.42,2.57c1.84,0.03,3.5,0.59,2.79,2.52c-0.7,1.9-2.88,2.97-4.71,2.82
	c-1.33-0.11-2.53-2.27-3.87,0.08c-4.36-0.89-2.36,1.04-1.11,2.56c0.37,0.44,0.29,0.86,0.37,1.34c0.19,1.17,1.58,1.93,2.16,1.55
	c1.87-1.22,3.51,0.35,5.11-0.04c-0.68,4.21-3.39,6.49-8.27,7.58c1.95,0.71,3.21,1.23,1.16,2.07c-1.22,0.5-1.18,1.35-0.1,2
	c1.44,0.85,1.08,1.73,0.34,2.86c-3.55,5.37-6.47,11.07-8.73,17.1c-5.07,13.55-8.04,27.18-1.36,41.16c1.81,3.79,0.88,7.28-1.78,10.42
	c-5.59,6.6-11.15,13.24-16.74,19.85c-3.87,4.58-7.92,9.01-10.02,14.8c-2.03,5.61-0.75,10.57,3.86,14.34
	c1.42,1.16,2.93,2.19,4.39,3.3c1.33,1.02,2.56,2.13,3.3,3.69c1.33,2.79,0.64,4.55-2.18,5.74c-1.43,0.6-2.43,1.71-3.18,3.06
	c-3.06,5.54-1.22,12.14,4.4,15.27c1.52,0.85,1.8,1.42,0.5,2.68c-1.5,1.46-2.66,3.21-3.41,5.18c-1.96,5.07,1.27,11.59,6.16,12.5
	c6.03,1.12,9.91,5.14,10.8,11.3c0.45,3.13,0.52,6.32,1.16,9.41c1.91,9.07,8.36,13.89,16.54,16.78
	C561.59,335.41,571.83,333.76,581.99,330.91z"/>
<path class="st3" d="M212.02,66.54c0.16-0.14,0.33-0.27,0.49-0.41c11.33-1.48,22.36,0.47,33.38,2.78
	c11.85,2.49,20.09,9.74,26.84,19.3c8.78,12.44,12.33,26.57,13.87,41.4c0.16,1.54-0.17,3.03-0.89,4.35
	c-2.38,4.35-1.41,8.17,1.19,12.12c3.2,4.85,6.26,9.81,8.52,15.2c0.42,0.99,0.69,2.05,0.87,3.11c0.5,2.96-0.47,4.56-3.3,5.59
	c-0.47,0.17-0.94,0.33-1.42,0.46c-1.2,0.33-2.64,0.44-3.37,1.44c-0.88,1.2,0.83,1.95,1.04,3.05c0.39,2.12,0.92,4.03-1.05,5.94
	c-1.14,1.1-1.28,3.17-3.03,4.02c-0.5,0.24-0.17,0.73,0.11,1.04c0.78,0.89,0.75,1.94,0.14,2.77c-0.67,0.93-0.37,1.5,0.27,2.15
	c0.22,0.22,0.61,0.66,0.57,0.7c-2.82,3.22,1.72,2.49,2.13,3.97c0.02,0.07,0.11,0.12,0.17,0.17c0.03,0.37,0.17,0.64,0.58,0.66
	c0.53,0.07,1.05,0.15,0.93,0.9c-0.02,0.25-0.05,0.5-0.07,0.75c-3.87-0.6-7.78-0.58-11.68-0.53c-3.13,0.04-6.09,0.6-8.44,2.88
	c-0.52,0.51-1.17,0.53-1.83,0.65c-4.32,0.84-8.87,1.41-12.6,3.66c-5.25,3.17-10.64,5.05-16.76,5.38c-5.31,0.28-7.52,4.38-5.3,9.23
	c0.71,1.56,0.75,3.1-0.08,4.53c-2.56,4.38-4.61,8.87-5.63,13.94c-0.76,3.77-1.43,7.36-0.79,11.21c0.45,2.72,1.48,5.57-0.34,8.21
	c-1.49,2.18-2.94,4.41-4.3,6.65c-1.51,2.49-4.07,4.13-5.01,7.06c-0.96,2.99-0.09,5.2,2.9,6.12c3.11,0.95,3.36,1.67,1.63,4.56
	c-1.58,2.62-1.11,4.3,1.55,5.56c2.49,1.18,2.64,1.65,0.85,3.93c-1.18,1.51-1.52,2.85-0.17,4.44c1.32,1.55,1.2,3.14,0.42,5.07
	c-0.79,1.96-0.99,4.14,0.86,5.99c2.51,2.51,5.66,3.16,8.98,3.43c4.62,0.37,9.28,0.46,13.86,1.13c2.77,0.4,5.14,1.81,6.84,4.48
	c1.51,2.37,2.18,4.99,3.32,7.46c2.25,4.86,4.45,9.72,5.59,15.04c1.25,5.78,1.32,11.49-0.06,17.18c-1.59,6.56-4.56,12.63-7.25,18.78
	c-2.88,6.59-5.74,13.19-8.53,19.83c-22.11,0.03-44.27,1.2-66.14-3.43c-0.97-0.21-1.94-0.45-2.91-0.67
	c-1.3-7.22-4.44-13.86-6.91-20.66c-3.28-9.02-6.53-18.09-10.17-27c-3.22-7.88-6.88-15.34-13.19-21.36
	c-3.49-3.33-5.1-7.63-3.83-12.73c0.78-3.13,1.61-6.14,2.99-9.1c2.43-5.18,5.02-10.27,8.14-15.03c3.33-5.08,5.64-10.21,5.62-16.49
	c-0.02-5.8,3.58-11.39,9.7-12.38c2.61-0.42,5.24-0.77,7.87-1.03c5.52-0.56,11.15-0.54,16.53-1.69c6.02-1.28,12.19-1.97,18.03-4.26
	c6.4-2.51,9.61-7.08,9.24-12.81c-0.23-3.51-1.99-6.43-3.8-9.31c-1.03-1.63-1.2-3.36,0.04-4.82c1.22-1.45,2.37-2.93,3.49-4.46
	c3.49-4.76,3.03-9.08-1.62-12.76c-0.96-0.76-2.92-1.25-2.73-2.23c0.24-1.27,2.2-0.94,3.41-1.3c6.89-2.06,8.57-7.1,4.18-12.68
	c-3.16-4.02-2-7.38,2.91-8.67c4.2-1.1,8.2-2.85,11.78-5.2c4.42-2.89,6.2-6.55,3.28-11.89c-1.23-2.24-2.62-4.4-4.01-6.55
	c-4.86-7.48-9.78-14.93-14.63-22.42c-1.5-2.31-2.17-4.99-1.66-7.62c0.53-2.71,0.18-5.45,0.79-8.16c0.52-2.31,0.82-4.83,0.49-7.16
	c-1.28-9.08-4.12-17.73-8.61-25.73c-2.49-4.44-4.19-9.11-5.61-13.94c-0.16-0.53-0.18-1.03,0.41-1.25
	C212.48,68.6,211.89,67.45,212.02,66.54z"/>
<path class="st4" d="M456.51,393.92c-13.67,0.01-27.33,0.01-41,0.02c-3.74-5.03-3.79-10.71-1.72-16.11
	c2.01-5.23,4.58-10.42,7.84-14.96c3.09-4.3,4.46-9.12,5.13-13.91c0.64-4.57,1.39-9.23,1.38-13.97c-0.02-7.22-2.62-13.14-6.73-18.83
	c-1.19-1.65-3.14-2.48-3.93-4.33c-1.4-3.24-4.64-4.66-7.1-6.63c-4.45-3.57-9.77-6.05-14.54-9.24c-4.72-3.16-9.22-6.64-13.81-9.98
	c-3.07-3.47-6.17-6.92-9.2-10.43c-3.47-4.02-6.56-8.25-8.71-13.18c-1.75-4.02-2.84-8.31-5.01-12.16c-2.53-4.48-4.51-9.17-5.57-14.22
	c0.5-0.35,0.48-0.68-0.03-1c0-0.5,0-1,0-1.5c0.84-0.73,0.43-1.71,0.5-2.58c0.18-2.06,3.33-6.04,5.26-6.39
	c4.74-0.85,8.66-2.95,11.78-6.73c2.27-2.76,3.82-5.72,4.5-9.23c0.64-3.32,0.95-6.77,1.85-9.95c1.69-5.95,1.09-11.87,0.88-17.79
	c-0.1-2.74-0.65-5.68-1.83-8.13c-1.59-3.31-3.39-6.62-5.84-9.44c-1.02-1.18-2.46-2.04-3.29-3.32c-2.4-3.67-5.26-7-7.85-10.51
	c-5.89-8.01-11.31-16.26-15.83-25.1c-1.17-2.29-2.38-4.57-3.66-6.8c-1.26-2.2-2.65-4.32-3.98-6.48c0.01-0.17,0.01-0.33,0.02-0.5
	c-0.15-0.17-0.3-0.34-0.45-0.51c-0.25-0.79-0.45-1.6-0.76-2.36c-2.02-5.03-0.92-8.63,3.88-10.84c5.21-2.4,10.01-5.53,15.07-8.19
	c6.75-3.54,13.82-6.33,20.87-9.19c8.62-3.5,17.53-6.07,26.6-7.91c6.86-1.4,13.86-2.38,20.94-1.87c-0.29,2.4-0.06,4.8-0.01,7.2
	c0.18,8.51,4.48,14.91,12.42,18.02c4.94,1.94,10.02,3.45,15.43,3.2c-0.49,1.83-0.88,3.7-1.5,5.48c-1.33,3.8-2.5,7.7-4.26,11.3
	c-3.79,7.79-7.2,15.77-11.34,23.39c-2.56,4.73-4.58,9.77-7.37,14.35c-3.8,6.24-7.78,12.39-12.42,18.09
	c-5.02,6.15-10.15,12.19-15.55,18.01c-3.39,3.66-6.88,7.22-10.31,10.84c-0.31,0.32-0.85,0.65-0.27,1.37
	c2.68-1.94,5.13-4.11,7.38-6.52c4.51-4.83,8.85-9.85,13.57-14.46c4.78-4.67,8.33-10.29,12.61-15.34c4.24-5.01,7.34-10.88,10.1-16.77
	c2.31-4.93,5.55-9.39,7.26-14.6c1.58-4.8,4.81-8.86,6.19-13.75c0.24-0.85,0.73-1.5,1.73-1.54c-0.43,3.2-0.89,6.4-1.27,9.61
	c-0.84,7.12-0.37,14.25,0,21.38c0.23,4.39,1.38,8.67,1.33,13.08c-1.3,0.24-2.35,0.96-3.04,2.02c-3.73,5.72-8.89,10.23-13.25,15.43
	c-6.21,7.42-13.3,14.11-19.93,21.19c-3.5,3.73-7.95,6.3-11.64,9.79c-1.12,1.06-2.19,2.24-3.68,2.95c-3.49,1.67-6.49,4.16-9.98,5.94
	c-3.06,1.56-5.94,3.29-9.27,4.37c-2.09,0.67-4.23,1.46-6.47,2.22c0.81,0.85,1.64,0.71,2.27,0.49c4.63-1.54,9.41-2.58,13.78-4.93
	c3.84-2.07,7.62-4.18,11.3-6.53c5.88-3.74,11.53-7.73,16.48-12.65c2.36-2.35,4.51-4.9,6.96-7.15c8.39-7.72,15.62-16.5,23.33-24.85
	c1.34-1.45,1.81-3.89,4.25-4.27c1.37,5.34,2.86,10.65,5,15.75c0.66,1.57,1.89,2.93,1.89,4.77c-0.9,0.45-1.68,0.99-2.33,1.81
	c-4.7,5.91-9.45,11.81-14.84,17.07c-8.5,8.3-18.54,14.43-29.3,19.4c-9.66,4.47-19.59,7.53-30.43,6.71
	c-5.54-0.42-10.88-1.58-16.07-3.46c-0.7-0.26-1.36-0.87-2.04-0.28c-0.63,0.56-0.3,1.37-0.16,2.11c1.41,7.46,6.31,12.83,11.27,17.99
	c4.64,4.83,10.53,7.87,16.79,10.27c7.17,2.75,14.59,4.63,22.05,6.24c4.85,1.04,9.64,2.24,14.32,3.78c5.76,1.89,10.9,4.87,15.83,8.61
	c7.25,5.5,13.09,11.75,16.66,20.22c3.36,7.98,5.12,16.25,5.3,24.81c0.19,8.96,1.75,17.87,1.04,26.86c-0.25,3.23,0.05,6.58-0.7,9.64
	c-0.87,3.6-0.68,7.31-1.77,10.83c-0.73,2.38-0.65,4.95-1.21,7.31C456.91,382.23,456.81,388.07,456.51,393.92z M414.14,80.34
	c0.22,1.77,0.53,3.53,0.64,5.31c0.28,4.64,0.61,9.28-0.2,13.9c-0.92,5.23-2.91,10.1-5.12,14.89c-3.5,7.58-6.78,15.27-10.6,22.69
	c-4.16,8.1-7.6,16.49-10.67,25.01c-2.34,6.5-4.67,13.12-5.45,20.07c-0.24,2.12-1.34,4.31-0.09,6.49c0.52-5.99,2.3-11.73,4.15-17.28
	c3.38-10.16,7.53-20.06,12.49-29.61c3.96-7.61,7.51-15.43,10.65-23.44c1.57-4.01,3.47-7.86,4.79-12.01
	c2.11-6.68,2.08-13.39,1.12-20.13C415.57,84.28,416.07,82.05,414.14,80.34z M381.33,85.76c-0.55,1.76-1.1,3.52-1.66,5.29
	c-1.18,3.73-2.73,7.37-2.68,11.4c0.02,1.73-0.06,3.45-0.34,5.2c-0.45,2.85-0.81,5.81-0.52,8.65c0.77,7.48,0.86,15.01,1.8,22.49
	c0.7,5.57,0.77,11.23,1.12,16.84c0.02,0.39,0.25,0.58,0.68,0.52c0.49-0.84,0.25-1.77,0.26-2.67c0.04-8.21-0.32-16.4-0.86-24.61
	c-0.57-8.7-0.34-17.48-0.03-26.21c0.13-3.57,0.33-7.24,1.58-10.77C381.35,90.04,382.11,87.97,381.33,85.76z M381.97,193.22
	c0.63-1.33,0.72-2.13,0.01-3.19C381.34,191.09,381.43,191.89,381.97,193.22z"/>
<path class="st5" d="M212.02,66.54c-0.13,0.91,0.46,2.06-0.9,2.56c-0.59,0.22-0.57,0.72-0.41,1.25c1.42,4.83,3.12,9.5,5.61,13.94
	c4.49,8,7.33,16.65,8.61,25.73c0.33,2.33,0.03,4.85-0.49,7.16c-0.61,2.71-0.26,5.44-0.79,8.16c-0.51,2.63,0.16,5.31,1.66,7.62
	c4.86,7.49,9.77,14.94,14.63,22.42c1.39,2.15,2.79,4.3,4.01,6.55c2.92,5.34,1.14,9-3.28,11.89c-3.58,2.35-7.58,4.1-11.78,5.2
	c-4.92,1.29-6.07,4.65-2.91,8.67c4.39,5.58,2.71,10.62-4.18,12.68c-1.21,0.36-3.17,0.04-3.41,1.3c-0.19,0.98,1.77,1.46,2.73,2.23
	c4.65,3.69,5.11,8,1.62,12.76c-1.12,1.53-2.27,3.01-3.49,4.46c-1.24,1.47-1.06,3.2-0.04,4.82c1.82,2.88,3.58,5.8,3.8,9.31
	c0.37,5.72-2.84,10.3-9.24,12.81c-5.85,2.29-12.01,2.98-18.03,4.26c-5.39,1.14-11.02,1.13-16.53,1.69
	c-2.63,0.27-5.26,0.61-7.87,1.03c-6.13,0.99-9.72,6.58-9.7,12.38c0.02,6.28-2.29,11.41-5.62,16.49c-3.12,4.76-5.71,9.85-8.14,15.03
	c-1.39,2.96-2.22,5.98-2.99,9.1c-1.27,5.1,0.34,9.4,3.83,12.73c6.31,6.02,9.97,13.47,13.19,21.36c3.64,8.91,6.89,17.97,10.17,27
	c2.47,6.8,5.62,13.44,6.91,20.66c-18.66-3.8-36.21-10.59-52.81-19.86c-0.43-0.24-0.79-0.6-1.18-0.91
	c-0.39-6.47-0.73-12.94-1.18-19.4c-1.45-20.79-1.14-41.37,5.52-61.47c3.35-10.12,8.37-19.37,13.42-28.65
	c3.22-5.92,6.28-11.94,9.51-17.85c0.91-1.67,2.2-3.12,3.3-4.69c3.78-5.42,6.79-11.15,8.68-17.57c2.98-10.13,5.99-20.23,8.42-30.52
	c2.38-10.05,0.87-19.68-2.57-29.11c-2.2-6.01-4.8-11.88-7.36-17.75c-5.02-11.49-5.45-22.98-0.46-34.6
	c3.97-9.25,8.41-18.26,16.2-24.88c9.45-8.04,20.28-13.58,32.57-15.97C211.35,66.47,211.69,66.54,212.02,66.54z"/>
<path class="st6" d="M293.35,199.15c4.91,0.27,9.5,1.94,14.15,3.29c5.19,1.5,10.13,3.54,13.92,7.65c0.25,0.27,0.72,0.35,1.09,0.51
	c1.92,2.71,3.86,5.4,5.25,8.44c0.45,0.97,0.44,2.16,1.3,2.91c1.9,1.67,2.62,3.95,3.46,6.21c0.63,1.68,0.92,3.55,2.35,4.86
	c0.3,0.85,0.5,1.75,0.91,2.53c1.84,3.47,4.03,6.76,5.43,10.45c-1.48,0.04-0.75,1.04-0.56,1.56c0.87,2.31,2.03,4.52,2.74,6.86
	c1.69,5.59,2.36,11.42,4.1,17.01c0.94,3.04,1.24,6.29,3.02,9.05c0,0.57-0.08,1.17,0.57,1.49c0.12,1,0.25,2.01,0.37,3.01
	c-0.7,2-0.7,3.99,0.01,5.99c-0.03,0.65-0.05,1.29-0.08,1.94c-0.25,0.19-0.68,0.35-0.73,0.59c-0.69,3.12-2.26,5.93-3,9.05
	c-0.92,3.86-4.38,6.03-6.6,9.04c-1.03,1.39-1.46,3.95-4.25,2.76c-0.23-0.1-0.79,0.11-0.89,0.32c-0.8,1.67-2.78,1.67-3.9,2.85
	c-1.68-0.4-3.04,0.72-4.53,1.1c-2.64,0.67-5.38,0.6-7.98,1.37c-1.42,0.01-1.5,0.99-1.51,2.05c-0.01,2.14,0.09,4.25,0.5,6.38
	c1.4,7.26,3.42,14.27,7.54,20.52c0.3,0.52,0.61,1.04,0.91,1.56c-0.75-0.01-1.21,0.48-1.67,0.96c-5.09,5.43-10.3,10.76-15.21,16.35
	c-2.1,2.39-4.54,4.56-6.06,7.46c-3.06,5.83-4.3,12.03-3.95,18.58c-12.57,0-25.13,0-37.7,0c-0.39-2.13-0.78-4.25-1.17-6.38
	c-0.88-4.85-1.61-9.7,0.36-14.48c1.81-4.4,3.03-8.98,4.3-13.55c2.36-8.51,2.47-16.88-1.32-25.1c-1.7-3.69-3.06-7.55-4.62-11.31
	c-6.5-15.59-12.07-31.54-18.2-47.27c-2.85-7.32-5.54-14.59-11.6-20.1c-2-1.81-2.43-4.64-1.83-7.45c0.87-4.05,2.86-7.62,4.81-11.19
	c2.47-4.51,5.29-8.8,6.43-13.97c1.15-5.27,2.34-5.65,6.96-2.99c0.23,0.86,0.83,0.99,1.58,0.8c0.33,0.04,0.66,0.07,0.99,0.11
	c0.37,0.52,0.88,0.6,1.46,0.43c0.34,0.01,0.68,0.01,1.02,0.02c0.29,0.46,0.61,0.52,0.97,0.08c0.81,0.03,1.61,0.06,2.42,0.09
	c-0.76,1.76,0.62,2.1,1.52,2.44c1.13,0.87-2.11-0.24-0.2,1.21c0.99,0.76,1.79,1.24,3,1.21c2.97-0.08,5.93,0.05,8.78,1.02
	c0.23,1.29,1.27,1.42,2.26,1.47c2.27,0.11,4.45-0.16,6.15-1.92c0.2-0.04,0.4-0.08,0.59-0.12c1.03,1.07,2.34,0.65,3.48,0.45
	c1.34-0.24,2.59-1.2,3.91-1.29c3.12-0.2,5.07-1.64,6.01-4.57c0.07-0.15,0.12-0.3,0.15-0.46c0.54-1.17,2-0.73,2.75-1.6
	c1.52-1.76,1.87-3.77,1.54-5.98c-0.02-0.51-0.04-1.02-0.05-1.52c0.97-0.79,0.92-1.45-0.26-1.96c0.03-0.95,0.06-1.9,0.09-2.86
	c0.82-0.2,1.06-0.49,0.93-1.51C295.28,203.27,293.77,201.41,293.35,199.15z"/>
<path class="st7" d="M445.87,161.99c0.05-4.41-1.1-8.69-1.33-13.08c-0.37-7.13-0.84-14.25,0-21.38c0.38-3.21,0.85-6.41,1.27-9.61
	c0.25-0.41,0.62-0.8,0.73-1.25c1.3-4.98,3.19-9.72,5.52-14.3c1.36-2.66,0.93-3.48-2.08-4.31c-5.42,0.25-10.49-1.26-15.43-3.2
	c-7.94-3.11-12.24-9.51-12.42-18.02c-0.05-2.4-0.28-4.8,0.01-7.2c0.12-0.03,0.23-0.09,0.33-0.17c8.94,0.55,17.57,2.45,25.92,5.73
	c6.25,2.46,11.14,6.81,15.14,11.9c10.35,13.2,18.81,27.6,25.06,43.18c4.11,10.26,5.11,20.96,4.02,32.01
	c-1.47,14.96-4.44,29.71-5.94,44.65c-1.12,11.18-1,22.41-0.39,33.65c0.68,12.68,4.18,24.88,5.89,37.37
	c1.6,11.71,2.16,23.45,1.5,35.3c-0.69,12.31-2.57,24.41-5.21,36.41c-1.98,9.02-4.98,17.75-7.66,26.57
	c-1.79,5.88-3.58,11.77-5.38,17.65c-1.44-0.03-2.87-0.05-4.31-0.08c-0.71-4.67-1.48-9.34-2.11-14.02
	c-1.65-12.33-3.2-24.66-3.74-37.12c-0.44-10.12-0.04-20.11,2.01-29.97c2.56-12.36,6.31-24.44,9.74-36.58
	c4.33-15.36,8.8-30.68,7.04-46.98c-0.73-6.8-1.61-13.51-4.38-19.85c-0.76-1.74-1.86-2.7-3.69-3.3c-6.55-2.16-11.92-6.03-16.32-11.4
	c-2.11-2.58-3.51-5.63-5.8-8.06c0-1.84-1.23-3.2-1.89-4.77c-2.14-5.11-3.62-10.41-5-15.75
	C446.61,164.67,446.66,163.22,445.87,161.99z"/>
<path class="st8" d="M453.87,186.54c2.29,2.43,3.69,5.48,5.8,8.06c4.4,5.37,9.77,9.24,16.32,11.4c1.83,0.6,2.92,1.56,3.69,3.3
	c2.77,6.34,3.64,13.05,4.38,19.85c1.76,16.3-2.7,31.62-7.04,46.98c-3.43,12.15-7.17,24.22-9.74,36.58
	c-2.04,9.86-2.45,19.85-2.01,29.97c0.54,12.47,2.09,24.79,3.74,37.12c0.63,4.68,1.4,9.35,2.11,14.02
	c-4.87,0.03-9.74,0.06-14.62,0.09c0.3-5.85,0.4-11.69,1.78-17.46c0.56-2.36,0.48-4.93,1.21-7.31c1.08-3.53,0.89-7.24,1.77-10.83
	c0.74-3.06,0.44-6.42,0.7-9.64c0.7-8.98-0.85-17.89-1.04-26.86c-0.18-8.56-1.93-16.83-5.3-24.81c-3.57-8.47-9.4-14.72-16.66-20.22
	c-4.93-3.74-10.07-6.72-15.83-8.61c-4.68-1.54-9.48-2.73-14.32-3.78c-7.46-1.61-14.88-3.49-22.05-6.24
	c-6.26-2.4-12.15-5.45-16.79-10.27c-4.96-5.16-9.86-10.53-11.27-17.99c-0.14-0.74-0.48-1.55,0.16-2.11
	c0.67-0.59,1.33,0.02,2.04,0.28c5.19,1.89,10.54,3.04,16.07,3.46c10.84,0.83,20.77-2.24,30.43-6.71
	c10.76-4.98,20.81-11.11,29.3-19.4c5.39-5.26,10.14-11.16,14.84-17.07C452.2,187.52,452.98,186.99,453.87,186.54z"/>
<path class="st9" d="M326.95,350.51c-0.3-0.52-0.61-1.04-0.91-1.56c1.54,0.28,2.57-0.53,3.3-1.72c1.69-2.76,3.93-5.16,6.1-7.44
	c4.06-4.25,7.76-8.75,11.39-13.34c2.66-3.37,5.2-6.86,8.07-10.05c6.32-7.03,13.83-12.89,20-20.08c2.74-3.19,5.5-6.37,7.1-10.35
	c4.59,3.34,9.09,6.83,13.81,9.98c4.78,3.2,10.09,5.67,14.54,9.24c2.45,1.97,5.69,3.39,7.1,6.63c0.8,1.84,2.74,2.68,3.93,4.33
	c4.11,5.69,6.71,11.61,6.73,18.83c0.01,4.74-0.74,9.4-1.38,13.97c-0.67,4.79-2.03,9.6-5.13,13.91c-3.26,4.54-5.83,9.72-7.84,14.96
	c-2.07,5.4-2.02,11.08,1.72,16.11c-22.21-0.02-44.42-0.05-66.64-0.07c-0.02-0.33,0.04-0.68-0.06-0.99
	C344.03,377.47,337.79,362.8,326.95,350.51z"/>
<path class="st10" d="M686.98,368.46c-2.79-7.19-4.73-14.69-7.81-21.78c-0.99-2.27-2.46-3.01-4.72-2.44
	c-4.35,1.09-8.63,2.69-13.04,3.23c-10.71,1.32-15.7-2.62-16.82-12.6c-0.37-3.26-0.22-6.13-4.58-6.59c-1.83-0.19-2.21-4.55-0.76-6.36
	c0.8-1,2-1.44,2.96-2.19c-0.28-0.86-1.07-1.06-1.65-1.51c-3.1-2.38-2.97-6.14,0.24-8.43c0.8-0.57,1.5-1.32,2.15-2.07
	c1.29-1.49,1.46-2.95-0.29-4.26c-0.53-0.4-1.04-0.83-1.58-1.21c-3.57-2.5-3.74-3.46-1.44-7.08c2.33-3.66,5.95-6,8.99-8.93
	c0.42-0.4,0.86-0.77,1.29-1.15c3.64-3.14,3.59-7.04,1.64-10.83c-2.25-4.34-2.43-8.76-1.51-13.31c1.26-6.29,3.4-12.3,6.39-17.99
	c1.78,0.51,3.15,2.06,4.82,2.45c4.46,1.04,7.89,4.06,12.03,5.71c4.75,1.9,8.23,5.71,12.07,8.96c5.24,4.43,8.24,10.53,12.15,15.95
	c3.55,4.92,7.34,9.59,12.11,13.46c4.05,3.29,8.04,6.75,11.54,10.6c2.56,2.82,5.16,5.35,8.57,7.03c6.42,3.17,10.79,7.71,10.32,15.47
	c-6.98,9.29-15.09,17.51-23.79,25.16c-8.4,7.38-17.42,13.91-27.03,19.63C688.49,367.79,687.72,368.1,686.98,368.46z"/>
<path class="st11" d="M665.91,179.48c-0.65-2.29,0.33-3.18,2.57-3.02c0.24,0.02,0.5-0.06,0.73-0.14c1.17-0.41,2.85-0.15,3.44-1.16
	c0.62-1.06-0.99-1.93-1.35-3.01c-1.22-3.6-1.54-7.02,0.94-10.38c2.94-3.97,6.1-7.66,10.64-9.81c1.55-0.73,3.3-1.09,4.99-1.47
	c2.01-0.45,3.37-1.75,4.58-3.25c1.62-2,1.98-4.05,0.46-6.4c-2.14-3.29-1.85-6.38,0.82-9.31c6.19-6.78,13.83-9.65,23.02-8.67
	c2.99,0.32,5.89,0.9,8.79,1.58c2.25,0.52,4.19,0.41,5.83-1.54c4.79-5.69,10.66-6.18,17.56-4.33c4.12,1.11,6.63,3.48,8.83,6.63
	c1.58,2.26,3.74,3.7,6.16,4.85c3.54,6.73,5.9,13.92,8.17,21.14c4.9,15.56,7.48,31.53,8.25,47.8c0.06,1.33,0.01,2.66,0,3.99
	c-1.05,0.14-1.63-0.59-2.35-1.17c-0.93-0.75-1.19-2.06-2.09-2.69c-3.62-2.57-7.34-5.01-11.03-7.48c-0.34-0.23-0.71-0.57-1.08-0.57
	c-3.58-0.08-6.82-1.69-10.27-2.38c-7.77-1.56-15.17,0.02-22.66,0.99c-4.83,0.63-9.55,2.06-14.31,3.15c-4.6,1.05-8.86,2.8-13.12,4.61
	c-1.58,0.67-3.17,0.09-4.59,0.72c-3.54,1.58-7.37,1.17-10.96,1.14c-5.51-0.04-11.79-6.03-12.83-11.58
	C673.97,181.88,671.28,180.06,665.91,179.48z"/>
<path class="st12" d="M55.85,184.57c3.22,0.22,5.84,2.74,9.2,2.41c0,0.37-0.01,0.73-0.01,1.1c-1.23-0.14-2.45-0.38-3.68-0.4
	c-1.15-0.02-2.52-0.65-3.32,0.82c0.17,0.16,0.33,0.32,0.5,0.48c2.59,0.9,5.46,0.34,7.98,1.54c0.01,0.42,0.02,0.84,0.04,1.25
	c-1.6-0.14-3.11-1.11-5.12-0.49c0.71,0.97,0.8,2.41,2.43,1.93c1.56-0.46,3.1-0.21,4.65-0.25c1.28,1.32,2.69,2.2,4.61,1.39
	c0.45,0.11,0.9,0.22,1.36,0.33c0.07,0.48,0.13,0.95,0.2,1.43c0.98,0.42,1.96,0.84,2.94,1.26c0.03,0.38,0.14,0.49,0.4,0.12
	c2.18,0.15,4.36,0.29,6.54,0.44c-0.07,0.51-0.26,1.16-0.84,0.86c-1.55-0.8-2.59,0.31-3.8,0.82c-0.85-0.37-1.81-1.23-2.6-0.35
	c-0.71,0.79,0.04,1.61,0.71,2.23c0.04,0.62-0.07,1.34,0.81,1.47c0.81,0.12,1.13-0.36,1.18-1.1c0.68,0.03,1.44,0.18,1.38-0.91
	c0.87-0.12,1.6,0.34,2.38,0.58c0.16,0.58,0.33,1.17,0.49,1.75c-0.09,0.33-0.17,0.65-0.26,0.98c-0.53-0.19-1.06-0.39-1.6-0.57
	c-0.8-0.27-1.89-0.49-2.11,0.41c-0.32,1.27,1.06,0.77,1.68,1.08c0.24,2.01,1.78,1.77,3.15,1.82c1.74,0.06,1.27-1.31,1.44-2.26
	c0.98,0.24,1.6,1.61,2.87,0.91c0.45,1.62-2.06,2.12-1.43,3.8c-0.89,0.18-1.2,0.64-0.7,1.48c-0.54,0.37-1.51,0.28-1.47,1.36
	c1.11,0.3,2.11,0.35,3.08-0.38c0.47-0.35,1.01-0.09,1.29,0.34c0.37,0.57-0.25,0.61-0.57,0.81c-0.75,0.46-0.18,0.59,0.15,0.99
	c2.01,2.48,4.57,1.98,7.16,1.49c0,0,0.03,0.02,0.03,0.02c-0.07,1.21,2.9,0.61,1.53,2.58c-1.16,0-2.33,0-3.81,0
	c2.21,1.54,3.39,3.54,4.83,5.3c0.2,0.71,0.71,1.01,1.4,1.08c-0.09,2.39,1.84,4.17,1.96,6.5c-0.69,1.19,0.01,2.08,0.65,2.98
	c0.11,0.68,0.23,1.35,0.34,2.03c-0.53,1.1-0.83,2.17,0.4,3.03c0.03,0.96,0.06,1.92,0.09,2.89c-0.4,0-0.81-0.01-1.21-0.01
	c-0.92-3.95-0.55-8.2-2.73-11.86c-0.04-3.09-2.73-4.55-4.23-7.38c-0.24,3.56,2.5,5.02,3.4,7.4c-0.33,2.68-0.09,5.3,0.79,7.86
	c-1.66-0.36-2.04-1.78-2.57-3.08c0.2-2.25-1.49-1.71-2.71-1.8c-0.45-0.03-1.26-0.22-1.23,0.41c0.06,1.22,1.36,1.25,2.18,1.71
	c0.39,0.22,0.95,0.13,1.43,0.19c-0.38,2.54-0.61,2.9-1.8,2.5c-0.55-0.19-1.11-0.64-1.5,0c-0.44,0.73,0.19,1.18,0.71,1.61
	c0.81,0.66,2.26,1.32,2.28,2.03c0.1,2.51,2.31,4.4,1.81,6.99c-0.03,0.74,0.14,1.64-0.49,2.12c-3.58,2.75-2.88,5.91-1.07,9.26
	c0.34,0.64,0.39,1.43,0.57,2.16c0.03,1.51,0.05,3.03,0.08,4.54c0.01,2.5,0.02,5-0.59,7.45c-0.02,0.12-0.03,0.24-0.03,0.36
	c-0.66,3.08-1.23,6.18-2.02,9.22c-1.45,5.65,0.49,10.22,4.25,14.32c1.34,1.46,2.6,3.02,3.67,4.69c1.69,2.65,0.77,5.01-2.18,6.08
	c-0.62,0.23-1.25,0.48-1.89,0.6c-1.22,0.24-1.48,0.96-1.06,1.99c0.49,1.23,1,2.44,1.68,3.59c1.75,2.97,0.55,4.98-2.84,5.16
	c-1.32,0.07-3.32-0.79-3.8,0.83c-0.49,1.65,1.69,1.88,2.76,2.64c2.15,1.54,2.08,4.43-0.34,5.61c-2.39,1.17-3.5,2.86-3.28,5.53
	c0.25,3.07-1.03,5.65-2.94,7.96c-1.23-0.15-1.69-1.27-2.43-1.99c-20.12-19.67-35.06-42.72-44.87-69.08
	c-0.48-1.29-1.43-2.46-1.17-3.98c0.34-0.35,0.76-0.65,1.01-1.05c3.46-5.6,6.34-11.48,8.65-17.65c4.97-13.28,5.8-27.2,6.25-41.14
	c0.18-5.72-0.34-11.46-0.54-17.19c0.56-0.2,0.65-0.65,0.61-1.16c-1.8-1.38-1.34-2.43,0.48-3.13
	C57.17,185.32,55.37,186.19,55.85,184.57z M81.2,209.35c-0.03,0.32,0.12,0.51,0.43,0.59c0.58,0.45,1.26,0.54,1.97,0.49
	c0.1,0.27,0.19,0.54,0.32,0.8c0.01,0.02,0.34-0.04,0.38-0.12c0.15-0.37-0.11-0.54-0.4-0.68c0.15-1.76-1.22-2.18-2.42-2.3
	C80.16,208.02,80.89,208.84,81.2,209.35z M96.02,245.01c-0.07-0.17-0.13-0.34-0.2-0.52c-0.02,0.06-0.07,0.13-0.05,0.16
	c0.08,0.12,0.18,0.22,0.27,0.33c-0.07,0.91,0.33,1.88-0.2,2.82c-1.3-0.73-1.1-2.59-2.7-2.88c-0.12,1.67,0.15,3.23-0.31,4.81
	c-0.33,1.14,0.77,1.95,1.39,2.79c0.42,0.56,0.87,0.02,1.24-0.28C97.72,250.41,97.95,247.42,96.02,245.01z M91.99,248.71
	c-0.04-2.63-1.25-4.16-3.61-5.34C88.88,245.54,89.93,247.06,91.99,248.71z M93.79,228.51c-0.47,3.32-0.2,3.69,2.57,3.85
	c0.3,0.02,0.6-0.12,0.9-0.18c-0.09-0.29-0.13-0.8-0.27-0.83C95.52,231.01,95.14,229.43,93.79,228.51z M95,227.66
	c0.4-2.17-0.86-3.76-1.71-5.5c-0.17-0.35-0.58-0.71-0.99-0.31c-0.17,0.16-0.21,0.66-0.09,0.89C93.12,224.39,94.07,226.02,95,227.66z
	 M88.16,230.6c-0.56-0.1-1.11,0.08-0.93,0.52c0.45,1.11,1.37,1.81,2.53,2.15c0.53,0.16,0.79-0.24,0.76-0.68
	C90.43,231.05,88.95,231.16,88.16,230.6z M74.68,201.91c0.56-0.04,0.86-0.31,0.76-0.81c-0.17-0.79-0.66-1.36-1.5-1.4
	c-0.19-0.01-0.6,0.47-0.56,0.65C73.53,201.1,73.84,201.8,74.68,201.91z"/>
<path class="st13" d="M740.02,322.58c0.46-7.76-3.9-12.31-10.32-15.47c-3.41-1.68-6.01-4.21-8.57-7.03
	c-3.5-3.85-7.49-7.31-11.54-10.6c-4.77-3.87-8.55-8.54-12.11-13.46c-3.92-5.42-6.92-11.52-12.15-15.95
	c-3.84-3.25-7.31-7.06-12.07-8.96c-4.14-1.65-7.57-4.67-12.03-5.71c-1.67-0.39-3.04-1.94-4.82-2.45c0.09-0.84-0.67-1.25-0.97-1.89
	c-0.09-1.7,0.96-2.81,2.34-3.15c3-0.75,5.32-2.81,7.6-4.46c4.18-3.02,9.09-3.78,13.61-4.64c6-1.15,12.27-1.71,18.49-1.85
	c5.33-0.12,10.53,0.54,15.76,1.46c3.18,0.56,6.33,1.16,9.29,2.37c4.74,1.94,9.76,3.01,14.51,5c2.95,1.23,6.25,1.95,9.31,3.02
	c5.82,2.04,11.52,4.47,17.45,6.21c3.78,1.11,7.39,2.25,9.47,5.98c0.32,0.57,1,0.51,1.59,0.52c-5.48,22.85-15.21,43.76-28.67,62.97
	C744.27,317.26,742.36,320.09,740.02,322.58z"/>
<path class="st14" d="M774.89,251.5c-0.59,0-1.27,0.06-1.59-0.52c-2.08-3.73-5.7-4.87-9.47-5.98c-5.93-1.74-11.62-4.16-17.45-6.21
	c-3.06-1.08-6.37-1.79-9.31-3.02c-4.75-1.99-9.77-3.06-14.51-5c-2.96-1.21-6.11-1.81-9.29-2.37c-5.23-0.92-10.43-1.58-15.76-1.46
	c-6.22,0.14-12.49,0.7-18.49,1.85c-4.52,0.86-9.43,1.62-13.61,4.64c-2.28,1.65-4.6,3.71-7.6,4.46c-1.38,0.34-2.44,1.45-2.34,3.15
	c-5.55-0.56-8.86-5.19-7.84-10.8c0.69-3.76,2.23-7.13,4.54-10.09c2.16-2.76,2.29-5.57,1.03-8.65c-1.87-4.57-1.5-6.55,2.74-9.24
	c4.73-3.01,5.84-7.09,4.81-12.22c-0.56-2.77,0.07-5.25,2.17-7.29c1.06-1.03,2-2.18,2.99-3.28c5.37,0.58,8.06,2.4,9.15,8.25
	c1.04,5.55,7.31,11.54,12.83,11.58c3.59,0.03,7.43,0.43,10.96-1.14c1.42-0.63,3-0.05,4.59-0.72c4.26-1.81,8.52-3.56,13.12-4.61
	c4.76-1.08,9.49-2.52,14.31-3.15c7.49-0.98,14.89-2.55,22.66-0.99c3.45,0.69,6.69,2.31,10.27,2.38c0.36,0.01,0.74,0.35,1.08,0.57
	c3.69,2.48,7.4,4.91,11.03,7.48c0.9,0.64,1.16,1.94,2.09,2.69c0.72,0.58,1.3,1.31,2.35,1.17
	C780.78,219.42,778.96,235.58,774.89,251.5z"/>
<path class="st9" d="M334.87,233.02c-1.42-1.31-1.72-3.18-2.35-4.86c-0.85-2.26-1.57-4.54-3.46-6.21c-0.86-0.75-0.85-1.94-1.3-2.91
	c-1.4-3.03-3.34-5.73-5.25-8.44c0.18-1.53-0.42-3.14,0.64-4.59c0.63-0.87-0.43-1.08-0.85-1.47c-2.83-2.67-2.62-3.44-1.36-7.15
	c1.42-4.2,2-7-3.09-9.48c-3.01-1.46-3.57-2.84-2.47-6.08c0.74-2.19,1.77-4.25,3.15-6.15c3.22-4.43,6.04-9.07,7.5-14.46
	c1.02-3.76,0.53-7.51-0.31-11.07c-1.75-7.34-1.11-14.44,1.02-21.52c1.76-5.82,4.61-11.13,7.87-16.24c0.34-0.54,0.93-0.92,1.4-1.38
	c1.33,2.16,2.72,4.29,3.98,6.48c1.28,2.23,2.49,4.51,3.66,6.8c4.52,8.85,9.94,17.1,15.83,25.1c2.59,3.52,5.45,6.84,7.85,10.51
	c0.83,1.28,2.27,2.14,3.29,3.32c2.45,2.83,4.24,6.14,5.84,9.44c1.18,2.45,1.73,5.38,1.83,8.13c0.21,5.93,0.81,11.85-0.88,17.79
	c-0.9,3.18-1.21,6.63-1.85,9.95c-0.68,3.51-2.23,6.47-4.5,9.23c-3.11,3.79-7.04,5.88-11.78,6.73c-1.94,0.35-5.09,4.33-5.26,6.39
	c-0.07,0.87,0.34,1.86-0.5,2.58c-0.7-0.84-1.45-0.96-2.6-0.78c-2.6,0.42-5.25,1.19-7.86,0.7
	C340.31,232.89,337.6,233.08,334.87,233.02z"/>
<path class="st5" d="M251.54,221.43c-0.34-0.01-0.68-0.01-1.02-0.02c-0.39-0.46-0.91-0.5-1.46-0.43c-0.33-0.04-0.66-0.07-0.99-0.11
	c-0.2-0.91-0.88-0.89-1.58-0.8c-4.61-2.66-5.8-2.28-6.96,2.99c-1.13,5.17-3.96,9.46-6.43,13.97c-1.95,3.57-3.94,7.14-4.81,11.19
	c-0.61,2.82-0.17,5.64,1.83,7.45c6.06,5.51,8.75,12.78,11.6,20.1c6.13,15.73,11.7,31.68,18.2,47.27c1.57,3.76,2.92,7.61,4.62,11.31
	c3.79,8.22,3.68,16.6,1.32,25.1c-1.27,4.57-2.49,9.15-4.3,13.55c-1.97,4.78-1.25,9.63-0.36,14.48c0.39,2.13,0.78,4.25,1.17,6.38
	c-4.78,0-9.55,0-14.33,0c2.79-6.63,5.65-13.23,8.53-19.83c2.68-6.14,5.65-12.22,7.25-18.78c1.38-5.69,1.31-11.4,0.06-17.18
	c-1.15-5.32-3.35-10.18-5.59-15.04c-1.14-2.47-1.81-5.09-3.32-7.46c-1.7-2.67-4.07-4.08-6.84-4.48c-4.58-0.66-9.23-0.75-13.86-1.13
	c-3.32-0.27-6.46-0.92-8.98-3.43c-1.85-1.85-1.66-4.03-0.86-5.99c0.78-1.93,0.9-3.52-0.42-5.07c-1.35-1.59-1.02-2.93,0.17-4.44
	c1.8-2.29,1.64-2.75-0.85-3.93c-2.66-1.26-3.13-2.93-1.55-5.56c1.74-2.89,1.48-3.6-1.63-4.56c-3-0.92-3.86-3.13-2.9-6.12
	c0.94-2.93,3.5-4.57,5.01-7.06c1.36-2.24,2.81-4.47,4.3-6.65c1.82-2.65,0.79-5.5,0.34-8.21c-0.64-3.84,0.03-7.44,0.79-11.21
	c1.03-5.07,3.08-9.56,5.63-13.94c0.83-1.42,0.79-2.97,0.08-4.53c-2.22-4.84,0-8.95,5.3-9.23c6.12-0.32,11.51-2.21,16.76-5.38
	c3.73-2.25,8.29-2.81,12.6-3.66c0.66-0.13,1.3-0.15,1.83-0.65c2.36-2.28,5.32-2.84,8.44-2.88c3.9-0.05,7.81-0.08,11.68,0.53
	c0.27,0.38,0.61,0.54,1.08,0.41c0,0-0.01,0-0.01,0c-0.09,0.76-0.14,1.5,0.93,1.59L292,200c0.3,2.17-0.47,4.33,0.01,6.5l0.01-0.01
	c-1.51,0.32-1.09,1.6-0.96,2.41c0.34,2.06,0.95,4.08,1.45,6.12c-0.18,0.8-0.37,1.6-0.55,2.39c-0.71-0.03-1.28,0.88-2.05,0.35
	c-0.35-1.04,0.91-1.64,0.81-2.97c-2.21,0.96-2.25,3.23-3.35,4.59c-2.91,3.61-6.34,4.79-10.67,4.66c-1.05-0.03-2.56-0.89-3.19,0.89
	c0,0.18-0.01,0.37-0.01,0.55l0.02-0.03c-0.84-0.14-1.8,0.47-2.51-0.5c-0.66-0.9-1.31-0.16-1.95,0.1c-2.1-1.83-4.56-1.27-6.96-1.02
	c-0.47,0.05-1.16,0.34-0.95-0.49c0.15-0.59,0.83-1.02-0.25-1.4c-0.88-0.3-1.2,0.05-1.44,0.81c-0.11,0.35-0.66,0.45-0.71,0.08
	c-0.38-2.91-2.51-1.07-3.81-1.45c-0.81-0.03-1.61-0.06-2.42-0.09C252.22,221.06,251.9,220.97,251.54,221.43z"/>
<path class="st0" d="M56.38,190.51c0.2,5.73,0.72,11.47,0.54,17.19c-0.45,13.94-1.28,27.85-6.25,41.14
	c-2.31,6.17-5.18,12.05-8.65,17.65c-0.25,0.4-0.67,0.7-1.01,1.05c-2.31-5-3.53-10.36-4.88-15.65c-4.46-17.53-6.13-35.36-5.49-53.42
	c0.05-1.49,0.28-2.98,0.42-4.47c0.16-0.16,0.32-0.33,0.48-0.49c0,0,0.01-0.01,0.01-0.01c1.57-0.72,0.55-1.32-0.09-1.94c0,0,0,0,0,0
	c-0.1-0.2-0.2-0.39-0.3-0.59c0.03-0.29,0.06-0.58,0.09-0.87c0.61-0.14,1.32,0.07,1.79-0.53c1.35-0.46,1.41-2.36,2.94-2.62
	c1.02-0.16,2.04-0.36,3.06-0.46c1.02-0.1,2.18,0.19,2.46-1.29c0.49,0.16,0.98,0.32,1.46,0.48c0.42,1.14,1.43,0.68,2.22,0.83
	c0.41,2.86,2.42,3.63,5.61,2.02c0.68-0.34,2.25-0.26,1.81-1.42c-0.39-1.05-1.69-0.67-2.65-0.28c-0.31,0.12-0.63,0.21-0.94,0.31
	c-0.22-0.21-0.45-0.41-0.67-0.62c0.09-0.14,0.13-0.29,0.12-0.46c0.04-0.48,0.08-0.95,0.13-1.43c0.46,0.01,0.92,0.03,1.38,0.04
	c0.85,1.17,1.74,1.13,2.65,0.07c1.34-0.09,1.41-0.98,1.45-2.06c0.11-3.3-1.63-5.92-3.02-8.68c0,0-0.03,0.03-0.03,0.03
	c0.99,0,1.27,0.95,1.91,1.42c0.1,0.44,0.35,0.67,0.83,0.6c1.48,2.65,1.56,5.65,2.09,8.53c-0.49,1.61,1.32,0.75,1.62,1.65
	c-1.82,0.7-2.28,1.74-0.48,3.13C56.44,189.56,55.77,189.69,56.38,190.51z M40.52,190.44c1.08,0.08,2.15,0,3.09-0.57
	c0.37-0.22,1.4-0.18,0.79-1.07c-0.33-0.49-0.69-1.25-1.54-0.78c-0.43,0.23-0.79,0.57-1.19,0.87c0.06-0.59,0.7-1.25-0.21-1.72
	c-1.07-0.55-4.7,0.74-5.1,1.84c-0.07,0.2-0.05,0.65-0.01,0.65C37.75,189.9,38.83,191.88,40.52,190.44z M50.83,191.76
	c0.12-0.82-0.5-0.79-0.94-0.74c-0.56,0.05-1.47-0.46-1.56,0.56c-0.05,0.53,0.46,1.13,1.04,1.25
	C50.13,192.98,50.48,192.29,50.83,191.76z M55.95,192.89c-1.27-1.04-2.22-0.86-3.1-0.08c-0.31,0.27-0.5,0.85-0.04,1.02
	C53.94,194.24,54.71,193.26,55.95,192.89z"/>
<path class="st0" d="M326.95,350.51c10.83,12.29,17.08,26.96,21.86,42.37c0.09,0.31,0.04,0.66,0.06,0.99
	c-16.27,0-32.54-0.01-48.81-0.01c-0.34-6.55,0.89-12.75,3.95-18.58c1.52-2.89,3.96-5.06,6.06-7.46
	c4.91-5.59,10.12-10.92,15.21-16.35C325.74,350.99,326.21,350.5,326.95,350.51z"/>
<path class="st2" d="M187.48,30.09c0.09,0.84-0.19,1.56-1.06,1.67c-1.39,0.17-0.31-0.88-0.56-1.31c-0.27-0.44-0.68-0.37-1.07-0.41
	c-2.25-0.25-3.93-2.67-2.73-4.48c0.55-0.83-0.12-2.88,1.95-2.59c0.04,0.01,0.13-0.12,0.14-0.19c0.01-0.07-0.07-0.14-0.1-0.22
	c2.36-1.54,3.8-1.04,4.54,1.58c0.31,1.11,0.63,2.22,0.93,3.33c0.16,0.6-0.31,1.51,0.46,1.76c0.84,0.27,1.21-0.67,1.73-1.16
	c0.76-0.72,0.39-2.55,2.36-2.21c0.39,0.07,0.54-1.35,0.23-2.33c1.67,0.77,1.05,2.01,1.24,2.99c-1.23,0.37-1.83,1.25-1.87,2.48
	c-0.01,0.32,0.47,0.48,0.77,0.24c0.86-0.69,2.08-1.27,1.11-2.71c2.96-0.74,2.96-0.74,2.88,3.55c2.74-1.7,1.03-4.78,2.6-6.81
	c1.73,2.09,1.83,4.68,2.08,7.21c0.34,1.32-1.83,2.93,0.46,4.03c-0.02,0.34-0.04,0.68-0.07,1.02c-1.1,0.47-0.87,1.72-1.46,2.49
	c-0.77,0.7-1.86,0.74-1.96-0.24c-0.17-1.65-1.9-2.88-0.92-4.79c-1.04-0.16-1.54,0.49-2.11,0.83c-0.72,0.43-1.17,0.9-1.63-0.32
	c-0.39-1.05-1.03-1.33-1.97-0.23c-1.19,1.4-2.19,1.02-2.9-0.66c-0.55-1.3-0.98-2.9-2.98-2.63c-0.17-0.56,0.3-1.33-0.52-1.66
	c-0.09-0.04-0.42,0.22-0.46,0.39C186.38,29.48,186.66,29.98,187.48,30.09z"/>
<path class="st2" d="M214.9,51.62c-1-0.03-2-0.03-3-0.09c-0.39-0.03-0.92-0.08-1.13-0.33c-2.11-2.51-2.09-2.52-3.97-3.12
	c0.58-0.83,1.65-0.66,2.36-1.23c-0.58-0.68-1.16-1.36-1.73-2.02c0.37-0.83,1.62-0.38,2.05-1.7c-1.87,1.22-2.49-1.91-4.46-0.82
	c-0.29,0.16,0.08-1.58-0.26-2.65c-1.29,1.14-2.57-0.07-4.33,0.37c0.99-1.54,2.61-0.41,3.23-1.54c0.8-0.07,1.69,0.35,2.35-0.44
	c2.33-0.42,4.66-0.83,7.19-1.28c-0.4,0.92-0.41,1.83,0.94,2.35c-1.13,0.43-2.44-0.44-2.7,1.19c1.49,0.6,3.31-0.35,4.69,0.97
	c-1.39,1.59-3.61,0-5.22,1.51c1.92,0.23,2.69,1.94,4.12,2.75l-0.02,0.02c-1.48-0.04-2.89,0.17-4.21,0.85
	c0.09,0.7,0.67,0.47,0.94,0.68c0.47,0.36,2.64-0.63,1.2,1.46c-0.18,0.27,0.89,1.34,1.77,1.47C216.9,50.32,215.19,51.04,214.9,51.62z
	"/>
<path class="st9" d="M571.13,37.12c-0.18,0.93,0.51,1.78-1,2.71c-2.29,1.43,0.73,2.86,1.21,3.16c1.69,1.04,1.45,3.07,2.72,4.21
	c0.39,0.35-0.16,0.65-0.61,0.75c-0.26,0.06-0.94,0.15-0.58,0.46c2.36,2.03-0.76,2.95-0.85,4.46c-0.05,0.91-0.68,0.44-1.06,0.28
	c-1.5-0.62-2.46-3.62-1.8-5.22c0.37-0.89,1.19-2.12-0.83-2.18c-0.14,0-0.27-0.17-0.41-0.25c-0.87-0.51-0.07-3.15-1.24-2.09
	c-1.24,1.12-3.82,2.03-3.28,4.65c-1.05-1.14-0.38-4.59,1.32-5.23c1.25-0.47,1.64-1.39,2.39-2.18
	C568.36,39.37,569.79,38.29,571.13,37.12z"/>
<path class="st9" d="M601.42,32.64c-1.66-1.6-3.47-0.45-5.02,0.02c-2.17,0.66-0.37,3.13-0.21,3.36c1.66,2.52,0.22,4.9-0.67,6.75
	c-0.93,1.95-0.85,4.26-2.44,6.24c-0.58-2-1.08-3.74-1.58-5.49c1.98,0.78,2.85-0.46,2.91-2.02c0.08-2.29,1.51-4.47,0.19-6.93
	c-0.64-1.2,1.49-4.46,2.66-4.46C599.05,30.13,600.94,30.32,601.42,32.64z"/>
<path class="st6" d="M33.05,189.57c-0.47,0.6-1.18,0.39-1.79,0.53c-0.48-2.59,0.88-4.26,2.85-5.59c1.29-0.87,2.63-1.67,3.95-2.5
	l-0.01,0.01c3.16-0.61,6.31-1.3,9.57-1.03c1.44,0.12,2.86,0.22,4.09,1.49c-2.51,0-5.03-0.16-7.52,0.04
	c-4.15,0.32-7.89,1.84-10.89,4.79C32.91,187.69,30.92,188.61,33.05,189.57z"/>
<path class="st4" d="M661.88,32.19c-0.25,1.36,0.49,3.55-2.48,2.73c0.55,1.76-0.7,3.39-0.07,5.13c0.21,0.57,0.16,1.34-0.43,1.52
	c-0.81,0.24-1.81,0.4-2.57,0.13c-0.68-0.24-0.41-1.29-0.13-1.77c1.6-2.77,1.17-6.15,2.78-8.89
	C660.11,31.02,661.05,31.44,661.88,32.19z"/>
<path class="st9" d="M564.99,68.08c1.25-1.94,2.79-1.28,4.3-0.44c1.32,0.73,2.7,1.5,1.77,3.41c-0.25,0.51-0.3,1.13,0.2,1.3
	c3.1,1.04,1.16,3.16,0.38,4c-0.65,0.71-2.62,0.38-3.41-1.16c1.91-0.63,2.29-1.64,1.18-3.13c-0.19-0.26-0.68-0.48-0.67-0.69
	C568.91,68.62,566.66,68.69,564.99,68.08z"/>
<path class="st9" d="M626.23,37.58c0.1-2.14,1.53-4.2,0.33-6.79c-1.12,1.7-1.54,3.29-1.67,4.97c-0.07,0.91,0.01,1.83-0.06,2.74
	c-0.05,0.59,0.4,1.63-0.5,1.64c-0.92,0.01-0.31-1.09-0.54-1.55c-1.02-2.07,0.55-4.1-0.11-6.1c-0.13-0.39,0.32-2.02-1.1-0.5
	c-0.64,0.68-1.39-0.55-1.45-1.53c1.77-1.44,2.78-0.4,3.56,1.39c0.42-1.02,0.25-2.23,1.52-2.22c1.25,0.01,1.39,1.15,1.5,1.98
	C627.97,33.75,628.77,36.1,626.23,37.58z"/>
<path class="st9" d="M563.45,48.09c1.1,0.23,1.28,1.11,0.46,1.51c-2.87,1.4-1.39,3.29-0.62,4.95c0.5,1.07,1.52,1.83,1.78,3.15
	c0.18,0.94,1.27,1.34,2.2,1.21c1.78-0.24,1.45,1.3,1.34,1.9c-0.3,1.7-3.68,2.09-5,0.67c0.9,0.35,2.02,0.52,2.51-0.29
	c0.56-0.91-0.52-1.5-1.07-2.2c-1.25-1.61-2.71-3.2-3.39-5.06C560.88,51.82,561.42,49.6,563.45,48.09z"/>
<path class="st9" d="M614.89,29.82c-1.14,2.56-3.18,3.26-5.22,1.8c-1.3-0.92-0.87,1.25-1.99,0.96c-0.51-0.86,0.47-3.35-2.16-2.48
	c-0.02-0.73,0.37-1.1,1.06-1.04C609.36,29.29,612.12,29.56,614.89,29.82z M609.71,30.43l0.09-0.16l-0.15-0.01L609.71,30.43z"/>
<path class="st9" d="M582.25,39.48c0.81,0.87,1.58,1.82,0.42,2.91c-1.32,1.24-1.72,2.7-1.47,4.43c0.08,0.52-0.12,1.06-0.54,1.31
	c-0.57,0.33-0.79-0.42-1.2-0.57c-3.07-1.08-0.62-3.33-1.08-4.95c1.92,0,0.52,1.47,1.07,2.57C581.05,43.4,581.13,41.15,582.25,39.48z
	"/>
<path class="st2" d="M42.98,139.52c0,2.53,2.12,4.43,2.03,7.01c-0.05,1.26-0.22,2.44-0.96,3.49
	C42.49,146.63,40.82,143.27,42.98,139.52z"/>
<path class="st2" d="M47.55,165.01c2.03-0.84,3.15,0.3,3.99,1.9c1,1.9,1.49,3.95,1.51,6.1C50.88,170.56,48.78,168.09,47.55,165.01z"
	/>
<path class="st9" d="M552.5,73.51c-0.02-0.31-0.03-0.62-0.05-0.93c2.34,0.73,3.86-1.46,6.04-1.68c1.92-0.19,3.18-0.47,3.25,1.97
	c0.01,0.34,0.46,0.67,0.7,1c-0.53,0.77-1,0.78-1.36-0.13c-0.62-1.57-1.93-1.75-3.39-1.75c-1.7,0-1.29,1.54-1.83,2.38
	C554.77,73.99,553.7,73.49,552.5,73.51z"/>
<path class="st9" d="M206.01,38.05c-0.67,0.78-1.56,0.36-2.35,0.44c-0.44-0.53-1.06-0.38-1.63-0.45c0.59-0.77,0.36-2.02,1.46-2.49
	c0.17,0.6,0.44,1.32,0.95,0.29c0.56-1.14,0.88-2.4,1.46-4.01C207.22,34.2,205.51,36.14,206.01,38.05z"/>
<path class="st2" d="M44.16,150.93c1.88,1.33,2.13,3.64,3.13,5.47c0.66,1.22-0.65,1.59-1.74,1.61
	C44.69,155.73,44.1,153.39,44.16,150.93z"/>
<path class="st9" d="M605.54,30.09c0.56,3.03-2.52,3.96-3.55,6.2c-1.55-0.97-0.43-2.2-0.38-3.29c0.91,0.15,1.19-0.39,1.55-1.13
	C603.61,30.95,604.28,30.06,605.54,30.09z"/>
<path class="st9" d="M590.02,39.47c-0.86,0.24-0.95-0.77-1.55-0.96c-0.38-0.12-0.75-0.25-1.13-0.38c-0.8,2.9-3.12,0.09-4.4,1.18
	c3.04-2.68,3.97-2.87,6.19-1.45C589.79,38.27,590.02,38.76,590.02,39.47z"/>
<path class="st2" d="M214.93,57.56c-0.61-1.11,0.29-2.95-1.71-3.49c-0.17-0.05,0.24-1.5,1.33-1.5c0.15,1.37,1.22,0.85,1.98,0.97
	l-0.02-0.01c0.06,1.55,1.65,0.63,2.39,1.57C217.27,55.51,215.7,55.97,214.93,57.56z"/>
<path class="st7" d="M293.35,199.15c0.43,2.26,1.94,4.12,2.23,6.46c0.13,1.03-0.11,1.32-0.93,1.51c-0.65-2.46-0.47-5.23-2.65-7.12
	c0,0,0.01,0.01,0.01,0.01c0.01-0.35,0.01-0.7,0.02-1.05C292.46,199.03,292.91,199.09,293.35,199.15z"/>
<path class="st9" d="M557.96,65.57c1.52,1.13,3.67,1.02,4.99,2.55C559.83,69.05,558.63,68.44,557.96,65.57z"/>
<path class="st6" d="M45.19,186.51c-0.79-0.15-1.8,0.31-2.22-0.83c1.92-0.13,3.57-1.65,5.63-1.05c-0.04,0.48-0.08,0.95-0.13,1.43
	C47.33,185.87,46.27,186.23,45.19,186.51z"/>
<path class="st9" d="M562.93,61.36c-1.64,0.91-3.28,1.82-4.92,2.72C558.19,61.7,559.31,61.08,562.93,61.36z"/>
<path class="st9" d="M203.56,34.53c-2.29-1.1-0.12-2.7-0.46-4.03C205.05,31.64,204.85,33.02,203.56,34.53z"/>
<path class="st8" d="M38.06,182.01c-1.95-0.11-3.87,0.01-5.85,1.02c1.21-2.38,3.73-2.69,5.84-1
	C38.05,182.02,38.06,182.01,38.06,182.01z"/>
<path class="st2" d="M215.52,52.54c-0.03-0.15-0.04-0.3-0.05-0.45c2.03-0.03,3.83,0.5,5.48,2.25c-1.77,0.17-2.95-1.22-4.43-0.82
	c0,0,0.02,0.01,0.02,0.01C216.2,53.21,215.86,52.87,215.52,52.54z"/>
<path class="st6" d="M41.51,185.19c-0.27,1.48-1.44,1.19-2.46,1.29c-1.03,0.1-2.04,0.3-3.06,0.46
	C37.56,185.5,39.55,185.42,41.51,185.19z"/>
<path class="st9" d="M618.64,30.64c-0.49,0.76-0.96,1.92-1.92,1.7c-1.2-0.27-0.45-1.54-0.6-2.36
	C616.96,30.2,617.8,30.42,618.64,30.64z"/>
<path class="st9" d="M577.03,40.94c-1.83-0.13-2.68-1.09-2.48-2.93C575.63,38.77,576.48,39.72,577.03,40.94z"/>
<path class="st9" d="M567.5,74.95c-1.12-0.48-2.45-0.27-3.49-1.02C565.44,73.37,566.84,72.88,567.5,74.95z"/>
<path class="st9" d="M591.49,43.52c-2.05-0.71-0.3-2-0.47-3C592.83,41.26,590.84,42.6,591.49,43.52z"/>
<path class="st6" d="M52.62,184.75c-0.91,1.06-1.8,1.1-2.65-0.07C50.86,184.7,51.74,184.72,52.62,184.75z"/>
<path class="st9" d="M626.49,40.49c-0.9-0.49-1.26-1.08-0.36-1.9C626.68,39.14,626.42,39.85,626.49,40.49z"/>
<path class="st9" d="M621.04,30.38c-0.53-0.02-1.07-0.04-1.6-0.06C620.01,29.15,620.54,29.3,621.04,30.38z"/>
<path class="st12" d="M292.02,198.97c-0.01,0.35-0.01,0.7-0.02,1.05c-1.07-0.08-1.02-0.82-0.93-1.59
	C291.55,198.32,291.78,198.67,292.02,198.97z"/>
<path class="st9" d="M574.02,37.79c-0.78,0.35-1.33,0.07-1.75-0.61C572.99,37,573.7,36.83,574.02,37.79z"/>
<path class="st6" d="M31.47,191.56c0.64,0.62,1.66,1.23,0.09,1.94C31.53,192.86,31.5,192.21,31.47,191.56z"/>
<path class="st12" d="M291.08,198.43c-0.46,0.14-0.81-0.03-1.08-0.41c0.02-0.25,0.05-0.5,0.07-0.75
	C290.79,197.33,290.96,197.86,291.08,198.43z"/>
<path class="st9" d="M577.86,42.23c-0.65-0.17-0.83-0.64-0.77-1.25C577.81,41.11,578,41.57,577.86,42.23z"/>
<path class="st2" d="M53.76,176.04c-0.48,0.08-0.73-0.15-0.83-0.6c0.09-0.33,0.18-0.66,0.27-0.99
	C53.39,174.98,53.58,175.51,53.76,176.04z"/>
<path class="st12" d="M289.14,196.37c-0.42-0.03-0.56-0.3-0.58-0.66C289.05,195.68,289.09,196.03,289.14,196.37z"/>
<path class="st2" d="M215.03,45.52c0.22,0.07,0.43,0.13,0.65,0.2c-0.04,0.06-0.12,0.18-0.13,0.18c-0.18-0.11-0.36-0.23-0.54-0.35
	C215.01,45.55,215.03,45.52,215.03,45.52z"/>
<path class="st0" d="M50.53,173.53c0.17,0.17,0.33,0.33,0.5,0.5c0,0,0.03-0.03,0.03-0.03c-0.17-0.16-0.34-0.33-0.5-0.49
	L50.53,173.53z"/>
<polygon class="st0" points="50.55,173.51 50.47,173.42 50.53,173.53 "/>
<path class="st9" d="M335.56,110.01c0.15,0.17,0.3,0.34,0.45,0.51C335.86,110.35,335.71,110.18,335.56,110.01z"/>
<path class="st6" d="M31.54,193.51c-0.16,0.16-0.32,0.33-0.48,0.49C31.23,193.84,31.39,193.68,31.54,193.51z"/>
<path class="st6" d="M31.17,190.97c0.1,0.2,0.2,0.39,0.3,0.59C31.37,191.36,31.27,191.17,31.17,190.97z"/>
<path class="st9" d="M590.5,39.8c-0.14-0.1-0.29-0.2-0.43-0.3C590.22,39.6,590.36,39.7,590.5,39.8z"/>
<path class="st10" d="M552.5,73.51c1.2-0.02,2.26,0.48,3.36,0.86c8.24,4.68,16.35,9.61,23.78,15.51c5.7,4.53,11.71,8.83,15.4,15.41
	c1.35,2.41,2.14,4.72-0.12,7.04c-0.7,0.72-0.49,1.52-0.11,2.31c4.16,8.67,5.49,17.89,5.14,27.39c-0.31,8.4,1.21,16.37,5.21,23.81
	c2.75,5.11,6.59,9.34,10.76,13.3c0.66,0.63,1.33,1.27,1.91,1.97c2.32,2.82,2.29,5.9-0.26,8.5c-2.03,2.07-4.33,3.89-6.4,5.92
	c-3.07,3-3.03,6.48-0.01,9.44c1.38,1.35,0.88,2.73-0.05,4.04c-1.26,1.78-3.28,2.14-5.35,2.68c0.65,0.7,1.3,1.28,1.81,1.97
	c2.21,2.98,1.89,5.44-1.23,7.36c-3.73,2.3-5.84,5.43-6.37,9.82c-0.74,6.19-5.75,10.39-12.04,10.68c-5.34,0.25-10.36-1.32-15.46-2.36
	c-6.42-1.31-12.1-0.41-16.59,4.66c-2.46,2.77-2.86,6.5-3.99,9.86c-2.27,6.73-3.29,13.7-3.37,20.79
	c-0.12,10.63,4.11,19.59,11.09,27.26c5.77,6.35,10.8,13.23,15.69,20.25c2.13,3.05,4.81,5.68,6.69,8.92
	c-10.16,2.85-20.39,4.5-30.69,0.86c-8.17-2.89-14.63-7.71-16.54-16.78c-0.65-3.08-0.72-6.28-1.16-9.41
	c-0.88-6.16-4.77-10.18-10.8-11.3c-4.89-0.91-8.12-7.43-6.16-12.5c0.76-1.97,1.91-3.72,3.41-5.18c1.3-1.26,1.01-1.84-0.5-2.68
	c-5.61-3.13-7.45-9.74-4.4-15.27c0.74-1.35,1.75-2.46,3.18-3.06c2.82-1.18,3.51-2.95,2.18-5.74c-0.74-1.56-1.97-2.67-3.3-3.69
	c-1.45-1.11-2.97-2.14-4.39-3.3c-4.61-3.78-5.89-8.74-3.86-14.34c2.1-5.79,6.15-10.22,10.02-14.8c5.59-6.61,11.14-13.25,16.74-19.85
	c2.66-3.14,3.59-6.63,1.78-10.42c-6.68-13.98-3.72-27.6,1.36-41.16c2.25-6.02,5.18-11.73,8.73-17.1c0.75-1.13,1.1-2.01-0.34-2.86
	c-1.09-0.65-1.12-1.49,0.1-2c2.04-0.84,0.79-1.35-1.16-2.07c4.87-1.09,7.58-3.38,8.27-7.58c-1.61,0.39-3.24-1.17-5.11,0.04
	c-0.58,0.38-1.97-0.38-2.16-1.55c-0.08-0.47,0-0.89-0.37-1.34c-1.26-1.51-3.26-3.44,1.11-2.56c1.34-2.35,2.54-0.19,3.87-0.08
	c1.83,0.15,4.01-0.92,4.71-2.82c0.71-1.92-0.95-2.48-2.79-2.52c0.87-0.96,1.48-2.07,2.42-2.57c0.99-0.53,1.31-1.06,0.66-1.78
	c-0.61-0.67-1.65-1.54-2.52-0.76c-1.15,1.01-3.13,0.28-3.88,2.18c-0.26,0.65-1.44,0.7-1.83-0.54c-0.41-1.31-0.47-1.29-1.84-0.57
	c-0.17-3.06,1.03-4.89,3.77-5.71c0.46-0.14,0.77-0.24,0.61-0.8c-0.18-0.64,0.35-1.48-0.72-1.85c-0.8-0.28-1.96-0.37-1.86-1.65
	c0.09-1.25,1.44-0.88,2.16-1.55c-1.38-0.07-1.46-2.31-3.33-1.7c-0.43,0.14-0.26-3.54,0.64-4.03
	C550.11,77.36,550.8,74.99,552.5,73.51z"/>
<path class="st4" d="M612.68,48.76c-0.09,2.12,0.11,4.12,1.26,6.04c0.58,0.97,0.02,2.22-0.78,2.83c-0.74,0.56-0.93-0.59-1.33-1.03
	c-2.14-2.45-1.8-5.69-2.61-8.55c-0.22-0.77,0.82-0.99,1.46-0.74C611.48,47.62,612.86,47.19,612.68,48.76z"/>
<path class="st15" d="M637.96,34.03c-0.02,0.07-0.02,0.15-0.06,0.2c-0.02,0.03-0.1,0.01-0.16,0.01c0.08-0.06,0.17-0.12,0.25-0.18
	C637.99,34.05,637.96,34.03,637.96,34.03z"/>
<path class="st7" d="M96.97,215.54c-2.59,0.49-5.16,0.99-7.16-1.49c-0.33-0.4-0.9-0.53-0.15-0.99c0.32-0.2,0.94-0.24,0.57-0.81
	c-0.28-0.42-0.82-0.69-1.29-0.34c-0.97,0.73-1.98,0.68-3.08,0.38c-0.04-1.08,0.93-0.99,1.47-1.36c0.49,0,0.98,0.02,1.47-0.02
	c0.44-0.04,1.12,0.3,1.26-0.31c0.15-0.68-0.39-1-1.06-1.04c-0.33-0.02-0.65-0.07-0.98-0.1c-0.63-1.68,1.88-2.18,1.43-3.8
	c1.92-2.64,1.83-3.01-1.35-4.58c-1.49-0.73-3.14-2.17-4.3,0.46c-0.78-0.24-1.51-0.7-2.38-0.58c-0.49-0.44-0.99-0.89-1.48-1.33
	c1.21-0.51,2.24-1.62,3.8-0.82c0.58,0.3,0.78-0.35,0.84-0.86c0.44-0.19,0.88-0.39,1.31-0.58c0.83,2.03,3.09,2.02,4.55,3.16
	c1.6,1.24,2.42,0.77,2.58-1.29c0.11-1.4-0.71-2.36-1.76-3.09c-4.02-2.82-8.25-3.62-12.84-1.33c-1.17,0.58-2.48,0.89-3.73,1.32
	c-0.07-0.48-0.13-0.95-0.2-1.43c0.55-0.34,1.55-0.06,1.69-0.83c0.16-0.85-0.76-1.24-1.34-1.61c-3.03-1.93-6.41-3.06-9.8-4.17
	c0-0.37,0.01-0.73,0.01-1.1c4.18,0.15,7.75,1.94,10.7,4.67c1.87,1.73,3.05,1.33,4.59-0.12c0.7-0.66,1.17-1.63,2.27-1.88
	c0.61,1.13-0.83,1.71-0.7,2.68c11.31,0.47,13.68,6.3,14.46,12.78c-1.04-1.09-1.27-2.33-1.43-3.63c-0.05-0.41-0.35-0.8-0.82-0.8
	c-0.56,0-0.54,0.51-0.61,0.9c-0.3,1.61,2.39,5.9,4.02,6.41l0,0c-0.54,2.32-0.18,2.78,2.14,2.56c1.13-0.11,2.25-0.36,3.37-0.55
	l-0.02-0.02c-1.48,1.8-3.02,3.53-5.25,4.42C97.22,214.64,97.03,215.01,96.97,215.54z M94.98,208.61c0.05-0.94-2.1-4.09-2.75-3.88
	c-0.95,0.31-1.59,1.19-1.88,2.11c-0.24,0.78,2.32,3.19,3.19,3.14C94.39,209.95,94.94,209.54,94.98,208.61z M92.2,211.81
	c-0.01-0.06-0.01-0.14-0.04-0.17c-0.05-0.04-0.13-0.03-0.2-0.04c0.02,0.1,0.04,0.19,0.06,0.29
	C92.07,211.86,92.13,211.84,92.2,211.81z"/>
<path class="st7" d="M98.1,266.57c-0.03-1.51-0.05-3.03-0.08-4.54c1.57-3.45,2.86-6.99,2.94-10.83c0.02-1.23-0.3-2.53-1.95-2.71
	c0.5-2.59-1.71-4.49-1.81-6.99c-0.03-0.7-1.47-1.36-2.28-2.03c-0.52-0.43-1.15-0.88-0.71-1.61c0.39-0.65,0.95-0.19,1.5,0
	c1.2,0.4,1.43,0.04,1.8-2.5c0.11-0.17,0.22-0.33,0.33-0.5c0.53,1.3,0.91,2.73,2.57,3.08c0.01,0.46,0.56,1.24-0.53,1.06
	c-0.43-0.07-0.87-0.69-1.24-0.04c-0.28,0.49,0.08,0.96,0.44,1.32c2.2,2.15,3.33,4.91,4.3,7.73c0.24,0.71,0.98,1.76-0.7,1.99
	c-0.88,0.12-0.72,1-0.69,1.64c0.11,2.21-0.47,4.29-1.3,6.27c-1.47,3.52-1.8,7.01-0.2,10.57l0.01-0.01
	C99.21,268.5,99.53,266.42,98.1,266.57z"/>
<path class="st7" d="M100.97,224.52c-0.69-0.07-1.2-0.37-1.4-1.08c1.2-2.07-0.39-3.59-1.03-5.3c1.37-1.98-1.6-1.38-1.53-2.58
	c3.53,0.32,5.54-1.99,7.71-5.14c0.03,3.08-1.08,4.83-2.89,5.82c-2.04,1.12-1.77,2.17-0.61,3.66c2.74,3.5,3.59,7.78,4.7,11.93
	c0.19,0.71,0.38,1.61-0.51,2.61c-1.22-4.06-1.51-8.26-4.19-11.88C101.1,223.42,101.03,223.97,100.97,224.52z"/>
<path class="st7" d="M99.64,230.08c-0.9-2.37-3.63-3.84-3.4-7.4c1.5,2.83,4.19,4.29,4.23,7.38
	C100.19,230.08,99.92,230.08,99.64,230.08z"/>
<path class="st2" d="M212.98,58.57c0,0.57-0.24,0.97-0.72,0.76c-0.8-0.35-1.84-0.48-2.14-1.47c-0.14-0.46,0.26-0.8,0.75-0.62
	C211.67,57.53,212.74,57.5,212.98,58.57z"/>
<path class="st7" d="M103.2,241.93c0.4,0,0.81,0.01,1.21,0.01c0.15,1.26,0.27,2.51-0.29,4.25
	C103.31,244.54,103.35,243.21,103.2,241.93z"/>
<path class="st7" d="M104.32,239.05c-1.23-0.87-0.93-1.94-0.4-3.03C104.87,236.93,104.43,238.01,104.32,239.05z"/>
<path class="st7" d="M103.58,234c-0.65-0.9-1.35-1.79-0.65-2.98C103.59,231.91,103.95,232.87,103.58,234z"/>
<path class="st15" d="M215.52,52.54c0.34,0.33,0.67,0.67,1.01,1c-0.76-0.13-1.84,0.39-1.98-0.97
	C214.87,52.56,215.2,52.55,215.52,52.54z"/>
<path class="st7" d="M103.04,210.01c0.03-0.06,0.06-0.13,0.09-0.19c-0.04,0.06-0.07,0.12-0.11,0.17
	C103.02,209.99,103.04,210.01,103.04,210.01z"/>
<path class="st7" d="M97.54,208c0.07-0.07,0.13-0.14,0.2-0.21c-0.01,0.04-0.01,0.1-0.04,0.12C97.65,207.96,97.59,207.97,97.54,208
	C97.53,208,97.54,208,97.54,208z"/>
<path class="st7" d="M100.53,268.49c0.05,0.03,0.1,0.06,0.16,0.1c-0.05-0.04-0.1-0.07-0.14-0.11
	C100.54,268.48,100.53,268.49,100.53,268.49z"/>
<path class="st7" d="M97.48,274.39c0-0.12,0.01-0.24,0.03-0.36c0.05,0.1,0.11,0.2,0.16,0.29C97.61,274.34,97.54,274.36,97.48,274.39
	z"/>
<path class="st15" d="M334.87,233.02c2.72,0.06,5.43-0.12,8.17,0.39c2.61,0.49,5.26-0.28,7.86-0.7c1.15-0.18,1.9-0.06,2.6,0.78
	c0,0.5,0,1,0,1.5c-0.5,0.35-0.49,0.68,0.03,1c1.06,5.05,3.04,9.74,5.57,14.22c2.17,3.84,3.26,8.13,5.01,12.16
	c2.15,4.94,5.24,9.17,8.71,13.18c3.03,3.51,6.13,6.95,9.2,10.43c-1.6,3.97-4.36,7.15-7.1,10.35c-6.17,7.19-13.68,13.04-20,20.08
	c-2.87,3.19-5.41,6.68-8.07,10.05c-3.63,4.59-7.33,9.09-11.39,13.34c-2.17,2.27-4.41,4.67-6.1,7.44c-0.73,1.2-1.76,2-3.3,1.72
	c-4.12-6.25-6.14-13.26-7.54-20.52c-0.41-2.13-0.51-4.24-0.5-6.38c0.01-1.06,0.09-2.04,1.51-2.05c1.97,1.52,3.97,2.57,6.34,0.66
	c0.26-0.21,0.93,0.17,1.4,0.16c1.93-0.05,3.89-0.03,5.26-1.76c4.92-0.74,8.55-3.79,12.07-6.93c5.77-5.13,6.49-12.11,6.82-19.21
	c0.03-0.65,0.05-1.29,0.08-1.94c0.81-2,0.81-3.99-0.01-5.99c-0.12-1-0.25-2.01-0.38-3.01c0.66-0.54,0.03-1-0.1-1.49
	c0.2-1.27-0.39-2.45-0.45-3.68c-0.34-7.33-2.11-14.35-4.47-21.24c-1.16-3.4-2.26-6.88-4.86-9.57c-1.41-3.7-3.59-6.99-5.43-10.45
	C335.37,234.76,335.17,233.86,334.87,233.02z"/>
<path class="st8" d="M445.87,161.99c0.79,1.22,0.74,2.68,1.12,4.02c-2.44,0.38-2.9,2.82-4.25,4.27
	c-7.71,8.35-14.94,17.14-23.33,24.85c-2.45,2.25-4.6,4.8-6.96,7.15c-4.94,4.93-10.59,8.91-16.48,12.65
	c-3.69,2.35-7.46,4.47-11.3,6.53c-4.37,2.35-9.15,3.39-13.78,4.93c-0.64,0.21-1.46,0.35-2.27-0.49c2.25-0.77,4.38-1.55,6.47-2.22
	c3.33-1.07,6.22-2.8,9.27-4.37c3.49-1.78,6.48-4.27,9.98-5.94c1.49-0.71,2.56-1.89,3.68-2.95c3.69-3.49,8.14-6.06,11.64-9.79
	c6.63-7.08,13.72-13.77,19.93-21.19c4.35-5.2,9.51-9.71,13.25-15.43C443.52,162.96,444.56,162.23,445.87,161.99z"/>
<path class="st8" d="M449.99,98.07c3.01,0.83,3.44,1.65,2.08,4.31c-2.34,4.58-4.23,9.32-5.52,14.3c-0.12,0.45-0.48,0.83-0.73,1.25
	c-1,0.04-1.48,0.69-1.72,1.54c-1.38,4.89-4.6,8.95-6.19,13.75c-1.72,5.2-4.95,9.67-7.26,14.6c-2.76,5.89-5.86,11.76-10.1,16.77
	c-4.27,5.05-7.82,10.67-12.61,15.34c-4.73,4.61-9.06,9.63-13.57,14.46c-2.25,2.41-4.7,4.58-7.38,6.52
	c-0.58-0.72-0.04-1.05,0.27-1.37c3.43-3.62,6.92-7.19,10.31-10.84c5.4-5.82,10.53-11.86,15.55-18.01
	c4.65-5.69,8.62-11.85,12.42-18.09c2.79-4.58,4.81-9.62,7.37-14.35c4.14-7.63,7.54-15.6,11.34-23.39c1.75-3.61,2.93-7.5,4.26-11.3
	C449.11,101.77,449.49,99.9,449.99,98.07z"/>
<path class="st8" d="M414.14,80.34c1.93,1.7,1.44,3.93,1.71,5.88c0.96,6.75,1,13.45-1.12,20.13c-1.31,4.15-3.22,8-4.79,12.01
	c-3.14,8.01-6.69,15.83-10.65,23.44c-4.96,9.55-9.12,19.45-12.49,29.61c-1.85,5.56-3.63,11.29-4.15,17.28
	c-1.25-2.19-0.15-4.38,0.09-6.49c0.78-6.95,3.11-13.57,5.45-20.07c3.07-8.51,6.51-16.91,10.67-25.01c3.81-7.42,7.1-15.11,10.6-22.69
	c2.21-4.79,4.2-9.66,5.12-14.89c0.81-4.62,0.48-9.27,0.2-13.9C414.67,83.88,414.36,82.11,414.14,80.34z"/>
<path class="st8" d="M381.33,85.76c0.78,2.2,0.02,4.28-0.64,6.13c-1.25,3.53-1.45,7.19-1.58,10.77c-0.31,8.73-0.55,17.51,0.03,26.21
	c0.54,8.21,0.9,16.39,0.86,24.61c0,0.89,0.23,1.83-0.26,2.67c-0.43,0.06-0.65-0.12-0.68-0.52c-0.35-5.62-0.42-11.27-1.12-16.84
	c-0.94-7.48-1.03-15.01-1.8-22.49c-0.29-2.84,0.07-5.8,0.52-8.65c0.28-1.75,0.36-3.46,0.34-5.2c-0.04-4.03,1.5-7.67,2.68-11.4
	C380.23,89.29,380.78,87.52,381.33,85.76z"/>
<path class="st8" d="M381.97,193.22c-0.55-1.33-0.63-2.13,0.01-3.19C382.69,191.09,382.61,191.89,381.97,193.22z"/>
<path class="st9" d="M353.53,235.99c-0.52-0.32-0.53-0.65-0.03-1C354.01,235.31,354.02,235.64,353.53,235.99z"/>
<path class="st9" d="M341.22,246c2.6,2.69,3.69,6.17,4.86,9.57c2.36,6.89,4.14,13.91,4.47,21.24c0.06,1.23,0.65,2.41,0.45,3.68
	c-0.16,0-0.32-0.01-0.48-0.01c-1.78-2.76-2.08-6.01-3.02-9.05c-1.73-5.59-2.41-11.42-4.1-17.01c-0.71-2.35-1.88-4.56-2.74-6.86
	C340.47,247.04,339.74,246.04,341.22,246z"/>
<path class="st4" d="M351.41,292.91c-0.32,7.1-1.05,14.07-6.82,19.21c-3.53,3.14-7.15,6.19-12.07,6.93c0.46-0.71-0.08-1.1-0.49-1.53
	c1.12-1.19,3.11-1.19,3.9-2.85c0.1-0.21,0.67-0.41,0.89-0.32c2.8,1.18,3.23-1.37,4.25-2.76c2.22-3.01,5.68-5.18,6.6-9.04
	c0.74-3.12,2.31-5.93,3-9.05C350.73,293.26,351.15,293.11,351.41,292.91z"/>
<path class="st7" d="M254.93,221.61c1.3,0.38,3.43-1.45,3.81,1.45c0.05,0.37,0.6,0.27,0.71-0.08c0.24-0.76,0.57-1.11,1.44-0.81
	c1.08,0.37,0.4,0.81,0.25,1.4c-0.21,0.84,0.48,0.54,0.95,0.49c2.4-0.25,4.86-0.81,6.96,1.02c-0.08,0.92-1.36,1.32-1.03,2.42
	c-2.85-0.97-5.81-1.09-8.78-1.02c-1.21,0.03-2-0.46-3-1.21c-1.91-1.45,1.32-0.34,0.2-1.21
	C255.55,223.71,254.17,223.37,254.93,221.61z"/>
<path class="st12" d="M273.51,224.95c0.63-1.78,2.14-0.92,3.19-0.89c4.33,0.12,7.76-1.05,10.67-4.66c1.1-1.37,1.13-3.64,3.35-4.59
	c0.1,1.34-1.15,1.93-0.81,2.97c0.78,0.53,1.35-0.38,2.05-0.35c0.06,0.84-0.42,1.29-1.11,1.64c-1,0.51-0.73,1.25-0.28,1.98
	c-0.03,0.16-0.08,0.31-0.15,0.46c-1.15-0.12-2.08,0.22-2.84,1.15c-1.45,1.76-4.21,0.96-5.67,2.79c-0.05,0.06-0.31-0.01-0.46-0.07
	c-2.22-0.77-3.17-0.44-4.43,1.54c-0.2,0.04-0.4,0.08-0.59,0.12c-0.66,0.2-0.75-2.64-1.84-0.34c-0.2,0.43-0.8,0.88-1.21,0.57
	c-0.7-0.53,0.23-1.17,0.14-1.79c0,0-0.02,0.03-0.02,0.03c0.06-0.05,0.17-0.12,0.16-0.16C273.63,225.21,273.56,225.08,273.51,224.95z
	"/>
<path class="st12" d="M292,200c2.18,1.89,2,4.66,2.65,7.12c-0.03,0.95-0.06,1.91-0.09,2.86c-0.95,0.79-0.44,1.39,0.26,1.96
	c0.02,0.51,0.04,1.02,0.05,1.52c-2.32-1.8-1.52,1.11-2.35,1.56c-0.5-2.04-1.11-4.06-1.45-6.12c-0.14-0.82-0.55-2.09,0.96-2.41
	c0.07,0.04,0.14,0.08,0.21,0.12c-0.07-0.04-0.14-0.08-0.22-0.12C291.53,204.34,292.3,202.17,292,200z"/>
<path class="st0" d="M277.03,226.92c1.26-1.98,2.21-2.31,4.43-1.54c0.15,0.05,0.41,0.13,0.46,0.07c1.46-1.82,4.21-1.02,5.67-2.79
	c0.77-0.93,1.69-1.27,2.84-1.15c-0.94,2.92-2.89,4.37-6.01,4.57c-1.32,0.08-2.57,1.04-3.91,1.29
	C279.38,227.57,278.06,227.99,277.03,226.92z M284.41,224.92c-0.14-0.04-0.32-0.15-0.4-0.1c-0.12,0.07-0.17,0.26-0.25,0.4
	c0.14,0.04,0.32,0.15,0.42,0.1C284.29,225.26,284.33,225.06,284.41,224.92z"/>
<path class="st9" d="M332.03,317.53c0.41,0.43,0.95,0.82,0.49,1.53c-1.37,1.73-3.33,1.71-5.26,1.76c-0.48,0.01-1.15-0.36-1.4-0.16
	c-2.37,1.91-4.37,0.86-6.34-0.66c2.6-0.77,5.34-0.7,7.98-1.37C328.99,318.24,330.35,317.13,332.03,317.53z"/>
<path class="st0" d="M273.52,225.48c0.09,0.62-0.84,1.25-0.14,1.79c0.41,0.31,1.01-0.14,1.21-0.57c1.09-2.3,1.18,0.54,1.84,0.34
	c-1.7,1.76-3.88,2.03-6.15,1.92c-0.99-0.05-2.03-0.18-2.26-1.47c-0.33-1.09,0.95-1.5,1.03-2.42c0.64-0.26,1.29-1,1.95-0.1
	C271.71,225.94,272.68,225.34,273.52,225.48z"/>
<path class="st7" d="M292.51,215.03c0.83-0.45,0.03-3.36,2.35-1.56c0.33,2.21-0.02,4.23-1.54,5.98c-0.75,0.87-2.21,0.42-2.75,1.6
	c-0.45-0.74-0.72-1.47,0.28-1.98c0.69-0.35,1.17-0.8,1.11-1.64C292.15,216.63,292.33,215.83,292.51,215.03z"/>
<path class="st4" d="M351.47,284.99c0.82,1.99,0.82,3.99,0.01,5.99C350.77,288.98,350.77,286.99,351.47,284.99z"/>
<path class="st7" d="M294.82,211.95c-0.7-0.57-1.21-1.17-0.26-1.96C295.73,210.5,295.79,211.15,294.82,211.95z"/>
<path class="st7" d="M246.48,220.07c0.71-0.09,1.38-0.11,1.58,0.8C247.31,221.06,246.71,220.93,246.48,220.07z"/>
<path class="st4" d="M350.52,280.48c0.16,0,0.32,0,0.48,0.01c0.13,0.49,0.76,0.95,0.1,1.49
	C350.44,281.65,350.53,281.05,350.52,280.48z"/>
<path class="st7" d="M251.54,221.43c0.37-0.46,0.68-0.37,0.97,0.08C252.14,221.95,251.82,221.89,251.54,221.43z"/>
<path class="st7" d="M249.06,220.98c0.55-0.07,1.07-0.03,1.46,0.43C249.94,221.57,249.43,221.5,249.06,220.98z"/>
<path class="st1" d="M74.69,196.12c1.25-0.43,2.56-0.73,3.73-1.32c4.59-2.29,8.82-1.49,12.84,1.33c1.04,0.73,1.86,1.69,1.76,3.09
	c-0.16,2.06-0.97,2.53-2.58,1.29c-1.47-1.14-3.72-1.14-4.55-3.16c-0.44,0.19-0.88,0.39-1.31,0.58c-2.18-0.15-4.36-0.29-6.54-0.44
	c-0.13-0.06-0.26-0.1-0.4-0.12C76.66,196.96,75.67,196.54,74.69,196.12z"/>
<path class="st1" d="M99.01,248.49c1.64,0.19,1.97,1.48,1.95,2.71c-0.08,3.84-1.37,7.38-2.94,10.83c-0.18-0.72-0.23-1.52-0.57-2.16
	c-1.81-3.36-2.51-6.52,1.07-9.26C99.15,250.13,98.99,249.23,99.01,248.49z"/>
<path class="st1" d="M65.04,188.08c3.39,1.11,6.77,2.24,9.8,4.17c0.58,0.37,1.5,0.76,1.34,1.61c-0.14,0.77-1.14,0.5-1.69,0.83
	c-0.45-0.11-0.9-0.22-1.36-0.32c-1.73-2.09-4.1-3.09-6.61-3.83c-2.53-1.21-5.4-0.64-7.98-1.54c-0.17-0.16-0.33-0.32-0.5-0.48
	c0.8-1.47,2.17-0.84,3.32-0.82C62.6,187.71,63.82,187.94,65.04,188.08z"/>
<path class="st1" d="M96.02,245.01c1.93,2.41,1.7,5.41-0.56,7.24c-0.37,0.3-0.83,0.84-1.24,0.28c-0.62-0.84-1.72-1.64-1.39-2.79
	c0.45-1.57,0.19-3.14,0.31-4.81c1.6,0.29,1.4,2.14,2.7,2.88c0.53-0.94,0.14-1.91,0.2-2.82L96.02,245.01z"/>
<path class="st1" d="M83.8,201.53c1.16-2.63,2.81-1.2,4.3-0.46c3.19,1.57,3.27,1.94,1.35,4.58c-1.28,0.7-1.9-0.67-2.87-0.91
	c-0.41-1.04-1.41-1.15-2.29-1.45C84.12,202.7,83.96,202.11,83.8,201.53z"/>
<path class="st1" d="M98.53,218.14c0.64,1.71,2.23,3.23,1.03,5.3c-1.45-1.76-2.62-3.76-4.83-5.3
	C96.21,218.14,97.37,218.14,98.53,218.14z"/>
<path class="st7" d="M66.53,190.54c2.51,0.74,4.88,1.74,6.61,3.83c-1.92,0.81-3.33-0.07-4.61-1.39c-0.65-0.4-1.31-0.79-1.96-1.19
	C66.55,191.37,66.54,190.96,66.53,190.54z"/>
<path class="st7" d="M84.29,203.28c0.88,0.3,1.88,0.41,2.29,1.45c-0.17,0.95,0.3,2.32-1.44,2.26c-1.36-0.05-2.91,0.19-3.15-1.82
	c2.12,0.12,2.12,0.12,2.04-0.91C84.11,203.93,84.2,203.61,84.29,203.28z"/>
<path class="st1" d="M66.56,191.79c0.65,0.4,1.31,0.79,1.96,1.19c-1.55,0.04-3.1-0.21-4.65,0.25c-1.63,0.49-1.73-0.95-2.43-1.93
	C63.45,190.69,64.96,191.65,66.56,191.79z"/>
<path class="st1" d="M91.99,248.71c-2.06-1.66-3.11-3.18-3.61-5.34C90.74,244.56,91.95,246.08,91.99,248.71z"/>
<path class="st1" d="M79.94,199.62c0.49,0.44,0.99,0.89,1.48,1.33c0.05,1.09-0.7,0.94-1.38,0.91c-0.58-0.55-1.3-0.37-1.98-0.37
	c-0.67-0.62-1.42-1.44-0.71-2.23C78.12,198.39,79.09,199.25,79.94,199.62z"/>
<path class="st1" d="M97.86,234.86c-0.11,0.17-0.22,0.34-0.33,0.5c-0.48-0.05-1.04,0.03-1.43-0.19c-0.81-0.45-2.11-0.48-2.18-1.71
	c-0.03-0.63,0.78-0.44,1.23-0.41C96.37,233.15,98.06,232.61,97.86,234.86z"/>
<path class="st7" d="M93.79,228.51c1.34,0.92,1.72,2.5,3.2,2.84c0.15,0.03,0.18,0.54,0.27,0.83c-0.3,0.06-0.6,0.2-0.9,0.18
	C93.59,232.21,93.32,231.83,93.79,228.51z"/>
<path class="st7" d="M95,227.66c-0.93-1.64-1.89-3.27-2.78-4.93c-0.12-0.23-0.08-0.73,0.09-0.89c0.41-0.39,0.82-0.04,0.99,0.31
	C94.15,223.9,95.4,225.49,95,227.66z"/>
<path class="st7" d="M88.16,230.6c0.79,0.57,2.28,0.45,2.36,2c0.02,0.44-0.23,0.84-0.76,0.68c-1.15-0.34-2.08-1.05-2.53-2.15
	C87.05,230.68,87.59,230.5,88.16,230.6z"/>
<path class="st1" d="M84.03,204.26c0.08,1.03,0.08,1.03-2.04,0.91c-0.62-0.31-2,0.19-1.68-1.07c0.23-0.89,1.32-0.68,2.11-0.41
	C82.97,203.87,83.5,204.07,84.03,204.26z"/>
<path class="st1" d="M83.59,210.43c-0.71,0.05-1.38-0.05-1.97-0.49c-0.14-0.2-0.29-0.39-0.43-0.59c-0.3-0.51-1.04-1.33,0.27-1.21
	c1.2,0.11,2.57,0.54,2.42,2.3C83.79,210.41,83.69,210.41,83.59,210.43z"/>
<path class="st1" d="M88.02,209.44c0.33,0.04,0.65,0.08,0.98,0.1c0.66,0.05,1.21,0.36,1.06,1.04c-0.14,0.61-0.82,0.28-1.26,0.31
	c-0.49,0.04-0.98,0.02-1.47,0.02C86.82,210.08,87.13,209.62,88.02,209.44z"/>
<path class="st7" d="M74.68,201.91c-0.85-0.12-1.15-0.81-1.31-1.55c-0.04-0.18,0.37-0.66,0.56-0.65c0.85,0.04,1.33,0.61,1.5,1.4
	C75.54,201.6,75.24,201.87,74.68,201.91z"/>
<path class="st7" d="M78.05,201.49c0.69-0.01,1.4-0.19,1.98,0.37c-0.04,0.74-0.36,1.22-1.18,1.1
	C77.98,202.83,78.09,202.11,78.05,201.49z"/>
<path class="st7" d="M56.38,190.51c-0.62-0.82,0.06-0.95,0.61-1.16C57.03,189.87,56.94,190.31,56.38,190.51z"/>
<path class="st7" d="M83.59,210.43c0.1-0.02,0.2-0.02,0.29,0.01c0.29,0.13,0.55,0.31,0.4,0.68c-0.03,0.08-0.36,0.14-0.38,0.12
	C83.78,210.98,83.69,210.7,83.59,210.43z"/>
<path class="st1" d="M96.04,244.99c-0.09-0.11-0.19-0.22-0.27-0.33c-0.02-0.03,0.03-0.11,0.05-0.16c0.07,0.17,0.13,0.34,0.2,0.52
	C96.02,245.01,96.04,244.99,96.04,244.99z"/>
<path class="st7" d="M81.2,209.35c0.14,0.2,0.28,0.39,0.43,0.59C81.32,209.86,81.17,209.67,81.2,209.35z"/>
<path class="st7" d="M77.64,197.38c0.14,0.02,0.27,0.06,0.4,0.12C77.78,197.87,77.67,197.76,77.64,197.38z"/>
<path class="st7" d="M58.04,188.51c0.17,0.16,0.33,0.32,0.5,0.48C58.38,188.83,58.21,188.67,58.04,188.51z"/>
<path class="st0" d="M273.51,224.95c0.05,0.13,0.13,0.26,0.15,0.39c0.01,0.04-0.11,0.11-0.16,0.16
	C273.5,225.32,273.51,225.14,273.51,224.95z"/>
<path class="st4" d="M45.19,186.51c1.08-0.28,2.14-0.64,3.28-0.44c0.01,0.17-0.04,0.32-0.12,0.46c-0.29,0.24-0.84,0.46-0.38,0.9
	c0.3,0.29,0.78,0.14,1.05-0.28c0.31-0.1,0.64-0.19,0.94-0.31c0.96-0.39,2.26-0.77,2.65,0.28c0.43,1.16-1.13,1.07-1.81,1.42
	C47.62,190.14,45.61,189.37,45.19,186.51z"/>
<path class="st9" d="M40.52,190.44c-1.69,1.44-2.77-0.55-4.17-0.78c-0.03-0.01-0.06-0.45,0.01-0.65c0.4-1.1,4.03-2.4,5.1-1.84
	c0.91,0.47,0.27,1.13,0.21,1.71C40.77,189.02,40.42,189.56,40.52,190.44z"/>
<path class="st4" d="M40.52,190.44c-0.1-0.88,0.26-1.43,1.16-1.56c0.39-0.29,0.76-0.63,1.18-0.86c0.85-0.47,1.2,0.29,1.54,0.78
	c0.61,0.9-0.41,0.85-0.79,1.07C42.67,190.44,41.6,190.52,40.52,190.44z"/>
<path class="st9" d="M50.83,191.76c-0.36,0.53-0.7,1.21-1.46,1.06c-0.58-0.11-1.08-0.71-1.04-1.25c0.09-1.02,1-0.51,1.56-0.56
	C50.33,190.98,50.96,190.94,50.83,191.76z"/>
<path class="st4" d="M55.95,192.89c-1.25,0.37-2.02,1.35-3.15,0.93c-0.46-0.17-0.27-0.74,0.04-1.02
	C53.73,192.03,54.69,191.85,55.95,192.89z"/>
<path class="st6" d="M49.02,187.14c-0.27,0.41-0.75,0.56-1.05,0.28c-0.46-0.43,0.09-0.66,0.38-0.9
	C48.57,186.73,48.8,186.93,49.02,187.14z"/>
<path class="st15" d="M195.53,26.54c0.97,1.45-0.24,2.03-1.11,2.71c-0.3,0.24-0.78,0.08-0.77-0.24
	C193.69,27.79,194.29,26.91,195.53,26.54C195.52,26.54,195.53,26.54,195.53,26.54z"/>
<path class="st1" d="M187.48,30.09c-0.82-0.11-1.1-0.61-0.9-1.36c0.04-0.17,0.37-0.43,0.46-0.39c0.82,0.33,0.35,1.1,0.52,1.66
	C187.57,30,187.48,30.09,187.48,30.09z"/>
<polygon class="st0" points="609.71,30.43 609.65,30.26 609.81,30.27 "/>
<path class="st1" d="M94.98,208.62c-0.04,0.92-0.59,1.33-1.44,1.37c-0.88,0.04-3.43-2.37-3.19-3.14c0.28-0.92,0.92-1.8,1.88-2.11
	C92.87,204.52,95.03,207.67,94.98,208.62z"/>
<path class="st12" d="M92.2,211.81c-0.06,0.03-0.12,0.05-0.19,0.08c-0.02-0.1-0.04-0.19-0.06-0.29c0.07,0.01,0.15,0.01,0.2,0.04
	C92.19,211.67,92.18,211.75,92.2,211.81z"/>
<path class="st5" d="M292.01,206.5c0.07,0.04,0.14,0.08,0.22,0.12C292.16,206.58,292.09,206.54,292.01,206.5
	C292.02,206.5,292.01,206.5,292.01,206.5z"/>
<path class="st12" d="M284.41,224.92c-0.07,0.14-0.12,0.34-0.23,0.4c-0.09,0.05-0.28-0.06-0.42-0.1c0.08-0.14,0.13-0.32,0.25-0.4
	C284.09,224.77,284.26,224.88,284.41,224.92z"/>
</svg>
